<svg width="40" height="40" viewBox="0 0 40 40" fill="none" xmlns="http://www.w3.org/2000/svg">
<path d="M19.9987 31.6667C20.3283 31.6667 20.6506 31.569 20.9246 31.3859C21.1987 31.2027 21.4124 30.9424 21.5385 30.6379C21.6646 30.3333 21.6976 29.9982 21.6333 29.6749C21.569 29.3516 21.4103 29.0547 21.1772 28.8216C20.9441 28.5885 20.6472 28.4297 20.3238 28.3654C20.0005 28.3011 19.6654 28.3341 19.3609 28.4603C19.0563 28.5864 18.7961 28.8 18.6129 29.0741C18.4298 29.3482 18.332 29.6704 18.332 30.0001C18.332 30.4421 18.5076 30.866 18.8202 31.1786C19.1327 31.4912 19.5567 31.6667 19.9987 31.6667ZM28.332 31.6667C28.6617 31.6667 28.9839 31.569 29.258 31.3859C29.5321 31.2027 29.7457 30.9424 29.8718 30.6379C29.998 30.3333 30.031 29.9982 29.9667 29.6749C29.9024 29.3516 29.7436 29.0547 29.5105 28.8216C29.2775 28.5885 28.9805 28.4297 28.6572 28.3654C28.3339 28.3011 27.9988 28.3341 27.6942 28.4603C27.3897 28.5864 27.1294 28.8 26.9462 29.0741C26.7631 29.3482 26.6654 29.6704 26.6654 30.0001C26.6654 30.4421 26.841 30.866 27.1535 31.1786C27.4661 31.4912 27.89 31.6667 28.332 31.6667ZM28.332 25.0001C28.6617 25.0001 28.9839 24.9023 29.258 24.7192C29.5321 24.5361 29.7457 24.2758 29.8718 23.9712C29.998 23.6667 30.031 23.3316 29.9667 23.0083C29.9024 22.685 29.7436 22.388 29.5105 22.1549C29.2775 21.9218 28.9805 21.7631 28.6572 21.6988C28.3339 21.6345 27.9988 21.6675 27.6942 21.7936C27.3897 21.9198 27.1294 22.1334 26.9462 22.4075C26.7631 22.6815 26.6654 23.0038 26.6654 23.3334C26.6654 23.7754 26.841 24.1994 27.1535 24.5119C27.4661 24.8245 27.89 25.0001 28.332 25.0001ZM19.9987 25.0001C20.3283 25.0001 20.6506 24.9023 20.9246 24.7192C21.1987 24.5361 21.4124 24.2758 21.5385 23.9712C21.6646 23.6667 21.6976 23.3316 21.6333 23.0083C21.569 22.685 21.4103 22.388 21.1772 22.1549C20.9441 21.9218 20.6472 21.7631 20.3238 21.6988C20.0005 21.6345 19.6654 21.6675 19.3609 21.7936C19.0563 21.9198 18.7961 22.1334 18.6129 22.4075C18.4298 22.6815 18.332 23.0038 18.332 23.3334C18.332 23.7754 18.5076 24.1994 18.8202 24.5119C19.1327 24.8245 19.5567 25.0001 19.9987 25.0001ZM31.6654 5.00008H29.9987V3.33341C29.9987 2.89139 29.8231 2.46746 29.5105 2.1549C29.198 1.84234 28.7741 1.66675 28.332 1.66675C27.89 1.66675 27.4661 1.84234 27.1535 2.1549C26.841 2.46746 26.6654 2.89139 26.6654 3.33341V5.00008H13.332V3.33341C13.332 2.89139 13.1564 2.46746 12.8439 2.1549C12.5313 1.84234 12.1074 1.66675 11.6654 1.66675C11.2233 1.66675 10.7994 1.84234 10.4869 2.1549C10.1743 2.46746 9.9987 2.89139 9.9987 3.33341V5.00008H8.33203C7.00595 5.00008 5.73418 5.52687 4.7965 6.46455C3.85882 7.40223 3.33203 8.674 3.33203 10.0001V33.3334C3.33203 34.6595 3.85882 35.9313 4.7965 36.8689C5.73418 37.8066 7.00595 38.3334 8.33203 38.3334H31.6654C32.9914 38.3334 34.2632 37.8066 35.2009 36.8689C36.1386 35.9313 36.6654 34.6595 36.6654 33.3334V10.0001C36.6654 8.674 36.1386 7.40223 35.2009 6.46455C34.2632 5.52687 32.9914 5.00008 31.6654 5.00008ZM33.332 33.3334C33.332 33.7754 33.1564 34.1994 32.8439 34.5119C32.5313 34.8245 32.1074 35.0001 31.6654 35.0001H8.33203C7.89 35.0001 7.46608 34.8245 7.15352 34.5119C6.84096 34.1994 6.66536 33.7754 6.66536 33.3334V18.3334H33.332V33.3334ZM33.332 15.0001H6.66536V10.0001C6.66536 9.55805 6.84096 9.13413 7.15352 8.82157C7.46608 8.50901 7.89 8.33342 8.33203 8.33342H9.9987V10.0001C9.9987 10.4421 10.1743 10.866 10.4869 11.1786C10.7994 11.4912 11.2233 11.6667 11.6654 11.6667C12.1074 11.6667 12.5313 11.4912 12.8439 11.1786C13.1564 10.866 13.332 10.4421 13.332 10.0001V8.33342H26.6654V10.0001C26.6654 10.4421 26.841 10.866 27.1535 11.1786C27.4661 11.4912 27.89 11.6667 28.332 11.6667C28.7741 11.6667 29.198 11.4912 29.5105 11.1786C29.8231 10.866 29.9987 10.4421 29.9987 10.0001V8.33342H31.6654C32.1074 8.33342 32.5313 8.50901 32.8439 8.82157C33.1564 9.13413 33.332 9.55805 33.332 10.0001V15.0001ZM11.6654 25.0001C11.995 25.0001 12.3172 24.9023 12.5913 24.7192C12.8654 24.5361 13.079 24.2758 13.2052 23.9712C13.3313 23.6667 13.3643 23.3316 13.3 23.0083C13.2357 22.685 13.077 22.388 12.8439 22.1549C12.6108 21.9218 12.3138 21.7631 11.9905 21.6988C11.6672 21.6345 11.3321 21.6675 11.0276 21.7936C10.723 21.9198 10.4627 22.1334 10.2796 22.4075C10.0964 22.6815 9.9987 23.0038 9.9987 23.3334C9.9987 23.7754 10.1743 24.1994 10.4869 24.5119C10.7994 24.8245 11.2233 25.0001 11.6654 25.0001ZM11.6654 31.6667C11.995 31.6667 12.3172 31.569 12.5913 31.3859C12.8654 31.2027 13.079 30.9424 13.2052 30.6379C13.3313 30.3333 13.3643 29.9982 13.3 29.6749C13.2357 29.3516 13.077 29.0547 12.8439 28.8216C12.6108 28.5885 12.3138 28.4297 11.9905 28.3654C11.6672 28.3011 11.3321 28.3341 11.0276 28.4603C10.723 28.5864 10.4627 28.8 10.2796 29.0741C10.0964 29.3482 9.9987 29.6704 9.9987 30.0001C9.9987 30.4421 10.1743 30.866 10.4869 31.1786C10.7994 31.4912 11.2233 31.6667 11.6654 31.6667Z" fill="#EB5757"/>
</svg>
