<svg width="38" height="38" viewBox="0 0 38 38" fill="none" xmlns="http://www.w3.org/2000/svg">
<path d="M2.71429 12.6385C2.71429 11.4934 2.86626 10.4826 3.1702 9.6061C3.47414 8.72961 3.86291 8.03337 4.3365 7.51737C4.81008 7.00137 5.38616 6.5808 6.06473 6.25565C6.74331 5.9305 7.40774 5.71138 8.05804 5.59828C8.70833 5.48519 9.40104 5.42864 10.1362 5.42864C10.8713 5.42864 11.6629 5.60889 12.5112 5.96938C13.3594 6.32987 14.1404 6.78225 14.8544 7.32652C15.5683 7.87079 16.1797 8.37972 16.6886 8.85331C17.1975 9.32689 17.6217 9.7616 17.9609 10.1574C18.2154 10.4684 18.5618 10.624 19 10.624C19.4382 10.624 19.7846 10.4684 20.0391 10.1574C20.3783 9.7616 20.8025 9.32689 21.3114 8.85331C21.8203 8.37972 22.4317 7.87079 23.1456 7.32652C23.8596 6.78225 24.6406 6.32987 25.4888 5.96938C26.3371 5.60889 27.1287 5.42864 27.8638 5.42864C28.599 5.42864 29.2917 5.48519 29.942 5.59828C30.5923 5.71138 31.2567 5.9305 31.9353 6.25565C32.6138 6.5808 33.1899 7.00137 33.6635 7.51737C34.1371 8.03337 34.5259 8.72961 34.8298 9.6061C35.1337 10.4826 35.2857 11.4934 35.2857 12.6385C35.2857 15.0135 33.9639 17.5228 31.3203 20.1664L19 32.0414L6.70089 20.1876C4.04316 17.5298 2.71429 15.0135 2.71429 12.6385ZM0 12.6385C0 15.7627 1.61868 18.9435 4.85603 22.1809L18.067 34.9041C18.3214 35.1586 18.6324 35.2858 19 35.2858C19.3676 35.2858 19.6786 35.1586 19.933 34.9041L33.1652 22.1385C33.3065 22.0254 33.5009 21.8416 33.7483 21.5871C33.9957 21.3327 34.388 20.8697 34.9252 20.1982C35.4624 19.5267 35.9431 18.8375 36.3672 18.1307C36.7913 17.4238 37.1695 16.5685 37.5017 15.5648C37.8339 14.5611 38 13.5856 38 12.6385C38 9.52834 37.1023 7.0968 35.3069 5.34382C33.5115 3.59084 31.0305 2.71436 27.8638 2.71436C26.9874 2.71436 26.0932 2.86633 25.1814 3.17027C24.2695 3.47421 23.4213 3.88418 22.6367 4.40018C21.8521 4.91618 21.1771 5.40037 20.6116 5.85275C20.0461 6.30513 19.5089 6.78578 19 7.29471C18.4911 6.78578 17.9539 6.30513 17.3884 5.85275C16.8229 5.40037 16.1479 4.91618 15.3633 4.40018C14.5787 3.88418 13.7305 3.47421 12.8186 3.17027C11.9068 2.86633 11.0126 2.71436 10.1362 2.71436C6.9695 2.71436 4.48847 3.59084 2.69308 5.34382C0.897694 7.0968 0 9.52834 0 12.6385Z" fill="#BB60A8"/>
</svg>
