<svg width="50" height="50" viewBox="0 0 50 50" fill="none" xmlns="http://www.w3.org/2000/svg">
<g clip-path="url(#clip0_1612_3375)">
<path d="M24.0236 39.8047V44.8047C24.0236 45.3516 24.4533 45.7812 25.0002 45.7812C25.5471 45.7812 25.9768 45.3516 25.9768 44.8047V39.8047C33.1643 39.2578 38.8674 32.9297 38.8674 25.1953C38.8674 17.3438 26.3674 5.11719 25.7033 4.49219C25.6643 4.45313 25.6252 4.45313 25.5861 4.41406C25.508 4.375 25.4689 4.29688 25.3908 4.25781C25.1564 4.14062 24.883 4.14062 24.6486 4.25781C24.5705 4.29688 24.4924 4.33594 24.4533 4.375C24.4143 4.41406 24.3752 4.41406 24.3361 4.45313C23.6721 5.11719 11.1721 17.3047 11.1721 25.1563C11.133 32.9297 16.8361 39.2578 24.0236 39.8047ZM36.8752 25.1953C36.8752 31.8359 32.0705 37.3047 25.9768 37.8516V31.4062L31.5627 26.6016C31.9924 26.25 32.0314 25.625 31.6799 25.1953C31.3283 24.7656 30.7033 24.7266 30.2736 25.0781L25.9768 28.7891V24.6094L31.5627 19.8047C31.9924 19.4531 32.0314 18.8281 31.6799 18.3984C31.3283 17.9687 30.7033 17.9297 30.2736 18.2812L25.9768 21.9922V7.61719C29.4143 11.2109 36.8752 19.7266 36.8752 25.1953ZM24.0236 7.61719V21.9922L19.7268 18.2812C19.2971 17.9297 18.6721 17.9687 18.3205 18.3984C17.969 18.8281 18.008 19.4531 18.4377 19.8047L24.0236 24.6094V28.7891L19.7268 25.0781C19.2971 24.7266 18.6721 24.7656 18.3205 25.1953C17.969 25.625 18.008 26.25 18.4377 26.6016L24.0236 31.4062V37.8516C17.9299 37.3047 13.1252 31.8359 13.1252 25.1953C13.1252 19.7266 20.5861 11.2109 24.0236 7.61719Z" fill="#FD6A49"/>
</g>
<defs>
<clipPath id="clip0_1612_3375">
<rect width="50" height="50" fill="white"/>
</clipPath>
</defs>
</svg>
