<svg width="34" height="34" viewBox="0 0 34 34" fill="none" xmlns="http://www.w3.org/2000/svg">
<path d="M17 1C10.383 1 5 6.383 5 13C5 20.811 15.817 32.21 16.277 32.691C16.3704 32.7886 16.4825 32.8662 16.6067 32.9192C16.7308 32.9723 16.8645 32.9996 16.9995 32.9996C17.1345 32.9996 17.2682 32.9723 17.3923 32.9192C17.5165 32.8662 17.6286 32.7886 17.722 32.691C18.183 32.21 29 20.811 29 13C29 6.383 23.617 1 17 1ZM17 30.522C14.591 27.845 7 18.935 7 13C7 7.486 11.486 3 17 3C22.514 3 27 7.486 27 13C27 18.93 19.408 27.845 17 30.522Z" fill="white"/>
<path d="M17 6C13.14 6 10 9.141 10 13C10 16.859 13.14 20 17 20C20.86 20 24 16.859 24 13C24 9.141 20.86 6 17 6ZM17 18C14.243 18 12 15.757 12 13C12 10.243 14.243 8 17 8C19.757 8 22 10.243 22 13C22 15.757 19.757 18 17 18Z" fill="white"/>
</svg>
