<svg width="130" height="21" viewBox="0 0 130 21" fill="none" xmlns="http://www.w3.org/2000/svg">
<path d="M124.052 14.2421C125.424 14.2421 126.69 13.2506 126.69 11.2886C126.69 9.32653 125.424 8.33497 124.052 8.33497C122.681 8.33497 121.415 9.32653 121.415 11.2886C121.415 13.2295 122.681 14.2421 124.052 14.2421ZM124.052 5.78223C127.154 5.78223 129.495 8.08181 129.495 11.2886C129.495 14.4742 127.154 16.7949 124.052 16.7949C120.951 16.7949 118.609 14.4742 118.609 11.2886C118.609 8.08181 120.951 5.78223 124.052 5.78223Z" fill="white"/>
<path d="M116.388 16.4779H113.582V1.20361H116.388V16.4779Z" fill="white"/>
<path d="M105.366 20.5707H102.392L104.839 15.1699L100.43 6.09814H103.573L106.337 12.1741L108.89 6.09814H111.885L105.366 20.5707Z" fill="white"/>
<path d="M98.5699 16.4783H95.6374V10.2758H89.1184V16.4783H86.207V1.52051H89.1184V7.53317H95.6374V1.52051H98.5699V16.4783Z" fill="white"/>
<path d="M67.457 17.0474L69.9887 16.3723C70.1785 17.5116 71.0857 18.3344 72.4148 18.3344C74.187 18.3344 75.1786 17.4483 75.1786 15.4441V14.6846C74.7566 15.3597 73.7862 16.0137 72.2883 16.0137C69.5245 16.0137 67.457 13.8829 67.457 10.9715C67.457 8.22888 69.4402 5.9082 72.2883 5.9082C73.9338 5.9082 74.8832 6.6255 75.2418 7.32171V6.09808H77.9423V15.3597C77.9423 18.2078 76.4022 20.8027 72.4992 20.8027C69.6511 20.8027 67.7524 19.0306 67.457 17.0474ZM72.7735 13.6086C74.2081 13.6086 75.2207 12.5749 75.2207 10.9715C75.2207 9.36812 74.1237 8.35546 72.7735 8.35546C71.3811 8.35546 70.284 9.36812 70.284 10.9715C70.284 12.596 71.3178 13.6086 72.7735 13.6086Z" fill="white"/>
<path d="M58.6809 10.5073V16.4777H55.875V6.09799H58.5965V7.38491C59.2294 6.30896 60.4742 5.82373 61.5923 5.82373C64.1661 5.82373 65.3476 7.65917 65.3476 9.93766V16.4777H62.5417V10.4229C62.5417 9.26255 61.972 8.35538 60.6218 8.35538C59.3982 8.35538 58.6809 9.30475 58.6809 10.5073Z" fill="white"/>
<path d="M52.8739 16.4781H50.068V6.09837H52.8739V16.4781ZM49.7305 2.70174C49.7305 1.73127 50.5111 0.950684 51.4604 0.950684C52.4309 0.950684 53.1904 1.73127 53.1904 2.70174C53.1904 3.63001 52.4309 4.4106 51.4604 4.4106C50.5111 4.4106 49.7305 3.63001 49.7305 2.70174Z" fill="white"/>
<path d="M47.0189 1.20361V14.6002C47.0189 15.2964 47.0611 16.0559 47.1033 16.4779H44.4239C44.3817 16.2669 44.3184 15.7606 44.3184 15.2754C43.8543 16.0981 42.7994 16.731 41.407 16.731C38.4535 16.731 36.3438 14.4104 36.3438 11.2669C36.3438 8.22893 38.3902 5.84497 41.3227 5.84497C43.1159 5.84497 43.9598 6.58336 44.2551 7.13189V1.20361H47.0189ZM39.1708 11.2669C39.1708 13.1235 40.2678 14.2205 41.7446 14.2205C43.1792 14.2205 44.2973 13.1234 44.2973 11.2458C44.2973 9.38927 43.1792 8.35552 41.7446 8.35552C40.31 8.35552 39.1708 9.41037 39.1708 11.2669Z" fill="white"/>
<path d="M34.1223 16.4779H31.3164V1.20361H34.1223V16.4779Z" fill="white"/>
<path d="M28.3153 16.4781H25.5094V6.09837H28.3153V16.4781ZM25.1719 2.70174C25.1719 1.73127 25.9525 0.950684 26.9018 0.950684C27.8723 0.950684 28.6318 1.73127 28.6318 2.70174C28.6318 3.63001 27.8723 4.4106 26.9018 4.4106C25.9525 4.4106 25.1719 3.63001 25.1719 2.70174Z" fill="white"/>
<path d="M19.9417 16.4779C19.8995 16.2669 19.8573 15.7817 19.8573 15.3598C19.2877 16.3302 18.0852 16.7522 16.9881 16.7522C14.4776 16.7522 13.043 14.9167 13.043 12.6593V6.09814H15.8489V12.0897C15.8489 13.25 16.4396 14.1783 17.7476 14.1783C18.9923 14.1783 19.7096 13.3344 19.7096 12.1319V6.09814H22.5156V14.6003C22.5156 15.4019 22.5788 16.1192 22.621 16.4779H19.9417Z" fill="white"/>
<path d="M0.644531 1.52051H6.02428C8.93568 1.52051 10.5812 3.22937 10.5812 5.55005C10.5812 7.09013 9.65298 8.33486 8.40825 8.7568C9.86395 9.11545 11.0454 10.4446 11.0454 12.3011C11.0454 14.7273 9.23103 16.4783 6.42513 16.4783H0.644531V1.52051ZM3.51373 7.70195H5.58124C6.91036 7.70195 7.71205 6.96355 7.71205 5.82431C7.71205 4.68507 6.97365 3.96777 5.56015 3.96777H3.51373V7.70195ZM3.51373 14.0522H5.8766C7.2901 14.0522 8.13399 13.3138 8.13399 12.1112C8.13399 10.9298 7.37449 10.107 5.9188 10.107H3.51373V14.0522Z" fill="white"/>
</svg>
