<svg width="406" height="211" viewBox="0 0 406 211" fill="none" xmlns="http://www.w3.org/2000/svg">
<mask id="mask0_2018_741" style="mask-type:alpha" maskUnits="userSpaceOnUse" x="0" y="0" width="406" height="211">
<rect width="406" height="211" fill="#D9D9D9"/>
</mask>
<g mask="url(#mask0_2018_741)">
<path d="M8.48175 203.855C8.4831 -63.813 390.203 -36.1226 390.204 116.829" stroke="#BB60A8" stroke-width="2" stroke-dasharray="5 5"/>
<path fill-rule="evenodd" clip-rule="evenodd" d="M390.865 143.86C398.148 143.86 404.051 137.957 404.051 130.674C404.051 123.392 398.148 117.489 390.865 117.489C383.583 117.489 377.68 123.392 377.68 130.674C377.68 137.957 383.583 143.86 390.865 143.86ZM390.865 138.586C395.235 138.586 398.777 135.044 398.777 130.674C398.777 126.305 395.235 122.763 390.865 122.763C386.496 122.763 382.954 126.305 382.954 130.674C382.954 135.044 386.496 138.586 390.865 138.586Z" fill="#BB60A8"/>
<path fill-rule="evenodd" clip-rule="evenodd" d="M390.865 143.86C398.148 143.86 404.051 137.957 404.051 130.674C404.051 123.392 398.148 117.489 390.865 117.489C383.583 117.489 377.68 123.392 377.68 130.674C377.68 137.957 383.583 143.86 390.865 143.86ZM390.865 138.586C395.235 138.586 398.777 135.044 398.777 130.674C398.777 126.305 395.235 122.763 390.865 122.763C386.496 122.763 382.954 126.305 382.954 130.674C382.954 135.044 386.496 138.586 390.865 138.586Z" fill="#BB60A8"/>
<path fill-rule="evenodd" clip-rule="evenodd" d="M390.865 143.86C398.148 143.86 404.051 137.957 404.051 130.674C404.051 123.392 398.148 117.489 390.865 117.489C383.583 117.489 377.68 123.392 377.68 130.674C377.68 137.957 383.583 143.86 390.865 143.86ZM390.865 138.586C395.235 138.586 398.777 135.044 398.777 130.674C398.777 126.305 395.235 122.763 390.865 122.763C386.496 122.763 382.954 126.305 382.954 130.674C382.954 135.044 386.496 138.586 390.865 138.586Z" fill="#BB60A8"/>
</g>
</svg>
