<svg width="383" height="590" viewBox="0 0 383 590" fill="none" xmlns="http://www.w3.org/2000/svg">
<mask id="mask0_2019_744" style="mask-type:alpha" maskUnits="userSpaceOnUse" x="0" y="0" width="383" height="590">
<rect width="383" height="590" fill="#D9D9D9"/>
</mask>
<g mask="url(#mask0_2019_744)">
<path d="M40.1345 6.04093C-103 273.5 497.496 266.999 361.499 562.999" stroke="#BB60A8" stroke-width="2" stroke-dasharray="5 5"/>
<path fill-rule="evenodd" clip-rule="evenodd" d="M358.221 589.901C365.503 589.901 371.406 583.998 371.406 576.715C371.406 569.433 365.503 563.53 358.221 563.53C350.939 563.53 345.035 569.433 345.035 576.715C345.035 583.998 350.939 589.901 358.221 589.901ZM358.221 584.627C362.59 584.627 366.132 581.085 366.132 576.715C366.132 572.346 362.59 568.804 358.221 568.804C353.851 568.804 350.309 572.346 350.309 576.715C350.309 581.085 353.851 584.627 358.221 584.627Z" fill="#BB60A8"/>
<path fill-rule="evenodd" clip-rule="evenodd" d="M358.221 589.901C365.503 589.901 371.406 583.998 371.406 576.715C371.406 569.433 365.503 563.53 358.221 563.53C350.939 563.53 345.035 569.433 345.035 576.715C345.035 583.998 350.939 589.901 358.221 589.901ZM358.221 584.627C362.59 584.627 366.132 581.085 366.132 576.715C366.132 572.346 362.59 568.804 358.221 568.804C353.851 568.804 350.309 572.346 350.309 576.715C350.309 581.085 353.851 584.627 358.221 584.627Z" fill="#BB60A8"/>
<path fill-rule="evenodd" clip-rule="evenodd" d="M358.221 589.901C365.503 589.901 371.406 583.998 371.406 576.715C371.406 569.433 365.503 563.53 358.221 563.53C350.939 563.53 345.035 569.433 345.035 576.715C345.035 583.998 350.939 589.901 358.221 589.901ZM358.221 584.627C362.59 584.627 366.132 581.085 366.132 576.715C366.132 572.346 362.59 568.804 358.221 568.804C353.851 568.804 350.309 572.346 350.309 576.715C350.309 581.085 353.851 584.627 358.221 584.627Z" fill="#BB60A8"/>
</g>
</svg>
