<svg width="143" height="196" viewBox="0 0 143 196" fill="none" xmlns="http://www.w3.org/2000/svg">
<path d="M121.999 1C-41.501 1 -33.1965 182 113.5 182" stroke="#BB60A8" stroke-width="2" stroke-dasharray="5 5"/>
<path fill-rule="evenodd" clip-rule="evenodd" d="M129.186 195.371C136.468 195.371 142.371 189.468 142.371 182.186C142.371 174.903 136.468 169 129.186 169C121.903 169 116 174.903 116 182.186C116 189.468 121.903 195.371 129.186 195.371ZM129.186 190.097C133.555 190.097 137.097 186.555 137.097 182.186C137.097 177.816 133.555 174.274 129.186 174.274C124.816 174.274 121.274 177.816 121.274 182.186C121.274 186.555 124.816 190.097 129.186 190.097Z" fill="#BB60A8"/>
<path fill-rule="evenodd" clip-rule="evenodd" d="M129.186 195.371C136.468 195.371 142.371 189.468 142.371 182.186C142.371 174.903 136.468 169 129.186 169C121.903 169 116 174.903 116 182.186C116 189.468 121.903 195.371 129.186 195.371ZM129.186 190.097C133.555 190.097 137.097 186.555 137.097 182.186C137.097 177.816 133.555 174.274 129.186 174.274C124.816 174.274 121.274 177.816 121.274 182.186C121.274 186.555 124.816 190.097 129.186 190.097Z" fill="#BB60A8"/>
<path fill-rule="evenodd" clip-rule="evenodd" d="M129.186 195.371C136.468 195.371 142.371 189.468 142.371 182.186C142.371 174.903 136.468 169 129.186 169C121.903 169 116 174.903 116 182.186C116 189.468 121.903 195.371 129.186 195.371ZM129.186 190.097C133.555 190.097 137.097 186.555 137.097 182.186C137.097 177.816 133.555 174.274 129.186 174.274C124.816 174.274 121.274 177.816 121.274 182.186C121.274 186.555 124.816 190.097 129.186 190.097Z" fill="#BB60A8"/>
</svg>
