<svg width="194" height="97" viewBox="0 0 194 97" fill="none" xmlns="http://www.w3.org/2000/svg">
<g filter="url(#filter0_d_2007_137)">
<path d="M15.9453 20.6709C15.9453 15.148 20.4225 10.6709 25.9453 10.6709H168.129C173.652 10.6709 178.129 15.1481 178.129 20.6709V66.5992C178.129 72.122 173.652 76.5992 168.129 76.5992H25.9453C20.4225 76.5992 15.9453 72.122 15.9453 66.5992V20.6709Z" fill="#BB60A8"/>
</g>
<path d="M149.268 36.5889L148.593 46.9897H146.546L145.871 36.5889H149.268ZM145.913 50.0488C145.913 49.1205 146.652 48.361 147.559 48.361C148.487 48.361 149.247 49.1205 149.247 50.0488C149.247 50.9771 148.487 51.7155 147.559 51.7155C146.652 51.7155 145.913 50.9771 145.913 50.0488Z" fill="white"/>
<path d="M135.693 55.5548H132.887V41.1666H135.608V42.4325C136.072 41.6308 137.233 40.9346 138.794 40.9346C141.832 40.9346 143.583 43.2552 143.583 46.3354C143.583 49.4789 141.621 51.7996 138.688 51.7996C137.254 51.7996 136.199 51.2299 135.693 50.5337V55.5548ZM140.819 46.3565C140.819 44.5211 139.68 43.4451 138.245 43.4451C136.811 43.4451 135.65 44.5211 135.65 46.3565C135.65 48.192 136.811 49.289 138.245 49.289C139.68 49.289 140.819 48.2131 140.819 46.3565Z" fill="white"/>
<path d="M129.884 51.5462H127.078V36.272H129.884V51.5462Z" fill="white"/>
<path d="M117.46 45.175H122.101C122.059 44.1412 121.384 43.1286 119.78 43.1286C118.325 43.1286 117.523 44.2256 117.46 45.175ZM122.375 47.8754L124.717 48.5716C124.19 50.3649 122.544 51.8628 119.991 51.8628C117.143 51.8628 114.633 49.8163 114.633 46.3142C114.633 43.002 117.08 40.8501 119.738 40.8501C122.945 40.8501 124.865 42.8965 124.865 46.2298C124.865 46.6307 124.823 47.0526 124.823 47.0948H117.397C117.46 48.4661 118.62 49.4577 120.013 49.4577C121.321 49.4577 122.038 48.8037 122.375 47.8754Z" fill="white"/>
<path d="M105.904 45.4492V51.5462H103.098V36.272H105.904V42.0315C106.579 41.2298 107.718 40.8922 108.709 40.8922C111.347 40.8922 112.57 42.7277 112.57 45.0062V51.5462H109.764V45.4914C109.764 44.331 109.195 43.4239 107.844 43.4239C106.663 43.4239 105.967 44.31 105.904 45.4492Z" fill="white"/>
<path d="M88.3684 45.5756V51.5461H85.5625V41.1664H88.284V42.4533C88.9169 41.3773 90.1617 40.8921 91.2798 40.8921C93.8536 40.8921 95.0351 42.7275 95.0351 45.006V51.5461H92.2292V45.4912C92.2292 44.3309 91.6595 43.4237 90.3093 43.4237C89.0857 43.4237 88.3684 44.3731 88.3684 45.5756Z" fill="white"/>
<path d="M73.5586 48.7193C73.5586 46.8628 74.9299 45.829 76.6599 45.5758L79.2126 45.1961C79.8033 45.1117 79.9932 44.8163 79.9932 44.4577C79.9932 43.7193 79.4236 43.1075 78.2421 43.1075C77.0185 43.1075 76.3434 43.8881 76.259 44.7952L73.7696 44.2678C73.9383 42.6433 75.4362 40.8501 78.221 40.8501C81.5122 40.8501 82.7358 42.7066 82.7358 44.7952V49.9007C82.7358 50.4493 82.7991 51.1877 82.8624 51.5463H80.2886C80.2253 51.272 80.1831 50.7024 80.1831 50.3016C79.6556 51.1244 78.6641 51.8417 77.124 51.8417C74.9088 51.8417 73.5586 50.3438 73.5586 48.7193ZM77.7147 49.7531C78.8961 49.7531 79.9932 49.1834 79.9932 47.348V46.8839L77.6514 47.2425C76.9341 47.348 76.3645 47.7488 76.3645 48.5505C76.3645 49.1623 76.8075 49.7531 77.7147 49.7531Z" fill="white"/>
<path d="M67.2946 43.445C65.86 43.445 64.6575 44.4788 64.6575 46.3564C64.6575 48.2341 65.8811 49.2889 67.3157 49.2889C68.7503 49.2889 69.4676 48.3396 69.6997 47.5379L72.168 48.3607C71.7039 50.0906 70.0794 51.8628 67.3157 51.8628C64.2566 51.8628 61.8516 49.5421 61.8516 46.3564C61.8516 43.1497 64.2144 40.8501 67.2313 40.8501C70.0583 40.8501 71.6617 42.6012 72.1047 44.3522L69.5942 45.1961C69.341 44.3311 68.687 43.445 67.2946 43.445Z" fill="white"/>
<path d="M54.2192 51.5467H51.2656V36.5889H54.2192V51.5467Z" fill="white"/>
<defs>
<filter id="filter0_d_2007_137" x="0.945312" y="0.670898" width="192.184" height="95.9282" filterUnits="userSpaceOnUse" color-interpolation-filters="sRGB">
<feFlood flood-opacity="0" result="BackgroundImageFix"/>
<feColorMatrix in="SourceAlpha" type="matrix" values="0 0 0 0 0 0 0 0 0 0 0 0 0 0 0 0 0 0 127 0" result="hardAlpha"/>
<feOffset dy="5"/>
<feGaussianBlur stdDeviation="7.5"/>
<feColorMatrix type="matrix" values="0 0 0 0 0.164706 0 0 0 0 0.25098 0 0 0 0 0.34902 0 0 0 0.2 0"/>
<feBlend mode="normal" in2="BackgroundImageFix" result="effect1_dropShadow_2007_137"/>
<feBlend mode="normal" in="SourceGraphic" in2="effect1_dropShadow_2007_137" result="shape"/>
</filter>
</defs>
</svg>
