<svg width="211" height="97" viewBox="0 0 211 97" fill="none" xmlns="http://www.w3.org/2000/svg">
<g filter="url(#filter0_d_2007_510)">
<path d="M15.3008 20.6343C15.3008 15.1114 19.7779 10.6343 25.3008 10.6343H185.944C191.467 10.6343 195.944 15.1114 195.944 20.6343V66.5626C195.944 72.0854 191.467 76.5626 185.944 76.5626H25.3008C19.7779 76.5626 15.3008 72.0854 15.3008 66.5626V20.6343Z" fill="#BB60A8"/>
</g>
<path d="M173.432 35.2339L172.757 45.6347H170.71L170.035 35.2339H173.432ZM170.077 48.6938C170.077 47.7655 170.816 47.006 171.723 47.006C172.651 47.006 173.411 47.7655 173.411 48.6938C173.411 49.6221 172.651 50.3605 171.723 50.3605C170.816 50.3605 170.077 49.6221 170.077 48.6938Z" fill="white"/>
<path d="M160.104 43.8205H164.746C164.704 42.7867 164.028 41.7741 162.425 41.7741C160.969 41.7741 160.168 42.8711 160.104 43.8205ZM165.02 46.5209L167.362 47.2171C166.834 49.0104 165.189 50.5083 162.636 50.5083C159.788 50.5083 157.277 48.4619 157.277 44.9597C157.277 41.6475 159.725 39.4956 162.383 39.4956C165.59 39.4956 167.509 41.542 167.509 44.8754C167.509 45.2762 167.467 45.6981 167.467 45.7403H160.041C160.104 47.1116 161.265 48.1032 162.657 48.1032C163.965 48.1032 164.682 47.4492 165.02 46.5209Z" fill="white"/>
<path d="M153.694 36.71V39.8112H155.782V42.3007H153.694V46.6467C153.694 47.5539 154.116 47.8492 154.917 47.8492C155.255 47.8492 155.635 47.807 155.782 47.7648V50.0855C155.529 50.191 155.023 50.3387 154.2 50.3387C152.175 50.3387 150.909 49.1361 150.909 47.1319V42.3007H149.031V39.8112H149.559C150.656 39.8112 151.162 39.0939 151.162 38.1657V36.71H153.694Z" fill="white"/>
<path d="M144.668 50.1913C144.626 49.9803 144.584 49.4951 144.584 49.0731C144.014 50.0436 142.812 50.4655 141.715 50.4655C139.204 50.4655 137.77 48.6301 137.77 46.3727V39.8115H140.575V45.8031C140.575 46.9634 141.166 47.8917 142.474 47.8917C143.719 47.8917 144.436 47.0478 144.436 45.8453V39.8115H147.242V48.3136C147.242 49.1153 147.305 49.8326 147.348 50.1913H144.668Z" fill="white"/>
<path d="M127.714 50.1913H124.992V34.917H127.756V40.9508C128.22 40.2124 129.359 39.5372 130.899 39.5372C133.937 39.5372 135.688 41.879 135.688 44.9592C135.688 48.1027 133.747 50.4444 130.794 50.4444C129.359 50.4444 128.262 49.8115 127.714 48.9254V50.1913ZM132.882 44.9803C132.882 43.0816 131.743 42.0478 130.309 42.0478C128.895 42.0478 127.714 43.0816 127.714 44.9803C127.714 46.8579 128.895 47.9339 130.309 47.9339C131.743 47.9339 132.882 46.879 132.882 44.9803Z" fill="white"/>
<path d="M121.991 50.1915H119.185V39.8117H121.991V50.1915ZM118.848 36.4151C118.848 35.4447 119.628 34.6641 120.578 34.6641C121.548 34.6641 122.308 35.4447 122.308 36.4151C122.308 37.3434 121.548 38.124 120.578 38.124C119.628 38.124 118.848 37.3434 118.848 36.4151Z" fill="white"/>
<path d="M117.212 39.7692V42.5963C116.895 42.533 116.621 42.5119 116.368 42.5119C114.933 42.5119 113.689 43.2081 113.689 45.4444V50.1912H110.883V39.8114H113.604V41.3515C114.237 39.9802 115.672 39.7271 116.558 39.7271C116.79 39.7271 117.001 39.7481 117.212 39.7692Z" fill="white"/>
<path d="M106.557 36.71V39.8112H108.646V42.3007H106.557V46.6467C106.557 47.5539 106.979 47.8492 107.781 47.8492C108.118 47.8492 108.498 47.807 108.646 47.7648V50.0855C108.392 50.191 107.886 50.3387 107.063 50.3387C105.038 50.3387 103.772 49.1361 103.772 47.1319V42.3007H101.895V39.8112H102.422C103.519 39.8112 104.025 39.0939 104.025 38.1657V36.71H106.557Z" fill="white"/>
<path d="M93.5793 44.2207V50.1911H90.7734V39.8114H93.495V41.0983C94.1279 40.0223 95.3726 39.5371 96.4907 39.5371C99.0646 39.5371 100.246 41.3726 100.246 43.651V50.1911H97.4401V44.1363C97.4401 42.9759 96.8705 42.0688 95.5203 42.0688C94.2966 42.0688 93.5793 43.0181 93.5793 44.2207Z" fill="white"/>
<path d="M83.111 47.9555C84.4823 47.9555 85.7481 46.964 85.7481 45.0019C85.7481 43.0399 84.4823 42.0483 83.111 42.0483C81.7397 42.0483 80.4739 43.0399 80.4739 45.0019C80.4739 46.9429 81.7397 47.9555 83.111 47.9555ZM83.111 39.4956C86.2123 39.4956 88.5541 41.7952 88.5541 45.0019C88.5541 48.1876 86.2123 50.5083 83.111 50.5083C80.0097 50.5083 77.668 48.1876 77.668 45.0019C77.668 41.7952 80.0097 39.4956 83.111 39.4956Z" fill="white"/>
<path d="M71.6149 42.0905C70.1803 42.0905 68.9778 43.1243 68.9778 45.0019C68.9778 46.8796 70.2014 47.9344 71.636 47.9344C73.0706 47.9344 73.7879 46.9851 74.02 46.1834L76.4883 47.0062C76.0242 48.7361 74.3997 50.5083 71.636 50.5083C68.5769 50.5083 66.1719 48.1876 66.1719 45.0019C66.1719 41.7952 68.5347 39.4956 71.5516 39.4956C74.3786 39.4956 75.982 41.2467 76.425 42.9977L73.9145 43.8416C73.6613 42.9766 73.0073 42.0905 71.6149 42.0905Z" fill="white"/>
<path d="M58.7395 50.1913H55.9336V34.917H58.7395V50.1913Z" fill="white"/>
<path d="M52.9309 50.1913H50.125V34.917H52.9309V50.1913Z" fill="white"/>
<path d="M44.375 36.626C44.375 35.8032 45.0712 35.0859 46.0628 35.0859C47.1809 35.0859 47.8982 36.0142 47.8982 37.1324C47.8982 39.9594 45.9573 40.9931 44.6282 41.1197V39.8328C45.4299 39.7062 46.3159 39.01 46.3581 38.0395C46.2526 38.1028 46.105 38.145 45.9151 38.145C44.9657 38.145 44.375 37.5121 44.375 36.626Z" fill="white"/>
<path d="M41.9575 50.1917H39.0039V35.2339H41.9575V50.1917Z" fill="white"/>
<defs>
<filter id="filter0_d_2007_510" x="0.300781" y="0.634277" width="210.645" height="95.9282" filterUnits="userSpaceOnUse" color-interpolation-filters="sRGB">
<feFlood flood-opacity="0" result="BackgroundImageFix"/>
<feColorMatrix in="SourceAlpha" type="matrix" values="0 0 0 0 0 0 0 0 0 0 0 0 0 0 0 0 0 0 127 0" result="hardAlpha"/>
<feOffset dy="5"/>
<feGaussianBlur stdDeviation="7.5"/>
<feColorMatrix type="matrix" values="0 0 0 0 0.164706 0 0 0 0 0.25098 0 0 0 0 0.34902 0 0 0 0.2 0"/>
<feBlend mode="normal" in2="BackgroundImageFix" result="effect1_dropShadow_2007_510"/>
<feBlend mode="normal" in="SourceGraphic" in2="effect1_dropShadow_2007_510" result="shape"/>
</filter>
</defs>
</svg>
