<svg width="396" height="121" viewBox="0 0 396 121" fill="none" xmlns="http://www.w3.org/2000/svg">
<g filter="url(#filter0_d_2007_108)">
<path d="M15.0234 20.7451C15.0234 15.2223 19.5006 10.7451 25.0234 10.7451H370.266C375.789 10.7451 380.266 15.2223 380.266 20.7451V90.4076C380.266 95.9305 375.789 100.408 370.266 100.408H25.0234C19.5006 100.408 15.0234 95.9305 15.0234 90.4076V20.7451Z" fill="white"/>
</g>
<path d="M353.741 63.0674V66.1687H355.829V68.6581H353.741V73.0041C353.741 73.9113 354.163 74.2066 354.964 74.2066C355.302 74.2066 355.681 74.1644 355.829 74.1222V76.4429C355.576 76.5484 355.07 76.6961 354.247 76.6961C352.222 76.6961 350.956 75.4936 350.956 73.4893V68.6581H349.078V66.1687H349.606C350.703 66.1687 351.209 65.4514 351.209 64.5231V63.0674H353.741Z" fill="#2A4059"/>
<path d="M343.341 68.4475C341.907 68.4475 340.704 69.4812 340.704 71.3589C340.704 73.2365 341.928 74.2914 343.363 74.2914C344.797 74.2914 345.514 73.342 345.747 72.5403L348.215 73.3631C347.751 75.0931 346.126 76.8652 343.363 76.8652C340.303 76.8652 337.898 74.5445 337.898 71.3589C337.898 68.1521 340.261 65.8525 343.278 65.8525C346.105 65.8525 347.709 67.6036 348.152 69.3547L345.641 70.1985C345.388 69.3336 344.734 68.4475 343.341 68.4475Z" fill="#2A4059"/>
<path d="M329.061 70.1774H333.703C333.661 69.1437 332.985 68.131 331.382 68.131C329.926 68.131 329.125 69.2281 329.061 70.1774ZM333.977 72.8779L336.319 73.5741C335.791 75.3673 334.146 76.8652 331.593 76.8652C328.745 76.8652 326.234 74.8188 326.234 71.3167C326.234 68.0044 328.682 65.8525 331.34 65.8525C334.547 65.8525 336.466 67.899 336.466 71.2323C336.466 71.6331 336.424 72.0551 336.424 72.0973H328.998C329.061 73.4686 330.222 74.4601 331.614 74.4601C332.922 74.4601 333.639 73.8061 333.977 72.8779Z" fill="#2A4059"/>
<path d="M321.209 77.1814V66.1688H324.015V77.4557C324.015 79.4599 322.77 80.8734 320.766 80.8734C319.943 80.8734 319.331 80.7047 319.184 80.6414V78.2996C319.373 78.3418 319.648 78.4051 320.049 78.4051C320.892 78.4051 321.209 77.9409 321.209 77.1814ZM320.871 62.7511C320.871 61.7806 321.652 61 322.601 61C323.572 61 324.331 61.7806 324.331 62.7511C324.331 63.7004 323.572 64.4599 322.601 64.4599C321.652 64.4599 320.871 63.7004 320.871 62.7511Z" fill="#2A4059"/>
<path d="M313.548 74.3125C314.92 74.3125 316.186 73.3209 316.186 71.3589C316.186 69.3968 314.92 68.4053 313.548 68.4053C312.177 68.4053 310.911 69.3968 310.911 71.3589C310.911 73.2998 312.177 74.3125 313.548 74.3125ZM313.548 65.8525C316.65 65.8525 318.992 68.1521 318.992 71.3589C318.992 74.5445 316.65 76.8652 313.548 76.8652C310.447 76.8652 308.105 74.5445 308.105 71.3589C308.105 68.1521 310.447 65.8525 313.548 65.8525Z" fill="#2A4059"/>
<path d="M307.017 66.1267V68.9537C306.7 68.8904 306.426 68.8693 306.173 68.8693C304.738 68.8693 303.493 69.5655 303.493 71.8018V76.5486H300.688V66.1689H303.409V67.7089C304.042 66.3376 305.477 66.0845 306.363 66.0845C306.595 66.0845 306.806 66.1056 307.017 66.1267Z" fill="#2A4059"/>
<path d="M290.575 80.5573H287.77V66.1691H290.491V67.4349C290.955 66.6332 292.116 65.937 293.677 65.937C296.715 65.937 298.466 68.2577 298.466 71.3379C298.466 74.4813 296.504 76.802 293.571 76.802C292.137 76.802 291.082 76.2324 290.575 75.5362V80.5573ZM295.702 71.359C295.702 69.5235 294.563 68.4476 293.128 68.4476C291.694 68.4476 290.533 69.5235 290.533 71.359C290.533 73.1944 291.694 74.2914 293.128 74.2914C294.563 74.2914 295.702 73.2155 295.702 71.359Z" fill="#2A4059"/>
<path d="M274.339 80.641H271.364L273.812 75.2402L269.402 66.1685H272.546L275.31 72.2444L277.862 66.1685H280.858L274.339 80.641Z" fill="#2A4059"/>
<path d="M255.06 76.5482H252.254V66.1684H254.933V67.4342C255.503 66.4216 256.832 65.873 257.971 65.873C259.385 65.873 260.524 66.4849 261.051 67.603C261.874 66.3372 262.971 65.873 264.343 65.873C266.262 65.873 268.098 67.0334 268.098 69.8182V76.5482H265.376V70.3878C265.376 69.2697 264.828 68.4258 263.541 68.4258C262.338 68.4258 261.621 69.3541 261.621 70.4722V76.5482H258.836V70.3878C258.836 69.2697 258.267 68.4258 257.001 68.4258C255.777 68.4258 255.06 69.333 255.06 70.4722V76.5482Z" fill="#2A4059"/>
<path d="M237.525 70.4516V76.5487H234.719V61.2744H237.525V67.0339C238.2 66.2322 239.339 65.8947 240.331 65.8947C242.968 65.8947 244.191 67.7301 244.191 70.0086V76.5487H241.385V70.4938C241.385 69.3335 240.816 68.4263 239.466 68.4263C238.284 68.4263 237.588 69.3124 237.525 70.4516Z" fill="#2A4059"/>
<path d="M230.764 63.0674V66.1687H232.853V68.6581H230.764V73.0041C230.764 73.9113 231.186 74.2066 231.988 74.2066C232.325 74.2066 232.705 74.1644 232.853 74.1222V76.4429C232.599 76.5484 232.093 76.6961 231.27 76.6961C229.245 76.6961 227.979 75.4936 227.979 73.4893V68.6581H226.102V66.1687H226.629C227.726 66.1687 228.232 65.4514 228.232 64.5231V63.0674H230.764Z" fill="#2A4059"/>
<path d="M224.3 76.5489H221.494V66.1692H224.3V76.5489ZM221.156 62.7725C221.156 61.8021 221.937 61.0215 222.886 61.0215C223.857 61.0215 224.616 61.8021 224.616 62.7725C224.616 63.7008 223.857 64.4814 222.886 64.4814C221.937 64.4814 221.156 63.7008 221.156 62.7725Z" fill="#2A4059"/>
<path d="M209.846 66.1685H212.799L215.036 72.8562L216.955 66.1685H219.74L216.491 76.5482H213.685L211.259 69.4596L208.875 76.5482H206.027L202.715 66.1685H205.668L207.588 72.8351L209.846 66.1685Z" fill="#2A4059"/>
<path d="M188.634 80.5573H185.828V66.1691H188.55V67.4349C189.014 66.6332 190.174 65.937 191.735 65.937C194.773 65.937 196.524 68.2577 196.524 71.3379C196.524 74.4813 194.562 76.802 191.63 76.802C190.195 76.802 189.14 76.2324 188.634 75.5362V80.5573ZM193.761 71.359C193.761 69.5235 192.621 68.4476 191.187 68.4476C189.752 68.4476 188.592 69.5235 188.592 71.359C188.592 73.1944 189.752 74.2914 191.187 74.2914C192.621 74.2914 193.761 73.2155 193.761 71.359Z" fill="#2A4059"/>
<path d="M182.825 76.5487H180.02V61.2744H182.825V76.5487Z" fill="#2A4059"/>
<path d="M170.401 70.1774H175.043C175 69.1437 174.325 68.131 172.722 68.131C171.266 68.131 170.465 69.2281 170.401 70.1774ZM175.317 72.8779L177.659 73.5741C177.131 75.3673 175.486 76.8652 172.933 76.8652C170.085 76.8652 167.574 74.8188 167.574 71.3167C167.574 68.0044 170.021 65.8525 172.68 65.8525C175.886 65.8525 177.806 67.899 177.806 71.2323C177.806 71.6331 177.764 72.0551 177.764 72.0973H170.338C170.401 73.4686 171.562 74.4601 172.954 74.4601C174.262 74.4601 174.979 73.8061 175.317 72.8779Z" fill="#2A4059"/>
<path d="M158.845 70.4516V76.5487H156.039V61.2744H158.845V67.0339C159.52 66.2322 160.659 65.8947 161.651 65.8947C164.288 65.8947 165.512 67.7301 165.512 70.0086V76.5487H162.706V70.4938C162.706 69.3335 162.136 68.4263 160.786 68.4263C159.604 68.4263 158.908 69.3124 158.845 70.4516Z" fill="#2A4059"/>
<path d="M148.915 66.1267V68.9537C148.599 68.8904 148.324 68.8693 148.071 68.8693C146.637 68.8693 145.392 69.5655 145.392 71.8018V76.5486H142.586V66.1689H145.307V67.7089C145.94 66.3376 147.375 66.0845 148.261 66.0845C148.493 66.0845 148.704 66.1056 148.915 66.1267Z" fill="#2A4059"/>
<path d="M134.924 74.3125C136.295 74.3125 137.561 73.3209 137.561 71.3589C137.561 69.3968 136.295 68.4053 134.924 68.4053C133.552 68.4053 132.286 69.3968 132.286 71.3589C132.286 73.2998 133.552 74.3125 134.924 74.3125ZM134.924 65.8525C138.025 65.8525 140.367 68.1521 140.367 71.3589C140.367 74.5445 138.025 76.8652 134.924 76.8652C131.822 76.8652 129.48 74.5445 129.48 71.3589C129.48 68.1521 131.822 65.8525 134.924 65.8525Z" fill="#2A4059"/>
<path d="M127.782 63.5953C127.149 63.5953 126.326 63.8696 126.326 65.0299V66.1692H128.668V68.5742H126.326V76.5489H123.499V68.5742H121.77V66.1692H123.499V64.9877C123.499 62.6459 124.976 61.127 127.276 61.127C127.867 61.127 128.436 61.2324 128.668 61.3379V63.7008C128.521 63.6586 128.246 63.5953 127.782 63.5953Z" fill="#2A4059"/>
<path d="M104.434 77.1178L106.965 76.4427C107.155 77.5819 108.062 78.4047 109.391 78.4047C111.164 78.4047 112.155 77.5186 112.155 75.5144V74.7549C111.733 75.43 110.763 76.084 109.265 76.084C106.501 76.084 104.434 73.9532 104.434 71.0418C104.434 68.2992 106.417 65.9785 109.265 65.9785C110.91 65.9785 111.86 66.6958 112.218 67.392V66.1684H114.919V75.43C114.919 78.2781 113.379 80.873 109.476 80.873C106.628 80.873 104.729 79.1009 104.434 77.1178ZM109.75 73.6789C111.185 73.6789 112.197 72.6452 112.197 71.0418C112.197 69.4384 111.1 68.4258 109.75 68.4258C108.358 68.4258 107.261 69.4384 107.261 71.0418C107.261 72.6663 108.294 73.6789 109.75 73.6789Z" fill="#2A4059"/>
<path d="M95.6575 70.5781V76.5485H92.8516V66.1688H95.5731V67.4557C96.206 66.3798 97.4507 65.8945 98.5689 65.8945C101.143 65.8945 102.324 67.73 102.324 70.0085V76.5485H99.5182V70.4937C99.5182 69.3334 98.9486 68.4262 97.5984 68.4262C96.3748 68.4262 95.6575 69.3755 95.6575 70.5781Z" fill="#2A4059"/>
<path d="M89.8505 76.5489H87.0446V66.1692H89.8505V76.5489ZM86.707 62.7725C86.707 61.8021 87.4876 61.0215 88.437 61.0215C89.4075 61.0215 90.1669 61.8021 90.1669 62.7725C90.1669 63.7008 89.4075 64.4814 88.437 64.4814C87.4876 64.4814 86.707 63.7008 86.707 62.7725Z" fill="#2A4059"/>
<path d="M85.3172 66.1689L81.1611 70.536L85.4016 76.5487H81.9628L79.2202 72.5824L78.0598 73.8061V76.5487H75.2539V61.2744H78.0598V70.0297L81.6463 66.1689H85.3172Z" fill="#2A4059"/>
<path d="M67.5954 74.3125C68.9667 74.3125 70.2325 73.3209 70.2325 71.3589C70.2325 69.3968 68.9667 68.4053 67.5954 68.4053C66.2241 68.4053 64.9583 69.3968 64.9583 71.3589C64.9583 73.2998 66.2241 74.3125 67.5954 74.3125ZM67.5954 65.8525C70.6967 65.8525 73.0384 68.1521 73.0384 71.3589C73.0384 74.5445 70.6967 76.8652 67.5954 76.8652C64.4941 76.8652 62.1523 74.5445 62.1523 71.3589C62.1523 68.1521 64.4941 65.8525 67.5954 65.8525Z" fill="#2A4059"/>
<path d="M55.2751 74.3125C56.6464 74.3125 57.9122 73.3209 57.9122 71.3589C57.9122 69.3968 56.6464 68.4053 55.2751 68.4053C53.9038 68.4053 52.6379 69.3968 52.6379 71.3589C52.6379 73.2998 53.9038 74.3125 55.2751 74.3125ZM55.2751 65.8525C58.3763 65.8525 60.7181 68.1521 60.7181 71.3589C60.7181 74.5445 58.3763 76.8652 55.2751 76.8652C52.1738 76.8652 49.832 74.5445 49.832 71.3589C49.832 68.1521 52.1738 65.8525 55.2751 65.8525Z" fill="#2A4059"/>
<path d="M48.5781 76.5481H39V61.5903H41.9114V73.7633H48.5781V76.5481Z" fill="#2A4059"/>
<rect x="38.7578" y="35.7979" width="68.5654" height="13.1857" rx="6.59283" fill="#BB60A8"/>
<rect x="327.523" y="35.7969" width="29.0085" height="13.1857" rx="6.59283" fill="#E1E5E9"/>
<defs>
<filter id="filter0_d_2007_108" x="0.0234375" y="0.745117" width="395.242" height="119.663" filterUnits="userSpaceOnUse" color-interpolation-filters="sRGB">
<feFlood flood-opacity="0" result="BackgroundImageFix"/>
<feColorMatrix in="SourceAlpha" type="matrix" values="0 0 0 0 0 0 0 0 0 0 0 0 0 0 0 0 0 0 127 0" result="hardAlpha"/>
<feOffset dy="5"/>
<feGaussianBlur stdDeviation="7.5"/>
<feColorMatrix type="matrix" values="0 0 0 0 0.164706 0 0 0 0 0.25098 0 0 0 0 0.34902 0 0 0 0.3 0"/>
<feBlend mode="normal" in2="BackgroundImageFix" result="effect1_dropShadow_2007_108"/>
<feBlend mode="normal" in="SourceGraphic" in2="effect1_dropShadow_2007_108" result="shape"/>
</filter>
</defs>
</svg>
