<svg width="158" height="96" viewBox="0 0 158 96" fill="none" xmlns="http://www.w3.org/2000/svg">
<g filter="url(#filter0_d_2007_149)">
<path d="M15 20C15 14.4772 19.4772 10 25 10H133C138.523 10 143 14.4772 143 20V66C143 71.5228 138.523 76 133 76H25C19.4772 76 15 71.5228 15 66V20Z" fill="#BB60A8"/>
</g>
<path d="M108.517 47.7216C109.889 47.7216 111.154 46.7301 111.154 44.7681C111.154 42.806 109.889 41.8145 108.517 41.8145C107.146 41.8145 105.88 42.806 105.88 44.7681C105.88 46.709 107.146 47.7216 108.517 47.7216ZM108.517 39.2617C111.619 39.2617 113.96 41.5613 113.96 44.7681C113.96 47.9537 111.619 50.2744 108.517 50.2744C105.416 50.2744 103.074 47.9537 103.074 44.7681C103.074 41.5613 105.416 39.2617 108.517 39.2617Z" fill="white"/>
<path d="M96.1969 47.7216C97.5683 47.7216 98.8341 46.7301 98.8341 44.7681C98.8341 42.806 97.5683 41.8145 96.1969 41.8145C94.8256 41.8145 93.5598 42.806 93.5598 44.7681C93.5598 46.709 94.8256 47.7216 96.1969 47.7216ZM96.1969 39.2617C99.2982 39.2617 101.64 41.5613 101.64 44.7681C101.64 47.9537 99.2982 50.2744 96.1969 50.2744C93.0957 50.2744 90.7539 47.9537 90.7539 44.7681C90.7539 41.5613 93.0957 39.2617 96.1969 39.2617Z" fill="white"/>
<path d="M87.1703 36.4761V39.5773H89.2589V42.0668H87.1703V46.4128C87.1703 47.32 87.5922 47.6153 88.3939 47.6153C88.7314 47.6153 89.1112 47.5731 89.2589 47.5309V49.8516C89.0057 49.9571 88.4994 50.1048 87.6766 50.1048C85.6513 50.1048 84.3855 48.9022 84.3855 46.898V42.0668H82.5078V39.5773H83.0352C84.1323 39.5773 84.6386 38.86 84.6386 37.9318V36.4761H87.1703Z" fill="white"/>
<path d="M68.8778 43.5866H73.5191C73.4769 42.5529 72.8018 41.5402 71.1985 41.5402C69.7428 41.5402 68.9411 42.6372 68.8778 43.5866ZM73.7934 46.287L76.1352 46.9832C75.6077 48.7765 73.9622 50.2744 71.4094 50.2744C68.5613 50.2744 66.0508 48.228 66.0508 44.7259C66.0508 41.4136 68.498 39.2617 71.1563 39.2617C74.363 39.2617 76.2829 41.3081 76.2829 44.6415C76.2829 45.0423 76.2407 45.4643 76.2407 45.5064H68.8145C68.8778 46.8778 70.0381 47.8693 71.4305 47.8693C72.7385 47.8693 73.4558 47.2153 73.7934 46.287Z" fill="white"/>
<path d="M63.6878 49.9578H60.8186V39.4726L56.5148 49.9578H54.0886L49.7848 39.557V49.9578H47V35H50.8397L55.3333 45.8017L59.7215 35H63.6878V49.9578Z" fill="white"/>
<defs>
<filter id="filter0_d_2007_149" x="0" y="0" width="158" height="96" filterUnits="userSpaceOnUse" color-interpolation-filters="sRGB">
<feFlood flood-opacity="0" result="BackgroundImageFix"/>
<feColorMatrix in="SourceAlpha" type="matrix" values="0 0 0 0 0 0 0 0 0 0 0 0 0 0 0 0 0 0 127 0" result="hardAlpha"/>
<feOffset dy="5"/>
<feGaussianBlur stdDeviation="7.5"/>
<feColorMatrix type="matrix" values="0 0 0 0 0.164706 0 0 0 0 0.25098 0 0 0 0 0.34902 0 0 0 0.2 0"/>
<feBlend mode="normal" in2="BackgroundImageFix" result="effect1_dropShadow_2007_149"/>
<feBlend mode="normal" in="SourceGraphic" in2="effect1_dropShadow_2007_149" result="shape"/>
</filter>
</defs>
</svg>
