<svg width="247" height="20" viewBox="0 0 247 20" fill="none" xmlns="http://www.w3.org/2000/svg">
<path d="M238.882 9.41425H243.523C243.481 8.3805 242.806 7.36784 241.202 7.36784C239.747 7.36784 238.945 8.46488 238.882 9.41425ZM243.797 12.1147L246.139 12.8109C245.612 14.6041 243.966 16.102 241.413 16.102C238.565 16.102 236.055 14.0556 236.055 10.5535C236.055 7.24125 238.502 5.08936 241.16 5.08936C244.367 5.08936 246.287 7.13577 246.287 10.4691C246.287 10.87 246.245 11.2919 246.245 11.3341H238.818C238.882 12.7054 240.042 13.697 241.434 13.697C242.742 13.697 243.46 13.0429 243.797 12.1147Z" fill="white"/>
<path d="M229.998 7.68429C228.563 7.68429 227.361 8.71805 227.361 10.5957C227.361 12.4733 228.584 13.5282 230.019 13.5282C231.453 13.5282 232.171 12.5788 232.403 11.7771L234.871 12.5999C234.407 14.3299 232.783 16.102 230.019 16.102C226.96 16.102 224.555 13.7813 224.555 10.5957C224.555 7.38893 226.918 5.08936 229.934 5.08936C232.761 5.08936 234.365 6.84041 234.808 8.59147L232.297 9.43535C232.044 8.57037 231.39 7.68429 229.998 7.68429Z" fill="white"/>
<path d="M215.825 9.81441V15.7849H213.02V5.40512H215.741V6.69204C216.374 5.61609 217.619 5.13086 218.737 5.13086C221.311 5.13086 222.492 6.9663 222.492 9.24479V15.7849H219.686V9.73002C219.686 8.56968 219.117 7.66251 217.766 7.66251C216.543 7.66251 215.825 8.61187 215.825 9.81441Z" fill="white"/>
<path d="M201.012 12.9586C201.012 11.102 202.383 10.0683 204.113 9.8151L206.666 9.43535C207.256 9.35096 207.446 9.0556 207.446 8.69695C207.446 7.95856 206.877 7.34674 205.695 7.34674C204.472 7.34674 203.797 8.12733 203.712 9.0345L201.223 8.50708C201.391 6.88261 202.889 5.08936 205.674 5.08936C208.965 5.08936 210.189 6.9459 210.189 9.0345V14.14C210.189 14.6885 210.252 15.4269 210.316 15.7856H207.742C207.678 15.5113 207.636 14.9417 207.636 14.5408C207.109 15.3636 206.117 16.0809 204.577 16.0809C202.362 16.0809 201.012 14.583 201.012 12.9586ZM205.168 13.9923C206.349 13.9923 207.446 13.4227 207.446 11.5872V11.1231L205.105 11.4818C204.387 11.5872 203.818 11.9881 203.818 12.7898C203.818 13.4016 204.261 13.9923 205.168 13.9923Z" fill="white"/>
<path d="M198.643 15.7852H195.838V5.4055H198.643V15.7852ZM195.5 2.00887C195.5 1.0384 196.281 0.257812 197.23 0.257812C198.2 0.257812 198.96 1.0384 198.96 2.00887C198.96 2.93714 198.2 3.71773 197.23 3.71773C196.281 3.71773 195.5 2.93714 195.5 2.00887Z" fill="white"/>
<path d="M192.833 15.785H190.027V0.510742H192.833V15.785Z" fill="white"/>
<path d="M187.021 15.785H184.215V0.510742H187.021V15.785Z" fill="white"/>
<path d="M179.349 15.7855L178.104 12.3677H172.028L170.783 15.7855H167.703L173.442 0.827637H176.817L182.513 15.7855H179.349ZM175.066 4.05549L172.998 9.7095H177.133L175.066 4.05549Z" fill="white"/>
<path d="M154.263 9.68796V15.785H151.457V0.510742H154.263V6.27024C154.938 5.46855 156.077 5.131 157.069 5.131C159.706 5.131 160.93 6.96644 160.93 9.24492V15.785H158.124V9.73016C158.124 8.56982 157.554 7.66265 156.204 7.66265C155.022 7.66265 154.326 8.54872 154.263 9.68796Z" fill="white"/>
<path d="M147.502 2.30469V5.40596H149.591V7.89541H147.502V12.2414C147.502 13.1486 147.924 13.4439 148.726 13.4439C149.063 13.4439 149.443 13.4017 149.591 13.3595V15.6802C149.338 15.7857 148.831 15.9334 148.009 15.9334C145.983 15.9334 144.717 14.7309 144.717 12.7266V7.89541H142.84V5.40596H143.367C144.464 5.40596 144.971 4.68866 144.971 3.76038V2.30469H147.502Z" fill="white"/>
<path d="M141.036 15.785H138.23V0.510742H141.036V15.785Z" fill="white"/>
<path d="M126.227 12.9586C126.227 11.102 127.598 10.0683 129.328 9.8151L131.881 9.43535C132.471 9.35096 132.661 9.0556 132.661 8.69695C132.661 7.95856 132.092 7.34674 130.91 7.34674C129.686 7.34674 129.011 8.12733 128.927 9.0345L126.438 8.50708C126.606 6.88261 128.104 5.08936 130.889 5.08936C134.18 5.08936 135.404 6.9459 135.404 9.0345V14.14C135.404 14.6885 135.467 15.4269 135.53 15.7856H132.957C132.893 15.5113 132.851 14.9417 132.851 14.5408C132.324 15.3636 131.332 16.0809 129.792 16.0809C127.577 16.0809 126.227 14.583 126.227 12.9586ZM130.383 13.9923C131.564 13.9923 132.661 13.4227 132.661 11.5872V11.1231L130.319 11.4818C129.602 11.5872 129.032 11.9881 129.032 12.7898C129.032 13.4016 129.476 13.9923 130.383 13.9923Z" fill="white"/>
<path d="M117.241 9.41425H121.882C121.84 8.3805 121.165 7.36784 119.562 7.36784C118.106 7.36784 117.304 8.46488 117.241 9.41425ZM122.157 12.1147L124.498 12.8109C123.971 14.6041 122.325 16.102 119.773 16.102C116.925 16.102 114.414 14.0556 114.414 10.5535C114.414 7.24125 116.861 5.08936 119.52 5.08936C122.726 5.08936 124.646 7.13577 124.646 10.4691C124.646 10.87 124.604 11.2919 124.604 11.3341H117.178C117.241 12.7054 118.401 13.697 119.794 13.697C121.102 13.697 121.819 13.0429 122.157 12.1147Z" fill="white"/>
<path d="M112.05 15.7855H109.118V9.58292H102.599V15.7855H99.6875V0.827637H102.599V6.8403H109.118V0.827637H112.05V15.7855Z" fill="white"/>
<path d="M86.0461 19.8779H83.0714L85.5187 14.477L81.1094 5.40527H84.2528L87.0166 11.4812L89.5693 5.40527H92.5651L86.0461 19.8779Z" fill="white"/>
<path d="M80.0322 5.363V8.19C79.7158 8.12671 79.4415 8.10561 79.1884 8.10561C77.7538 8.10561 76.509 8.80182 76.509 11.0381V15.7849H73.7031V5.40519H76.4246V6.94527C77.0576 5.57397 78.4922 5.3208 79.3782 5.3208C79.6103 5.3208 79.8213 5.3419 80.0322 5.363Z" fill="white"/>
<path d="M61.6992 12.9586C61.6992 11.102 63.0705 10.0683 64.8005 9.8151L67.3532 9.43535C67.9439 9.35096 68.1338 9.0556 68.1338 8.69695C68.1338 7.95856 67.5642 7.34674 66.3828 7.34674C65.1591 7.34674 64.484 8.12733 64.3996 9.0345L61.9102 8.50708C62.079 6.88261 63.5769 5.08936 66.3617 5.08936C69.6528 5.08936 70.8764 6.9459 70.8764 9.0345V14.14C70.8764 14.6885 70.9397 15.4269 71.003 15.7856H68.4292C68.3659 15.5113 68.3237 14.9417 68.3237 14.5408C67.7963 15.3636 66.8047 16.0809 65.2646 16.0809C63.0494 16.0809 61.6992 14.583 61.6992 12.9586ZM65.8553 13.9923C67.0368 13.9923 68.1338 13.4227 68.1338 11.5872V11.1231L65.7921 11.4818C65.0748 11.5872 64.5051 11.9881 64.5051 12.7898C64.5051 13.4016 64.9482 13.9923 65.8553 13.9923Z" fill="white"/>
<path d="M57.7992 2.30469V5.40596H59.8878V7.89541H57.7992V12.2414C57.7992 13.1486 58.2211 13.4439 59.0228 13.4439C59.3604 13.4439 59.7401 13.4017 59.8878 13.3595V15.6802C59.6346 15.7857 59.1283 15.9334 58.3055 15.9334C56.2802 15.9334 55.0144 14.7309 55.0144 12.7266V7.89541H53.1367V5.40596H53.6641C54.7612 5.40596 55.2675 4.68866 55.2675 3.76038V2.30469H57.7992Z" fill="white"/>
<path d="M44.7215 9.41425H49.3629C49.3207 8.3805 48.6456 7.36784 47.0422 7.36784C45.5865 7.36784 44.7848 8.46488 44.7215 9.41425ZM49.6372 12.1147L51.9789 12.8109C51.4515 14.6041 49.8059 16.102 47.2532 16.102C44.4051 16.102 41.8945 14.0556 41.8945 10.5535C41.8945 7.24125 44.3418 5.08936 47 5.08936C50.2068 5.08936 52.1266 7.13577 52.1266 10.4691C52.1266 10.87 52.0844 11.2919 52.0844 11.3341H44.6582C44.7215 12.7054 45.8819 13.697 47.2743 13.697C48.5823 13.697 49.2996 13.0429 49.6372 12.1147Z" fill="white"/>
<path d="M33.1614 9.81441V15.7849H30.3555V5.40512H33.077V6.69204C33.7099 5.61609 34.9546 5.13086 36.0728 5.13086C38.6466 5.13086 39.828 6.9663 39.828 9.24479V15.7849H37.0221V9.73002C37.0221 8.56968 36.4525 7.66251 35.1023 7.66251C33.8787 7.66251 33.1614 8.61187 33.1614 9.81441Z" fill="white"/>
<path d="M18.3516 12.9586C18.3516 11.102 19.7229 10.0683 21.4528 9.8151L24.0056 9.43535C24.5963 9.35096 24.7862 9.0556 24.7862 8.69695C24.7862 7.95856 24.2165 7.34674 23.0351 7.34674C21.8115 7.34674 21.1364 8.12733 21.052 9.0345L18.5625 8.50708C18.7313 6.88261 20.2292 5.08936 23.014 5.08936C26.3052 5.08936 27.5288 6.9459 27.5288 9.0345V14.14C27.5288 14.6885 27.5921 15.4269 27.6554 15.7856H25.0815C25.0182 15.5113 24.976 14.9417 24.976 14.5408C24.4486 15.3636 23.4571 16.0809 21.917 16.0809C19.7018 16.0809 18.3516 14.583 18.3516 12.9586ZM22.5077 13.9923C23.6891 13.9923 24.7862 13.4227 24.7862 11.5872V11.1231L22.4444 11.4818C21.7271 11.5872 21.1575 11.9881 21.1575 12.7898C21.1575 13.4016 21.6005 13.9923 22.5077 13.9923Z" fill="white"/>
<path d="M16.0403 15.785H13.2344V0.510742H16.0403V15.785Z" fill="white"/>
<path d="M3.72937 7.64199H6.02895C7.48464 7.64199 8.37072 6.79811 8.37072 5.51118C8.37072 4.18207 7.48464 3.35928 6.02895 3.35928H3.72937V7.64199ZM6.3876 10.1525H3.70827V15.7855H0.796875V0.827637H6.3876C9.34118 0.827637 11.3032 2.78966 11.3032 5.49009C11.3032 8.21161 9.34118 10.1525 6.3876 10.1525Z" fill="white"/>
</svg>
