<svg width="186" height="25" viewBox="0 0 186 25" fill="none" xmlns="http://www.w3.org/2000/svg">
<path d="M174.412 14.1036H181.374C181.311 12.5529 180.298 11.0339 177.893 11.0339C175.71 11.0339 174.507 12.6795 174.412 14.1036ZM181.786 18.1542L185.298 19.1985C184.507 21.8884 182.039 24.1352 178.21 24.1352C173.938 24.1352 170.172 21.0656 170.172 15.8124C170.172 10.8441 173.843 7.61621 177.83 7.61621C182.64 7.61621 185.52 10.6858 185.52 15.6858C185.52 16.2871 185.457 16.92 185.457 16.9833H174.317C174.412 19.0403 176.153 20.5276 178.242 20.5276C180.204 20.5276 181.279 19.5466 181.786 18.1542Z" fill="white"/>
<path d="M164.787 3.43896V8.09087H167.92V11.825H164.787V18.344C164.787 19.7048 165.42 20.1478 166.622 20.1478C167.128 20.1478 167.698 20.0845 167.92 20.0213V23.5023C167.54 23.6605 166.78 23.882 165.546 23.882C162.508 23.882 160.609 22.0782 160.609 19.0719V11.825H157.793V8.09087H158.584C160.23 8.09087 160.989 7.01492 160.989 5.62251V3.43896H164.787Z" fill="white"/>
<path d="M155.094 23.6603H150.885V8.09066H155.094V23.6603ZM150.379 2.99573C150.379 1.54003 151.55 0.369141 152.974 0.369141C154.43 0.369141 155.569 1.54003 155.569 2.99573C155.569 4.38813 154.43 5.55902 152.974 5.55902C151.55 5.55902 150.379 4.38813 150.379 2.99573Z" fill="white"/>
<path d="M136.615 14.7045V23.6602H132.406V8.09059H136.489V10.021C137.438 8.40705 139.305 7.6792 140.982 7.6792C144.843 7.6792 146.615 10.4324 146.615 13.8501V23.6602H142.406V14.5779C142.406 12.8374 141.552 11.4767 139.527 11.4767C137.691 11.4767 136.615 12.9007 136.615 14.7045Z" fill="white"/>
<path d="M119.319 24.1667C114.54 24.1667 110.711 21.2236 110.711 15.7173V1.22363H115.078V15.4009C115.078 18.3439 116.724 19.8945 119.319 19.8945C121.977 19.8945 123.591 18.3439 123.591 15.4009V1.22363H127.958V15.7173C127.958 21.2236 124.129 24.1667 119.319 24.1667Z" fill="white"/>
<path d="M86.8867 19.3251L90.4943 18.5339C90.5893 19.7681 91.507 20.9074 93.3424 20.9074C94.7348 20.9074 95.3994 20.1795 95.3994 19.3567C95.3994 18.6605 94.9247 18.0909 93.7222 17.8377L91.6652 17.3631C88.6589 16.6985 87.2981 14.8947 87.2981 12.7112C87.2981 9.92634 89.7665 7.61621 93.1209 7.61621C97.5513 7.61621 99.0386 10.4327 99.2285 12.1099L95.7158 12.901C95.5893 11.9833 94.9247 10.8124 93.1525 10.8124C92.0449 10.8124 91.1589 11.477 91.1589 12.363C91.1589 13.1225 91.7285 13.5972 92.5829 13.7555L94.7981 14.2301C97.8677 14.863 99.4184 16.7301 99.4184 19.0086C99.4184 21.5403 97.4563 24.1352 93.3741 24.1352C88.6905 24.1352 87.0766 21.0972 86.8867 19.3251Z" fill="white"/>
<path d="M70.2031 19.42C70.2031 16.6352 72.2601 15.0846 74.855 14.7048L78.6841 14.1352C79.5702 14.0086 79.855 13.5656 79.855 13.0276C79.855 11.92 79.0006 11.0023 77.2284 11.0023C75.393 11.0023 74.3803 12.1732 74.2538 13.5339L70.5196 12.7428C70.7727 10.3061 73.0196 7.61621 77.1968 7.61621C82.1335 7.61621 83.969 10.401 83.969 13.5339V21.1922C83.969 22.015 84.0639 23.1225 84.1588 23.6605H80.2981C80.2031 23.2491 80.1398 22.3947 80.1398 21.7934C79.3487 23.0276 77.8614 24.1036 75.5512 24.1036C72.2284 24.1036 70.2031 21.8567 70.2031 19.42ZM76.4373 20.9706C78.2095 20.9706 79.855 20.1162 79.855 17.3631V16.6668L76.3424 17.2048C75.2664 17.3631 74.412 17.9643 74.412 19.1669C74.412 20.0846 75.0765 20.9706 76.4373 20.9706Z" fill="white"/>
<path d="M68.1031 8.02765V12.2682C67.6284 12.1732 67.217 12.1416 66.8372 12.1416C64.6853 12.1416 62.8182 13.1859 62.8182 16.5403V23.6606H58.6094V8.09094H62.6917V10.4011C63.641 8.3441 65.7929 7.96436 67.122 7.96436C67.4701 7.96436 67.7866 7.996 68.1031 8.02765Z" fill="white"/>
<path d="M43.3127 23.6604H39.2305V0.749023H43.376V9.79966C44.0722 8.69207 45.7811 7.67941 48.0912 7.67941C52.6482 7.67941 55.2748 11.1921 55.2748 15.8123C55.2748 20.5275 52.3634 24.0402 47.933 24.0402C45.7811 24.0402 44.1355 23.0908 43.3127 21.7617V23.6604ZM51.0659 15.844C51.0659 12.9959 49.3571 11.4452 47.2052 11.4452C45.0849 11.4452 43.3127 12.9959 43.3127 15.844C43.3127 18.6604 45.0849 20.2744 47.2052 20.2744C49.3571 20.2744 51.0659 18.6921 51.0659 15.844Z" fill="white"/>
<path d="M24.8069 14.1036H31.7689C31.7057 12.5529 30.693 11.0339 28.2879 11.0339C26.1044 11.0339 24.9019 12.6795 24.8069 14.1036ZM32.1803 18.1542L35.693 19.1985C34.9019 21.8884 32.4335 24.1352 28.6044 24.1352C24.3322 24.1352 20.5664 21.0656 20.5664 15.8124C20.5664 10.8441 24.2373 7.61621 28.2246 7.61621C33.0348 7.61621 35.9145 10.6858 35.9145 15.6858C35.9145 16.2871 35.8512 16.92 35.8512 16.9833H24.712C24.8069 19.0403 26.5474 20.5276 28.636 20.5276C30.5981 20.5276 31.674 19.5466 32.1803 18.1542Z" fill="white"/>
<path d="M18.3887 23.6604H0.730469V19.4198L12.4077 5.36921H1.14186V1.22363H18.2305V5.30591L6.36338 19.4831H18.3887V23.6604Z" fill="white"/>
</svg>
