<svg width="1454" height="2130" viewBox="0 0 1454 2130" fill="none" xmlns="http://www.w3.org/2000/svg">
<mask id="mask0_2045_515" style="mask-type:alpha" maskUnits="userSpaceOnUse" x="0" y="0" width="1454" height="2130">
<rect width="1454" height="2130" fill="#D9D9D9"/>
</mask>
<g mask="url(#mask0_2045_515)">
<g opacity="0.6" filter="url(#filter0_d_2045_515)">
<path fill-rule="evenodd" clip-rule="evenodd" d="M-327.298 1066.89C-315.691 946.446 -199.698 724.235 171.426 798.907C440.171 852.981 563.144 781.757 683.134 712.261C770.269 661.794 855.83 612.238 994.499 612.238C1064.77 612.238 1135.73 614.792 1202.11 617.18L1202.12 617.181C1366.7 623.104 1503.06 628.011 1530.5 590.448L1511.57 520.973L1568.23 492.405C1506.09 491.549 1323.62 476.778 1090.92 424.544C978.474 399.304 912.913 375.584 847.562 351.941C743.861 314.423 640.687 277.095 351.54 234.183C-25.5506 178.219 -52.9791 122.745 -19.5571 102.004L-35.8055 83.0099L-94.7728 267.895L-372 1137.1L-327.298 1066.89ZM1696.9 382.518C1712.69 502.723 1648.45 735.071 1265.16 702.829C971.252 678.106 850.808 769.801 729.748 861.965C653.458 920.046 576.923 978.312 456.578 1007.75C207.527 1068.66 30.7638 996.857 -26.4864 953.342L4.95064 1127.01L-44.5236 1161.55C17.0248 1155.45 200.512 1149.64 442.071 1175.2C558.797 1187.55 628.89 1203.64 698.759 1219.68C809.63 1245.13 919.937 1270.45 1215.11 1280.5C1600.07 1293.6 1639.7 1345.3 1611.4 1369.52L1631.74 1386.45L1648.12 1197.33L1672.75 913.048L1725.15 308.197L1696.9 382.518ZM703.999 1347.75C514.399 1226.02 157.333 1238.23 2.49941 1259.54L-29.5006 1390.97C65.9994 1376.57 293.799 1352.67 440.999 1372.35C542.817 1385.96 582.935 1417.22 637.6 1459.82L637.601 1459.82C681.725 1494.2 735.326 1535.96 838.499 1581.79C1023.3 1663.88 1320.83 1738.06 1440.5 1697.06C1520.18 1669.76 1534.09 1713.4 1534.5 1745.61L1531.5 1775.07C1531.5 1775.07 1534.7 1761.78 1534.5 1745.61L1554.5 1549.11C1529.17 1534.7 1445.2 1514.53 1312 1549.11C1145.5 1592.34 940.999 1499.91 703.999 1347.75ZM1543 1366.38L1525.5 1485.51C1454.17 1447.08 1284.1 1379.31 1174.5 1415.57C1064.9 1451.84 926.166 1385.47 870.499 1347.75C923.166 1370.94 1043.1 1410.37 1101.5 1382.54C1174.5 1347.75 1373.5 1329.13 1467 1347.75C1541.8 1362.65 1548.83 1366.38 1543 1366.38ZM996.499 1884.01C818.899 1921.96 616.499 1650.55 537.499 1510.1C580.333 1594.33 699.899 1790.32 835.499 1900.53C974.006 2013.09 1098.82 1958.12 1224.41 1902.81L1224.42 1902.8C1252.52 1890.43 1280.66 1878.03 1309 1867.49C1433 1821.39 1542 1915.29 1581 1968V1867.49C1583.83 1855.9 1554.5 1824.06 1414.5 1789.48C1309.02 1763.43 1259.48 1785.89 1188.16 1818.24C1141.15 1839.56 1084.69 1865.17 996.499 1884.01Z" fill="url(#paint0_linear_2045_515)" fill-opacity="0.2" shape-rendering="crispEdges"/>
</g>
</g>
<defs>
<filter id="filter0_d_2045_515" x="-522" y="-62.9901" width="2397.14" height="2184.99" filterUnits="userSpaceOnUse" color-interpolation-filters="sRGB">
<feFlood flood-opacity="0" result="BackgroundImageFix"/>
<feColorMatrix in="SourceAlpha" type="matrix" values="0 0 0 0 0 0 0 0 0 0 0 0 0 0 0 0 0 0 127 0" result="hardAlpha"/>
<feOffset dy="4"/>
<feGaussianBlur stdDeviation="75"/>
<feComposite in2="hardAlpha" operator="out"/>
<feColorMatrix type="matrix" values="0 0 0 0 0.340079 0 0 0 0 0.326611 0 0 0 0 1 0 0 0 0.35 0"/>
<feBlend mode="normal" in2="BackgroundImageFix" result="effect1_dropShadow_2045_515"/>
<feBlend mode="normal" in="SourceGraphic" in2="effect1_dropShadow_2045_515" result="shape"/>
</filter>
<linearGradient id="paint0_linear_2045_515" x1="1546" y1="1680" x2="1262.24" y2="-11.2313" gradientUnits="userSpaceOnUse">
<stop stop-color="#0074D8"/>
<stop offset="0.0001" stop-color="#00437D"/>
<stop offset="0.526258" stop-color="#52D88A"/>
<stop offset="1" stop-color="#84861B"/>
</linearGradient>
</defs>
</svg>
