<svg width="57" height="58" viewBox="0 0 57 58" fill="none" xmlns="http://www.w3.org/2000/svg">
<g filter="url(#filter0_d_2038_258)">
<path d="M15 12.6909C15 11.2104 15.5036 10.0103 16.1249 10.0103H40.086C40.7073 10.0103 41.2109 11.2104 41.2109 12.6909V30.9194C41.2109 32.3999 40.7073 33.6001 40.086 33.6001H32.0371L28.1055 37.5317L24.4359 33.6001H16.1249C15.5036 33.6001 15 32.3999 15 30.9194V12.6909Z" fill="white"/>
</g>
<g filter="url(#filter1_d_2038_258)">
<path d="M21.293 15.5629C21.293 14.8123 21.9015 14.2039 22.6521 14.2039H34.612C35.3626 14.2039 35.9711 14.8123 35.9711 15.5629V27.5229C35.9711 28.2735 35.3626 28.882 34.612 28.882H22.6521C21.9015 28.882 21.293 28.2735 21.293 27.5229V15.5629Z" fill="#72CAFF"/>
</g>
<defs>
<filter id="filter0_d_2038_258" x="0" y="0.0102539" width="56.2109" height="57.5215" filterUnits="userSpaceOnUse" color-interpolation-filters="sRGB">
<feFlood flood-opacity="0" result="BackgroundImageFix"/>
<feColorMatrix in="SourceAlpha" type="matrix" values="0 0 0 0 0 0 0 0 0 0 0 0 0 0 0 0 0 0 127 0" result="hardAlpha"/>
<feOffset dy="5"/>
<feGaussianBlur stdDeviation="7.5"/>
<feColorMatrix type="matrix" values="0 0 0 0 0.164706 0 0 0 0 0.25098 0 0 0 0 0.34902 0 0 0 0.2 0"/>
<feBlend mode="normal" in2="BackgroundImageFix" result="effect1_dropShadow_2038_258"/>
<feBlend mode="normal" in="SourceGraphic" in2="effect1_dropShadow_2038_258" result="shape"/>
</filter>
<filter id="filter1_d_2038_258" x="17.293" y="14.2039" width="22.6797" height="22.6782" filterUnits="userSpaceOnUse" color-interpolation-filters="sRGB">
<feFlood flood-opacity="0" result="BackgroundImageFix"/>
<feColorMatrix in="SourceAlpha" type="matrix" values="0 0 0 0 0 0 0 0 0 0 0 0 0 0 0 0 0 0 127 0" result="hardAlpha"/>
<feOffset dy="4"/>
<feGaussianBlur stdDeviation="2"/>
<feComposite in2="hardAlpha" operator="out"/>
<feColorMatrix type="matrix" values="0 0 0 0 0 0 0 0 0 0 0 0 0 0 0 0 0 0 0.25 0"/>
<feBlend mode="normal" in2="BackgroundImageFix" result="effect1_dropShadow_2038_258"/>
<feBlend mode="normal" in="SourceGraphic" in2="effect1_dropShadow_2038_258" result="shape"/>
</filter>
</defs>
</svg>
