<svg width="126" height="36" viewBox="0 0 126 36" fill="none" xmlns="http://www.w3.org/2000/svg">
<path opacity="0.5" d="M121.234 11.3424C123.107 12.5995 124.469 13.9305 125.246 15.3153L124.373 15.8046C124.798 16.5612 125 17.3015 125 18.0317C125 18.762 124.798 19.5023 124.373 20.2589L125.246 20.7482C124.469 22.133 123.107 23.4639 121.234 24.7211L120.676 23.8907C119.341 24.787 117.714 25.656 115.818 26.4853L116.219 27.4015C114.61 28.1048 112.827 28.7741 110.884 29.4045L110.576 28.4533C108.889 29.0009 107.077 29.5199 105.152 30.0068L105.397 30.9762C103.635 31.4217 101.782 31.8399 99.8461 32.2282L99.6494 31.2477C97.8628 31.6062 96.004 31.9393 94.0799 32.245L94.2369 33.2326C92.4108 33.5228 90.5275 33.7883 88.5927 34.0275L88.47 33.035C86.6367 33.2617 84.7563 33.4647 82.8341 33.6426L82.9263 34.6383C81.0692 34.8102 79.1738 34.9587 77.2444 35.0826L77.1803 34.0846C75.322 34.2039 73.4318 34.3003 71.5139 34.3726L71.5515 35.3719C69.6765 35.4426 67.7752 35.4903 65.8515 35.5141L65.8392 34.5142C64.898 34.5259 63.9515 34.5317 63 34.5317C62.0485 34.5317 61.102 34.5259 60.1608 34.5142L60.1485 35.5141C58.2248 35.4903 56.3235 35.4426 54.4485 35.3719L54.4861 34.3726C52.5682 34.3003 50.678 34.2039 48.8197 34.0846L48.7556 35.0826C46.8262 34.9587 44.9308 34.8102 43.0737 34.6383L43.1659 33.6426C41.2436 33.4647 39.3633 33.2617 37.53 33.035L37.4073 34.0275C35.4725 33.7883 33.5892 33.5228 31.7631 33.2326L31.9201 32.245C29.996 31.9393 28.1372 31.6062 26.3505 31.2477L26.1539 32.2282C24.2182 31.8399 22.3651 31.4217 20.6033 30.9762L20.8485 30.0068C18.9231 29.5199 17.1114 29.0009 15.4244 28.4533L15.1157 29.4045C13.1733 28.7741 11.3895 28.1048 9.78142 27.4015L10.1821 26.4853C8.28588 25.656 6.65946 24.787 5.32358 23.8907L4.76641 24.7211C2.89277 23.4639 1.53136 22.133 0.754455 20.7482L1.62657 20.2589C1.20209 19.5023 1 18.762 1 18.0317C1 17.3015 1.20209 16.5612 1.62657 15.8046L0.754455 15.3153C1.53136 13.9305 2.89277 12.5995 4.76641 11.3424L5.32358 12.1728C6.65946 11.2764 8.28588 10.4075 10.1821 9.57817L9.78142 8.66196C11.3895 7.95867 13.1733 7.28942 15.1157 6.65899L15.4244 7.61014C17.1114 7.06259 18.9231 6.54359 20.8485 6.05673L20.6033 5.08724C22.3651 4.64174 24.2182 4.22362 26.1539 3.83529L26.3506 4.81576C28.1372 4.45732 29.9961 4.12422 31.9201 3.81849L31.7631 2.83088C33.5892 2.54072 35.4725 2.27522 37.4073 2.036L37.53 3.02844C39.3633 2.80177 41.2436 2.59877 43.1659 2.42089L43.0737 1.42514C44.9308 1.25329 46.8262 1.1048 48.7556 0.980928L48.8197 1.97887C50.678 1.85957 52.5682 1.76319 54.4861 1.69089L54.4485 0.691599C56.3235 0.620916 58.2248 0.573148 60.1485 0.549345L60.1608 1.54927C61.102 1.53762 62.0485 1.53174 63 1.53174C63.9515 1.53174 64.898 1.53762 65.8391 1.54927L65.8515 0.549345C67.7752 0.573148 69.6765 0.620916 71.5515 0.691598L71.5139 1.69089C73.4318 1.76319 75.322 1.85957 77.1803 1.97887L77.2444 0.980927C79.1738 1.1048 81.0692 1.25329 82.9263 1.42514L82.8341 2.42088C84.7563 2.59877 86.6367 2.80177 88.47 3.02845L88.5927 2.036C90.5275 2.27522 92.4108 2.54072 94.2369 2.83088L94.0799 3.81849C96.004 4.12422 97.8628 4.45732 99.6495 4.81576L99.8461 3.83529C101.782 4.22362 103.635 4.64174 105.397 5.08724L105.152 6.05673C107.077 6.54359 108.889 7.06259 110.576 7.61014L110.884 6.65899C112.827 7.28942 114.61 7.95867 116.219 8.66196L115.818 9.57817C117.714 10.4075 119.341 11.2764 120.676 12.1728L121.234 11.3424Z" fill="url(#paint0_linear_2038_236)" stroke="white" stroke-width="2" stroke-dasharray="6 6"/>
<defs>
<linearGradient id="paint0_linear_2038_236" x1="63" y1="12.1136" x2="63" y2="35.5317" gradientUnits="userSpaceOnUse">
<stop stop-color="#72C9FF"/>
<stop offset="1" stop-color="#40C1DD" stop-opacity="0.57"/>
</linearGradient>
</defs>
</svg>
