<svg width="60" height="60" viewBox="0 0 60 60" fill="none" xmlns="http://www.w3.org/2000/svg">
<path d="M59.4538 16.0147V13.7294C59.4538 13.7206 59.4449 13.7118 59.4449 13.6941C59.4449 13.6059 59.4273 13.5177 59.392 13.4294C59.3832 13.4118 59.3832 13.3853 59.3744 13.3677C59.3655 13.35 59.3655 13.3412 59.3567 13.3324L55.3949 5.57648C55.0966 4.9884 54.6408 4.49471 54.0784 4.15041C53.516 3.80611 52.8691 3.62473 52.2096 3.62648H7.78318C6.43318 3.62648 5.20671 4.37648 4.59789 5.57648L0.636121 13.3324C0.627298 13.3412 0.627298 13.35 0.618474 13.3677C0.609651 13.3853 0.609651 13.4118 0.600827 13.4294C0.565533 13.5177 0.547886 13.6059 0.547886 13.6941C0.547886 13.7118 0.539062 13.7206 0.539062 13.7294V16.0147C0.539062 18.2912 2.07436 20.2059 4.16553 20.7882V49.1118H4.03318C2.22436 49.1118 0.750827 50.5853 0.750827 52.3941V55.4912C0.750827 55.9765 1.13906 56.3735 1.63318 56.3735H58.3685C58.8538 56.3735 59.2508 55.9765 59.2508 55.4912V52.3941C59.2508 50.5853 57.7773 49.1118 55.9596 49.1118H55.8273V20.7882C56.8701 20.4977 57.7891 19.8738 58.4439 19.0118C59.0987 18.1498 59.4534 17.0972 59.4538 16.0147ZM52.2096 5.39118C52.8979 5.39118 53.5155 5.77059 53.8244 6.37942L57.1332 12.8471H51.0273L49.1391 7.67648L48.3008 5.39118H52.2096ZM46.4302 5.39118L48.3097 10.5618L49.1479 12.8471H42.9538L41.992 8.44412L41.3214 5.39118H46.4302ZM49.5273 14.6118V16.0147C49.5273 17.7794 48.0891 19.2177 46.3244 19.2177C44.5597 19.2177 43.1214 17.7794 43.1214 16.0147V14.6118H49.5273ZM41.3567 14.6118V16.0147C41.3567 17.7794 39.9273 19.2177 38.1626 19.2177C36.3979 19.2177 34.9596 17.7794 34.9596 16.0147V14.6118H41.3567ZM39.5126 5.39118L41.1449 12.8471H34.8979L34.5626 8.17942L34.3508 5.39118H39.5126ZM27.0626 10.0588L27.4067 5.39118H32.5861L32.9302 10.0588L33.1332 12.8471H26.8597L27.0626 10.0588ZM26.7979 14.6118H33.1949V16.0147C33.1949 17.7794 31.7567 19.2177 29.992 19.2177C28.2273 19.2177 26.7979 17.7794 26.7979 16.0147V14.6118ZM29.992 20.9824C31.6861 20.9824 33.1861 20.1265 34.0773 18.8294C34.9773 20.1265 36.4685 20.9824 38.1626 20.9824C39.8567 20.9824 41.3479 20.1265 42.2391 18.8294C42.6955 19.4915 43.3056 20.0332 44.017 20.4081C44.7285 20.7831 45.5202 20.9801 46.3244 20.9824C48.0185 20.9824 49.5096 20.1265 50.4096 18.8294C50.8234 19.432 51.3656 19.9353 51.9973 20.303C52.6289 20.6707 53.3343 20.8937 54.0626 20.9559V49.1118H50.0391V28.7206C50.0391 27.2029 48.8126 25.9677 47.2949 25.9677H34.7832C33.2655 25.9677 32.0391 27.2029 32.0391 28.7206V49.1118H5.93024V20.9559C6.6585 20.8937 7.36389 20.6707 7.99556 20.303C8.62724 19.9353 9.16947 19.432 9.58318 18.8294C10.0389 19.4922 10.6488 20.0344 11.3605 20.4094C12.0721 20.7845 12.8641 20.9811 13.6685 20.9824C15.3538 20.9824 16.8538 20.1265 17.7538 18.8294C18.2077 19.492 18.8159 20.0342 19.5261 20.4093C20.2363 20.7844 21.0271 20.9811 21.8302 20.9824C23.5244 20.9824 25.0155 20.1265 25.9155 18.8294C26.3694 19.492 26.9777 20.0342 27.6879 20.4093C28.3981 20.7844 29.1889 20.9811 29.992 20.9824ZM48.2744 28.7206V49.0853H33.8038V28.7206C33.8038 28.1735 34.2449 27.7324 34.7832 27.7324H47.2949C47.8332 27.7324 48.2744 28.1735 48.2744 28.7206ZM10.4655 16.0147V14.6118H16.8714V16.0147C16.8714 17.7794 15.4332 19.2177 13.6685 19.2177C11.9038 19.2177 10.4655 17.7794 10.4655 16.0147ZM18.6361 16.0147V14.6118H25.0332V16.0147C25.0332 17.7794 23.5949 19.2177 21.8302 19.2177C20.0655 19.2177 18.6361 17.7794 18.6361 16.0147ZM20.4802 5.39118H25.642L25.4302 8.17942L25.0949 12.8471H18.8479L20.4802 5.39118ZM18.6714 5.39118L18.0008 8.44412L17.0391 12.8471H10.8449L11.1361 12.0529L13.5714 5.39118H18.6714ZM6.16847 6.37942C6.31927 6.08097 6.55021 5.83043 6.83542 5.65588C7.12062 5.48133 7.44881 5.38967 7.78318 5.39118H11.692L11.4008 6.1853L8.96553 12.8471H2.85965L6.16847 6.37942ZM2.30377 16.0147V14.6118H8.70083V16.0147C8.70083 17.7794 7.26259 19.2177 5.50671 19.2177C3.742 19.2177 2.30377 17.7794 2.30377 16.0147ZM55.9596 50.8765C56.7979 50.8765 57.4861 51.5559 57.4861 52.3941V54.6088H2.51553V52.3941C2.51553 51.5559 3.19494 50.8765 4.03318 50.8765H55.9596ZM54.4949 19.2177C52.7302 19.2177 51.292 17.7794 51.292 16.0147V14.6118H57.6891V16.0147C57.6891 17.7794 56.2508 19.2177 54.4949 19.2177Z" fill="white"/>
<path d="M10.0078 27.5806V37.7223C10.0085 38.3722 10.267 38.9953 10.7265 39.4548C11.1861 39.9143 11.8091 40.1728 12.459 40.1735H25.8655C26.5153 40.1728 27.1382 39.9143 27.5976 39.4548C28.057 38.9952 28.3153 38.3721 28.3158 37.7223V27.5806C28.3153 26.9308 28.057 26.3077 27.5976 25.8482C27.1382 25.3886 26.5153 25.1301 25.8655 25.1294H12.459C11.8091 25.1301 11.1861 25.3886 10.7265 25.8481C10.267 26.3076 10.0085 26.9307 10.0078 27.5806ZM26.5519 27.5806V37.7223C26.5519 37.9044 26.4796 38.079 26.3509 38.2077C26.2221 38.3365 26.0475 38.4088 25.8655 38.4088H12.459C12.2771 38.4083 12.1027 38.3359 11.9741 38.2072C11.8455 38.0786 11.773 37.9043 11.7725 37.7223V27.5806C11.773 27.3987 11.8455 27.2243 11.9741 27.0957C12.1027 26.967 12.2771 26.8946 12.459 26.8941H25.8655C26.244 26.8941 26.5519 27.202 26.5519 27.5806ZM45.3787 36.4765C45.1447 36.4765 44.9202 36.5694 44.7548 36.7349C44.5893 36.9004 44.4963 37.1248 44.4963 37.3588V38.5773C44.4963 38.8114 44.5893 39.0358 44.7548 39.2013C44.9202 39.3667 45.1447 39.4597 45.3787 39.4597C45.6127 39.4597 45.8371 39.3667 46.0026 39.2013C46.1681 39.0358 46.261 38.8114 46.261 38.5773V37.3588C46.261 37.1248 46.1681 36.9004 46.0026 36.7349C45.8371 36.5694 45.6127 36.4765 45.3787 36.4765Z" fill="white"/>
</svg>
