<svg width="965" height="813" viewBox="0 0 965 813" fill="none" xmlns="http://www.w3.org/2000/svg">
<path d="M9.99999 812.5C9.36489 812.5 8.74482 812.438 8.14541 812.319L8.04837 812.81C6.73642 812.55 5.51675 812.034 4.44383 811.316L4.722 810.9C3.68579 810.206 2.79355 809.314 2.09983 808.278L1.68434 808.556C0.966048 807.483 0.449886 806.264 0.190343 804.952L0.680834 804.855C0.562251 804.255 0.5 803.635 0.5 803V800.49H0V795.471H0.5V790.453H0V785.434H0.5V780.415H0V775.396H0.5V770.377H0V765.358H0.5V760.339H0V755.32H0.5V750.301H0V745.282H0.5V740.263H0V735.244H0.5V730.225H0V725.206H0.5V720.187H0V715.168H0.5V710.149H0V705.13H0.5V700.111H0V695.092H0.5V690.073H0V685.054H0.5V680.035H0V675.016H0.5V669.997H0V664.978H0.5V659.959H0V654.94H0.5V649.921H0V644.902H0.5V639.883H0V634.864H0.5V629.845H0V624.826H0.5V619.807H0V614.788H0.5V609.769H0V604.75H0.5V599.731H0V594.712H0.5V589.693H0V584.674H0.5V579.655H0V574.636H0.5V569.617H0V564.598H0.5V559.579H0V554.56H0.5V549.541H0V544.522H0.5V539.503H0V534.484H0.5V529.465H0V524.446H0.5V519.427H0V514.408H0.5V509.389H0V504.37H0.5V499.351H0V494.332H0.5V489.313H0V484.294H0.5V479.276H0V474.257H0.5V469.238H0V464.219H0.5V459.2H0V454.181H0.5V449.162H0V444.143H0.5V439.124H0V434.105H0.5V429.086H0V424.067H0.5V419.048H0V414.029H0.5V409.01H0V403.991H0.5V398.972H0V393.953H0.5V388.934H0V383.915H0.5V378.896H0V373.877H0.5V368.858H0V363.839H0.5V358.82H0V353.801H0.5V348.782H0V343.763H0.5V338.744H0V333.725H0.5V328.706H0V323.687H0.5V318.668H0V313.649H0.5V308.63H0V303.611H0.5V298.592H0V293.573H0.5V288.554H0V283.535H0.5V278.516H0V273.497H0.5V268.478H0V263.459H0.5V258.44H0V253.421H0.5V248.402H0V243.383H0.5V238.364H0V233.345H0.5V228.326H0V223.307H0.5V218.288H0V213.269H0.5V208.25H0V203.232H0.5V198.213H0V193.194H0.5V188.175H0V183.156H0.5V178.137H0V173.118H0.5V168.099H0V163.08H0.5V158.061H0V153.042H0.5V148.023H0V143.004H0.5V137.985H0V132.966H0.5V127.947H0V122.928H0.5V117.909H0V112.89H0.5V107.871H0V102.852H0.5V97.8329H0V92.8139H0.5V87.7949H0V82.7759H0.5V77.757H0V72.738H0.5V67.719H0V62.7H0.5V57.681H0V52.6621H0.5V47.6431H0V42.6241H0.5V37.6051H0V32.5861H0.5V27.5672H0V22.5482H0.5V17.5292H0V12.5102H0.5V10C0.5 9.36491 0.562252 8.74484 0.680834 8.14542L0.19034 8.04839C0.449883 6.73644 0.966046 5.51677 1.68435 4.44385L2.09983 4.72201C2.79355 3.6858 3.6858 2.79356 4.722 2.09983L4.44384 1.68435C5.51676 0.966049 6.73643 0.449884 8.04838 0.190341L8.14541 0.680835C8.74483 0.562252 9.3649 0.5 10 0.5H12.4868V0H17.4605V0.5H22.4342V0H27.4079V0.5H32.3816V0H37.3553V0.5H42.3289V0H47.3026V0.5H52.2763V0H57.25V0.5H62.2237V0H67.1974V0.5H72.1711V0H77.1448V0.5H82.1184V0H87.0921V0.5H92.0658V0H97.0395V0.5H102.013V0H106.987V0.5H111.961V0H116.934V0.5H121.908V0H126.882V0.5H131.855V0H136.829V0.5H141.803V0H146.776V0.5H151.75V0H156.724V0.5H161.697V0H166.671V0.5H171.645V0H176.618V0.5H181.592V0H186.566V0.5H191.539V0H196.513V0.5H201.487V0H206.46V0.5H211.434V0H216.408V0.5H221.382V0H226.355V0.5H231.329V0H236.303V0.5H241.276V0H246.25V0.5H251.224V0H256.197V0.5H261.171V0H266.145V0.5H271.118V0H276.092V0.5H281.066V0H286.039V0.5H291.013V0H295.987V0.5H300.96V0H305.934V0.5H310.908V0H315.882V0.5H320.855V0H325.829V0.5H330.803V0H335.776V0.5H340.75V0H345.724V0.5H350.697V0H355.671V0.5H360.645V0H365.618V0.5H370.592V0H375.566V0.5H380.54V0H385.513V0.5H390.487V0H395.461V0.5H400.434V0H405.408V0.5H410.382V0H415.355V0.5H420.329V0H425.303V0.5H430.277V0H435.25V0.5H440.224V0H445.198V0.5H450.171V0H455.145V0.5H460.119V0H465.092V0.5H470.066V0H475.04V0.5H480.013V0H484.987V0.5H489.961V0H494.935V0.5H499.908V0H504.882V0.5H509.856V0H514.829V0.5H519.803V0H524.777V0.5H529.75V0H534.724V0.5H539.698V0H544.672V0.5H549.645V0H554.619V0.5H559.593V0H564.566V0.5H569.54V0H574.514V0.5H579.487V0H584.461V0.5H589.435V0H594.408V0.5H599.382V0H604.356V0.5H609.33V0H614.303V0.5H619.277V0H624.251V0.5H629.224V0H634.198V0.5H639.172V0H644.145V0.5H649.119V0H654.093V0.5H659.066V0H664.04V0.5H669.014V0H673.988V0.5H678.961V0H683.935V0.5H688.909V0H693.882V0.5H698.856V0H703.83V0.5H708.803V0H713.777V0.5H718.751V0H723.724V0.5H728.698V0H733.672V0.5H738.646V0H743.619V0.5H748.593V0H753.567V0.5H758.54V0H763.514V0.5H768.488V0H773.461V0.5H778.435V0H783.409V0.5H788.382V0H793.356V0.5H798.33V0H803.304V0.5H808.277V0H813.251V0.5H818.225V0H823.198V0.5H828.172V0H833.146V0.5H838.119V0H843.093V0.5H848.067V0H853.04V0.5H858.014V0H862.988V0.5H867.962V0H872.935V0.5H877.909V0H882.883V0.5H887.856V0H892.83V0.5H897.804V0H902.777V0.5H907.751V0H912.725V0.5H917.698V0H922.672V0.5H927.646V0H932.62V0.5H937.593V0H942.567V0.5H947.541V0H952.514V0.5H955C955.635 0.5 956.255 0.562252 956.855 0.680834L956.952 0.190338C958.264 0.449878 959.483 0.966038 960.556 1.68433L960.278 2.09983C961.314 2.79355 962.206 3.6858 962.9 4.722L963.316 4.44384C964.034 5.51676 964.55 6.73643 964.81 8.04838L964.319 8.14542C964.438 8.74483 964.5 9.3649 964.5 10V12.5095H965V17.5285H964.5V22.5475H965V27.5665H964.5V32.5854H965V37.6044H964.5V42.6234H965V47.6424H964.5V52.6614H965V57.6804H964.5V62.6994H965V67.7183H964.5V72.7373H965V77.7563H964.5V82.7753H965V87.7943H964.5V92.8133H965V97.8323H964.5V102.851H965V107.87H964.5V112.889H965V117.908H964.5V122.927H965V127.946H964.5V132.965H965V137.984H964.5V143.003H965V148.022H964.5V153.041H965V158.06H964.5V163.079H965V168.098H964.5V173.117H965V178.136H964.5V183.155H965V188.174H964.5V193.193H965V198.212H964.5V203.231H965V208.25H964.5V213.269H965V218.288H964.5V223.307H965V228.326H964.5V233.345H965V238.364H964.5V243.383H965V248.402H964.5V253.421H965V258.44H964.5V263.459H965V268.478H964.5V273.497H965V278.516H964.5V283.535H965V288.554H964.5V293.573H965V298.592H964.5V303.611H965V308.63H964.5V313.649H965V318.668H964.5V323.687H965V328.706H964.5V333.724H965V338.743H964.5V343.762H965V348.781H964.5V353.8H965V358.819H964.5V363.838H965V368.857H964.5V373.876H965V378.895H964.5V383.914H965V388.933H964.5V393.952H965V398.971H964.5V403.99H965V409.009H964.5V414.028H965V419.047H964.5V424.066H965V429.085H964.5V434.104H965V439.123H964.5V444.142H965V449.161H964.5V454.18H965V459.199H964.5V464.218H965V469.237H964.5V474.256H965V479.275H964.5V484.294H965V489.313H964.5V494.332H965V499.351H964.5V504.37H965V509.389H964.5V514.408H965V519.427H964.5V524.446H965V529.465H964.5V534.484H965V539.503H964.5V544.522H965V549.541H964.5V554.56H965V559.579H964.5V564.598H965V569.617H964.5V574.636H965V579.655H964.5V584.674H965V589.693H964.5V594.712H965V599.731H964.5V604.75H965V609.768H964.5V614.787H965V619.806H964.5V624.825H965V629.844H964.5V634.863H965V639.882H964.5V644.901H965V649.92H964.5V654.939H965V659.958H964.5V664.977H965V669.996H964.5V675.015H965V680.034H964.5V685.053H965V690.072H964.5V695.091H965V700.11H964.5V705.129H965V710.148H964.5V715.167H965V720.186H964.5V725.205H965V730.224H964.5V735.243H965V740.262H964.5V745.281H965V750.3H964.5V755.319H965V760.338H964.5V765.357H965V770.376H964.5V775.395H965V780.414H964.5V785.433H965V790.452H964.5V795.471H965V800.49H964.5V803C964.5 803.635 964.438 804.255 964.319 804.855L964.81 804.952C964.55 806.264 964.034 807.483 963.316 808.556L962.9 808.278C962.206 809.314 961.314 810.206 960.278 810.9L960.556 811.316C959.483 812.034 958.264 812.55 956.952 812.81L956.855 812.319C956.255 812.438 955.635 812.5 955 812.5H952.513V813H947.539V812.5H942.566V813H937.592V812.5H932.618V813H927.645V812.5H922.671V813H917.697V812.5H912.724V813H907.75V812.5H902.776V813H897.803V812.5H892.829V813H887.855V812.5H882.882V813H877.908V812.5H872.934V813H867.961V812.5H862.987V813H858.013V812.5H853.039V813H848.066V812.5H843.092V813H838.118V812.5H833.145V813H828.171V812.5H823.197V813H818.224V812.5H813.25V813H808.276V812.5H803.303V813H798.329V812.5H793.355V813H788.382V812.5H783.408V813H778.434V812.5H773.461V813H768.487V812.5H763.513V813H758.539V812.5H753.566V813H748.592V812.5H743.618V813H738.645V812.5H733.671V813H728.697V812.5H723.724V813H718.75V812.5H713.776V813H708.803V812.5H703.829V813H698.855V812.5H693.882V813H688.908V812.5H683.934V813H678.961V812.5H673.987V813H669.013V812.5H664.039V813H659.066V812.5H654.092V813H649.118V812.5H644.145V813H639.171V812.5H634.197V813H629.224V812.5H624.25V813H619.276V812.5H614.303V813H609.329V812.5H604.355V813H599.381V812.5H594.408V813H589.434V812.5H584.46V813H579.487V812.5H574.513V813H569.539V812.5H564.566V813H559.592V812.5H554.618V813H549.645V812.5H544.671V813H539.697V812.5H534.723V813H529.75V812.5H524.776V813H519.802V812.5H514.829V813H509.855V812.5H504.881V813H499.908V812.5H494.934V813H489.96V812.5H484.986V813H480.013V812.5H475.039V813H470.065V812.5H465.092V813H460.118V812.5H455.144V813H450.171V812.5H445.197V813H440.223V812.5H435.25V813H430.276V812.5H425.302V813H420.328V812.5H415.355V813H410.381V812.5H405.407V813H400.434V812.5H395.46V813H390.486V812.5H385.513V813H380.539V812.5H375.565V813H370.592V812.5H365.618V813H360.644V812.5H355.67V813H350.697V812.5H345.723V813H340.749V812.5H335.776V813H330.802V812.5H325.828V813H320.855V812.5H315.881V813H310.907V812.5H305.934V813H300.96V812.5H295.986V813H291.012V812.5H286.039V813H281.065V812.5H276.091V813H271.118V812.5H266.144V813H261.17V812.5H256.197V813H251.223V812.5H246.249V813H241.276V812.5H236.302V813H231.328V812.5H226.354V813H221.381V812.5H216.407V813H211.433V812.5H206.46V813H201.486V812.5H196.512V813H191.539V812.5H186.565V813H181.591V812.5H176.618V813H171.644V812.5H166.67V813H161.696V812.5H156.723V813H151.749V812.5H146.775V813H141.802V812.5H136.828V813H131.854V812.5H126.881V813H121.907V812.5H116.933V813H111.959V812.5H106.986V813H102.012V812.5H97.0384V813H92.0647V812.5H87.091V813H82.1173V812.5H77.1436V813H72.1699V812.5H67.1962V813H62.2225V812.5H57.2488V813H52.2751V812.5H47.3015V813H42.3277V812.5H37.3541V813H32.3804V812.5H27.4066V813H22.433V812.5H17.4593V813H12.4856V812.5H9.99999Z" fill="#1D171A" fill-opacity="0.5" stroke="url(#paint0_linear_2045_497)" stroke-dasharray="5 5"/>
<defs>
<linearGradient id="paint0_linear_2045_497" x1="462.598" y1="131.466" x2="488.147" y2="812.788" gradientUnits="userSpaceOnUse">
<stop stop-color="#BB60A8"/>
<stop offset="1" stop-color="#0DC39F"/>
</linearGradient>
</defs>
</svg>
