<svg width="675" height="272" viewBox="0 0 675 272" fill="none" xmlns="http://www.w3.org/2000/svg">
<path opacity="0.8" d="M673.789 127.073C674.117 129.067 674.337 131.072 674.448 133.089L673.45 133.144C673.504 134.135 673.531 135.129 673.531 136.125C673.531 137.121 673.504 138.115 673.45 139.105L674.448 139.16C674.337 141.177 674.117 143.183 673.789 145.177L672.802 145.014C672.481 146.964 672.055 148.903 671.526 150.831L672.491 151.095C671.96 153.03 671.328 154.953 670.596 156.863L669.662 156.505C668.96 158.337 668.164 160.158 667.277 161.967L668.174 162.407C667.299 164.191 666.337 165.962 665.289 167.72L664.43 167.208C663.426 168.892 662.342 170.566 661.179 172.227L661.998 172.8C660.856 174.432 659.639 176.051 658.35 177.657L657.57 177.031C656.334 178.57 655.03 180.098 653.659 181.614L654.401 182.284C653.076 183.75 651.689 185.204 650.242 186.646L649.536 185.937C648.139 187.329 646.685 188.71 645.175 190.079L645.847 190.82C644.362 192.166 642.824 193.501 641.235 194.824L640.595 194.055C639.087 195.31 637.53 196.555 635.928 197.789L636.538 198.581C634.958 199.797 633.333 201.003 631.665 202.197L631.083 201.383C629.465 202.542 627.805 203.689 626.104 204.827L626.659 205.658C625.01 206.76 623.323 207.852 621.599 208.934L621.068 208.087C619.373 209.15 617.642 210.202 615.876 211.245L616.384 212.106C614.675 213.115 612.933 214.114 611.158 215.103L610.671 214.229C608.927 215.201 607.152 216.163 605.345 217.115L605.811 218C604.046 218.93 602.251 219.852 600.428 220.763L599.981 219.868C598.197 220.76 596.385 221.642 594.546 222.515L594.975 223.419C593.166 224.277 591.331 225.126 589.471 225.966L589.059 225.055C587.241 225.876 585.399 226.687 583.532 227.49L583.927 228.408C582.085 229.201 580.22 229.984 578.331 230.758L577.952 229.832C576.105 230.59 574.235 231.338 572.344 232.078L572.708 233.009C570.841 233.74 568.952 234.461 567.043 235.175L566.693 234.238C564.819 234.938 562.924 235.629 561.01 236.312L561.346 237.254C559.459 237.927 557.553 238.592 555.628 239.249L555.305 238.302C553.406 238.95 551.488 239.589 549.553 240.221L549.863 241.171C547.961 241.791 546.042 242.403 544.106 243.007L543.808 242.052C541.885 242.652 539.945 243.243 537.989 243.827L538.274 244.785C536.361 245.355 534.433 245.918 532.489 246.472L532.214 245.51C530.274 246.063 528.319 246.609 526.348 247.146L526.611 248.11C524.684 248.635 522.743 249.153 520.788 249.662L520.535 248.695C518.589 249.202 516.63 249.701 514.656 250.192L514.897 251.162C512.949 251.647 510.986 252.125 509.011 252.594L508.78 251.621C506.83 252.085 504.868 252.54 502.893 252.988L503.114 253.964C501.144 254.41 499.162 254.849 497.167 255.281L496.956 254.303C495.004 254.726 493.04 255.14 491.065 255.547L491.267 256.527C489.288 256.934 487.299 257.334 485.298 257.727L485.105 256.745C483.14 257.131 481.164 257.509 479.177 257.879L479.361 258.862C477.383 259.231 475.395 259.592 473.397 259.946L473.223 258.961C471.237 259.312 469.241 259.656 467.236 259.993L467.401 260.979C465.425 261.31 463.439 261.634 461.444 261.951L461.288 260.964C459.295 261.28 457.294 261.589 455.283 261.89L455.432 262.879C453.445 263.177 451.449 263.467 449.444 263.75L449.304 262.76C447.315 263.041 445.318 263.314 443.312 263.581L443.443 264.572C441.437 264.838 439.423 265.097 437.4 265.348L437.277 264.356C435.291 264.603 433.298 264.842 431.297 265.075L431.412 266.068C429.408 266.301 427.397 266.526 425.378 266.744L425.27 265.75C423.268 265.966 421.259 266.175 419.242 266.377L419.341 267.372C417.342 267.572 415.336 267.765 413.323 267.951L413.231 266.955C411.221 267.14 409.204 267.318 407.18 267.489L407.264 268.485C405.26 268.654 403.25 268.816 401.233 268.971L401.157 267.974C399.152 268.128 397.141 268.274 395.123 268.414L395.192 269.411C393.172 269.551 391.146 269.684 389.114 269.809L389.053 268.811C387.053 268.934 385.046 269.05 383.034 269.159L383.089 270.157C381.075 270.266 379.056 270.368 377.032 270.463L376.985 269.464C374.968 269.558 372.945 269.646 370.918 269.726L370.957 270.725C368.95 270.804 366.937 270.876 364.92 270.941L364.888 269.941C362.872 270.006 360.852 270.064 358.827 270.115L358.852 271.114C356.834 271.165 354.811 271.208 352.784 271.244L352.766 270.244C350.757 270.28 348.744 270.309 346.726 270.33L346.737 271.33C344.717 271.352 342.692 271.366 340.664 271.373L340.66 270.373C339.647 270.377 338.633 270.379 337.617 270.379C336.602 270.379 335.588 270.377 334.575 270.373L334.571 271.373C332.542 271.366 330.518 271.352 328.498 271.33L328.508 270.33C326.491 270.309 324.477 270.28 322.469 270.244L322.451 271.244C320.423 271.208 318.4 271.165 316.382 271.114L316.407 270.115C314.382 270.064 312.362 270.006 310.347 269.941L310.315 270.941C308.297 270.876 306.285 270.804 304.277 270.725L304.317 269.726C302.289 269.646 300.267 269.558 298.25 269.464L298.203 270.463C296.178 270.368 294.159 270.266 292.146 270.157L292.2 269.159C290.188 269.05 288.182 268.934 286.181 268.811L286.12 269.809C284.088 269.684 282.062 269.551 280.042 269.411L280.111 268.414C278.094 268.274 276.083 268.128 274.078 267.974L274.001 268.971C271.985 268.816 269.974 268.654 267.971 268.485L268.055 267.489C266.031 267.318 264.013 267.14 262.003 266.955L261.911 267.951C259.898 267.765 257.892 267.572 255.893 267.372L255.992 266.377C253.976 266.175 251.966 265.966 249.964 265.75L249.857 266.744C247.838 266.526 245.826 266.301 243.822 266.068L243.938 265.075C241.937 264.842 239.943 264.603 237.958 264.356L237.834 265.348C235.812 265.097 233.797 264.838 231.791 264.572L231.922 263.581C229.917 263.314 227.919 263.041 225.93 262.76L225.79 263.75C223.786 263.467 221.79 263.177 219.803 262.879L219.951 261.89C217.94 261.589 215.939 261.28 213.947 260.963L213.79 261.951C211.795 261.634 209.809 261.31 207.833 260.979L207.998 259.993C205.993 259.656 203.997 259.312 202.011 258.961L201.837 259.946C199.839 259.592 197.851 259.231 195.873 258.862L196.057 257.879C194.07 257.509 192.094 257.131 190.129 256.745L189.936 257.727C187.936 257.334 185.946 256.934 183.968 256.527L184.169 255.547C182.194 255.14 180.23 254.725 178.278 254.303L178.067 255.281C176.072 254.849 174.09 254.41 172.12 253.963L172.341 252.988C170.366 252.54 168.404 252.085 166.454 251.621L166.223 252.594C164.248 252.125 162.286 251.647 160.337 251.162L160.578 250.192C158.605 249.701 156.645 249.201 154.699 248.694L154.447 249.662C152.492 249.153 150.55 248.635 148.623 248.11L148.886 247.146C146.916 246.609 144.96 246.063 143.02 245.51L142.746 246.472C140.802 245.917 138.873 245.355 136.96 244.785L137.245 243.826C135.289 243.243 133.349 242.652 131.426 242.052L131.129 243.007C129.193 242.403 127.273 241.791 125.371 241.171L125.681 240.22C123.746 239.589 121.828 238.95 119.929 238.302L119.606 239.249C117.681 238.592 115.775 237.927 113.888 237.254L114.224 236.312C112.31 235.629 110.416 234.938 108.541 234.238L108.192 235.174C106.282 234.461 104.393 233.74 102.526 233.009L102.89 232.078C100.999 231.338 99.1294 230.59 97.2821 229.832L96.9028 230.758C95.0144 229.984 93.1489 229.2 91.3068 228.408L91.7018 227.49C89.8352 226.687 87.9928 225.875 86.1752 225.055L85.7637 225.966C83.9032 225.126 82.0683 224.277 80.2596 223.419L80.6884 222.515C78.8493 221.642 77.0376 220.76 75.2537 219.868L74.8067 220.763C72.9832 219.851 71.1885 218.93 69.4231 218L69.8894 217.115C68.0827 216.163 66.3071 215.201 64.5632 214.229L64.0764 215.103C62.3017 214.114 60.5595 213.115 58.8503 212.106L59.3586 211.245C57.5919 210.202 55.861 209.15 54.1666 208.087L53.6352 208.934C51.911 207.852 50.224 206.76 48.5751 205.658L49.1309 204.827C47.4298 203.689 45.7697 202.542 44.1515 201.383L43.5695 202.197C41.9012 201.003 40.2767 199.797 38.6969 198.581L39.3069 197.789C37.7039 196.555 36.1478 195.31 34.6393 194.055L33.9997 194.824C32.4099 193.501 30.8722 192.166 29.3876 190.82L30.0593 190.079C28.5494 188.71 27.0955 187.329 25.6986 185.937L24.9927 186.646C23.5458 185.204 22.159 183.75 20.8334 182.284L21.5751 181.614C20.2042 180.098 18.9003 178.57 17.6645 177.031L16.8847 177.657C15.5954 176.051 14.3789 174.432 13.2367 172.801L14.0559 172.227C12.8927 170.566 11.8082 168.892 10.804 167.208L9.94505 167.72C8.89731 165.962 7.93503 164.191 7.06009 162.408L7.95788 161.967C7.07038 160.158 6.27466 158.337 5.57245 156.505L4.6387 156.863C3.90678 154.953 3.27435 153.031 2.7436 151.096L3.70798 150.831C3.17926 148.903 2.75341 146.964 2.43247 145.015L1.44574 145.177C1.11752 143.183 0.896937 141.177 0.78631 139.16L1.78481 139.106C1.73045 138.115 1.70312 137.121 1.70312 136.125C1.70312 135.129 1.73045 134.135 1.7848 133.144L0.786301 133.089C0.896922 131.073 1.1175 129.067 1.44572 127.073L2.43244 127.235C2.75338 125.285 3.17922 123.346 3.70794 121.419L2.74356 121.154C3.27431 119.219 3.90673 117.296 4.63865 115.387L5.57241 115.745C6.27461 113.913 7.07033 112.092 7.95783 110.283L7.06003 109.842C7.93497 108.059 8.89724 106.288 9.94499 104.53L10.804 105.042C11.8082 103.357 12.8926 101.684 14.0558 100.023L13.2366 99.4491C14.3788 97.8176 15.5954 96.1987 16.8847 94.5928L17.6645 95.2189C18.9002 93.6797 20.2042 92.1519 21.5751 90.636L20.8334 89.9652C22.1589 88.4995 23.5458 87.0456 24.9927 85.6039L25.6985 86.3123C27.0954 84.9206 28.5494 83.5398 30.0593 82.1704L29.3875 81.4297C30.8721 80.0833 32.4099 78.7485 33.9997 77.4257L34.6393 78.1944C36.1478 76.9392 37.7039 75.6945 39.3068 74.4606L38.6969 73.6682C40.2767 72.4521 41.9012 71.2469 43.5695 70.0529L44.1515 70.8661C45.7697 69.7079 47.4298 68.5601 49.1309 67.4229L48.5751 66.5916C50.224 65.4893 51.911 64.3972 53.6352 63.3156L54.1666 64.1628C55.861 63.0999 57.5919 62.047 59.3586 61.0044L58.8504 60.1432C60.5595 59.1346 62.3018 58.1357 64.0765 57.1468L64.5632 58.0204C66.3072 57.0486 68.0828 56.0865 69.8895 55.1342L69.4232 54.2495C71.1885 53.319 72.9833 52.398 74.8068 51.4866L75.2538 52.3811C77.0377 51.4896 78.8495 50.6072 80.6885 49.7343L80.2597 48.8309C82.0684 47.9724 83.9033 47.1231 85.7639 46.2831L86.1753 47.1945C87.993 46.374 89.8353 45.5623 91.7019 44.7597L91.3069 43.841C93.149 43.049 95.0145 42.2659 96.903 41.4918L97.2822 42.4171C99.1295 41.6599 100.999 40.9114 102.89 40.1717L102.526 39.2404C104.394 38.5099 106.282 37.788 108.192 37.075L108.542 38.0118C110.416 37.3118 112.31 36.6203 114.224 35.9374L113.888 34.9955C115.775 34.3222 117.681 33.6572 119.606 33.0008L119.929 33.9473C121.828 33.2995 123.746 32.66 125.682 32.029L125.372 31.0783C127.274 30.4581 129.193 29.8462 131.129 29.2425L131.426 30.1972C133.35 29.5976 135.289 29.0061 137.246 28.423L136.96 27.4647C138.873 26.8943 140.802 26.332 142.746 25.7777L143.02 26.7394C144.96 26.1861 146.916 25.641 148.886 25.104L148.623 24.1391C150.55 23.614 152.492 23.0967 154.447 22.5873L154.699 23.555C156.645 23.048 158.605 22.5488 160.578 22.0576L160.337 21.0872C162.286 20.6022 164.248 20.1249 166.223 19.6555L166.454 20.6284C168.404 20.165 170.367 19.7092 172.342 19.2612L172.12 18.286C174.09 17.8392 176.073 17.4 178.067 16.9688L178.278 17.9462C180.231 17.524 182.194 17.1094 184.17 16.7023L183.968 15.7229C185.946 15.3152 187.936 14.9151 189.937 14.5228L190.129 15.5041C192.094 15.1187 194.07 14.7408 196.057 14.3704L195.874 13.3874C197.851 13.0187 199.839 12.6575 201.837 12.3039L202.012 13.2886C203.997 12.9371 205.993 12.5932 207.998 12.2568L207.833 11.2706C209.809 10.9391 211.795 10.615 213.79 10.2984L213.947 11.286C215.939 10.9698 217.94 10.661 219.951 10.3597L219.803 9.37071C221.79 9.07294 223.786 8.78247 225.79 8.49941L225.93 9.48959C227.919 9.20873 229.917 8.93517 231.923 8.66897L231.791 7.67767C233.797 7.41144 235.812 7.15257 237.834 6.90114L237.958 7.89351C239.943 7.64669 241.937 7.40705 243.938 7.17467L243.822 6.18135C245.826 5.94866 247.838 5.72323 249.857 5.50516L249.964 6.49937C251.966 6.28311 253.976 6.07408 255.993 5.87235L255.893 4.87732C257.892 4.67736 259.898 4.48456 261.911 4.29901L262.003 5.29479C264.013 5.10947 266.031 4.93139 268.055 4.7606L267.971 3.76414C269.974 3.59508 271.985 3.43316 274.001 3.27845L274.078 4.27552C276.083 4.12173 278.094 3.97507 280.111 3.83562L280.042 2.838C282.062 2.69838 284.088 2.56598 286.12 2.44087L286.181 3.43898C288.182 3.31581 290.188 3.19971 292.2 3.09074L292.146 2.09221C294.159 1.98316 296.178 1.88125 298.203 1.78655L298.249 2.78546C300.266 2.69111 302.289 2.60392 304.317 2.52396L304.277 1.52474C306.285 1.44558 308.297 1.37349 310.315 1.30853L310.347 2.30802C312.362 2.24314 314.382 2.18539 316.407 2.13483L316.382 1.13515C318.4 1.08476 320.423 1.0415 322.451 1.00544L322.469 2.00528C324.477 1.96956 326.491 1.94091 328.508 1.91938L328.498 0.919439C330.518 0.897889 332.542 0.883477 334.571 0.876264L334.574 1.87626C335.588 1.87265 336.602 1.87085 337.617 1.87085C338.632 1.87085 339.647 1.87265 340.66 1.87626L340.663 0.876263C342.692 0.883476 344.717 0.897888 346.737 0.919438L346.726 1.91938C348.744 1.94091 350.757 1.96956 352.766 2.00528L352.783 1.00544C354.811 1.0415 356.834 1.08476 358.852 1.13514L358.827 2.13483C360.852 2.18539 362.872 2.24314 364.887 2.30801L364.92 1.30853C366.937 1.37349 368.95 1.44557 370.957 1.52473L370.918 2.52396C372.945 2.60392 374.968 2.69111 376.985 2.78546L377.032 1.78655C379.056 1.88125 381.075 1.98316 383.089 2.0922L383.034 3.09074C385.046 3.1997 387.053 3.3158 389.053 3.43898L389.114 2.44087C391.146 2.56598 393.172 2.69838 395.192 2.838L395.123 3.83562C397.141 3.97507 399.152 4.12173 401.157 4.27552L401.233 3.27845C403.25 3.43316 405.26 3.59508 407.264 3.76414L407.18 4.7606C409.204 4.93139 411.221 5.10947 413.231 5.29479L413.323 4.29901C415.336 4.48456 417.342 4.67736 419.341 4.87732L419.242 5.87235C421.259 6.07408 423.268 6.28311 425.27 6.49938L425.378 5.50516C427.397 5.72324 429.408 5.94866 431.412 6.18135L431.297 7.17468C433.298 7.40706 435.291 7.6467 437.277 7.89352L437.4 6.90115C439.423 7.15258 441.437 7.41145 443.443 7.67768L443.312 8.66898C445.318 8.93518 447.315 9.20875 449.304 9.4896L449.444 8.49942C451.449 8.78249 453.445 9.07295 455.432 9.37073L455.283 10.3597C457.294 10.661 459.296 10.9698 461.288 11.286L461.445 10.2984C463.44 10.6151 465.425 10.9392 467.401 11.2706L467.236 12.2568C469.242 12.5932 471.237 12.9372 473.223 13.2886L473.397 12.3039C475.395 12.6575 477.383 13.0187 479.361 13.3874L479.178 14.3705C481.164 14.7408 483.14 15.1187 485.105 15.5041L485.298 14.5228C487.299 14.9152 489.288 15.3152 491.267 15.7229L491.065 16.7023C493.04 17.1094 495.004 17.524 496.956 17.9462L497.168 16.9688C499.162 17.4001 501.144 17.8392 503.114 18.286L502.893 19.2612C504.868 19.7092 506.83 20.165 508.78 20.6284L509.012 19.6555C510.987 20.1249 512.949 20.6022 514.898 21.0873L514.656 22.0577C516.63 22.5489 518.59 23.048 520.536 23.555L520.788 22.5873C522.743 23.0967 524.684 23.6141 526.611 24.1392L526.348 25.104C528.319 25.641 530.274 26.1862 532.214 26.7394L532.489 25.7777C534.433 26.332 536.361 26.8944 538.275 27.4647L537.989 28.423C539.945 29.0062 541.885 29.5976 543.808 30.1973L544.106 29.2426C546.042 29.8462 547.961 30.4582 549.863 31.0783L549.553 32.029C551.489 32.6601 553.406 33.2995 555.306 33.9473L555.628 33.0008C557.553 33.6573 559.459 34.3222 561.346 34.9956L561.01 35.9374C562.924 36.6203 564.819 37.3119 566.693 38.0118L567.043 37.075C568.952 37.7881 570.841 38.5099 572.709 39.2404L572.344 40.1717C574.236 40.9114 576.105 41.66 577.952 42.4171L578.332 41.4919C580.22 42.2659 582.086 43.049 583.928 43.8411L583.533 44.7598C585.399 45.5623 587.242 46.374 589.059 47.1946L589.471 46.2832C591.331 47.1231 593.166 47.9725 594.975 48.831L594.546 49.7344C596.385 50.6073 598.197 51.4896 599.981 52.3812L600.428 51.4867C602.251 52.398 604.046 53.3191 605.811 54.2496L605.345 55.1342C607.152 56.0865 608.927 57.0487 610.671 58.0204L611.158 57.1468C612.933 58.1357 614.675 59.1346 616.384 60.1432L615.876 61.0044C617.643 62.047 619.373 63.0999 621.068 64.1628L621.599 63.3156C623.323 64.3972 625.01 65.4893 626.659 66.5916L626.104 67.4229C627.805 68.5601 629.465 69.7079 631.083 70.8661L631.665 70.0529C633.333 71.2469 634.958 72.4521 636.537 73.6682L635.927 74.4606C637.53 75.6945 639.087 76.9392 640.595 78.1943L641.235 77.4256C642.824 78.7485 644.362 80.0833 645.847 81.4296L645.175 82.1704C646.685 83.5397 648.139 84.9205 649.536 86.3123L650.242 85.6039C651.689 87.0455 653.075 88.4994 654.401 89.9652L653.659 90.6359C655.03 92.1518 656.334 93.6797 657.57 95.2188L658.35 94.5927C659.639 96.1986 660.855 97.8176 661.998 99.449L661.179 100.023C662.342 101.684 663.426 103.357 664.43 105.042L665.289 104.53C666.337 106.287 667.299 108.058 668.174 109.842L667.276 110.282C668.164 112.092 668.96 113.913 669.662 115.745L670.596 115.387C671.328 117.296 671.96 119.219 672.491 121.154L671.526 121.418C672.055 123.346 672.481 125.285 672.802 127.235L673.789 127.073Z" fill="url(#paint0_linear_2041_433)" stroke="white" stroke-width="2" stroke-dasharray="6 6"/>
<defs>
<linearGradient id="paint0_linear_2041_433" x1="337.617" y1="90.3843" x2="337.617" y2="271.379" gradientUnits="userSpaceOnUse">
<stop stop-color="#0DC39F" stop-opacity="0.53"/>
<stop offset="1" stop-color="#40DDA4" stop-opacity="0.51"/>
</linearGradient>
</defs>
</svg>
