<svg width="330" height="226" viewBox="0 0 330 226" fill="none" xmlns="http://www.w3.org/2000/svg">
<path fill-rule="evenodd" clip-rule="evenodd" d="M32.3398 3.78069L30.4023 2.33278L31.5996 0.730713L33.5371 2.17863L32.3398 3.78069ZM40.0898 9.57236L36.2148 6.67653L37.4121 5.07446L41.2871 7.9703L40.0898 9.57236ZM47.8398 15.364L43.9648 12.4682L45.1621 10.8661L49.0371 13.762L47.8398 15.364ZM55.5898 21.1557L51.7148 18.2599L52.9121 16.6578L56.7871 19.5536L55.5898 21.1557ZM63.3398 26.9474L59.4648 24.0515L60.6621 22.4495L64.5371 25.3453L63.3398 26.9474ZM71.0898 32.739L67.2148 29.8432L68.4121 28.2411L72.2871 31.137L71.0898 32.739ZM78.8399 38.5307L74.9648 35.6349L76.1621 34.0328L80.0371 36.9286L78.8399 38.5307ZM86.5898 44.3224L82.7149 41.4265L83.9121 39.8245L87.7871 42.7203L86.5898 44.3224ZM94.3399 50.114L90.4649 47.2182L91.6621 45.6161L95.5371 48.512L94.3399 50.114ZM102.09 55.9057L98.2148 53.0099L99.4121 51.4078L103.287 54.3036L102.09 55.9057ZM109.84 61.6974L105.965 58.8015L107.162 57.1995L111.037 60.0953L109.84 61.6974ZM117.59 67.489L113.715 64.5932L114.912 62.9911L118.787 65.887L117.59 67.489ZM123.402 71.8328L121.465 70.3849L122.662 68.7828L124.6 70.2307L123.402 71.8328ZM146.477 107.736L145.967 110.184L144.009 109.776L144.52 107.328L146.477 107.736ZM144.946 115.08L143.925 119.975L141.967 119.567L142.988 114.671L144.946 115.08ZM142.905 124.871L141.884 129.767L139.926 129.359L140.947 124.463L142.905 124.871ZM140.863 134.663L139.842 139.559L137.884 139.151L138.905 134.255L140.863 134.663ZM138.821 144.455L137.8 149.35L135.842 148.942L136.863 144.046L138.821 144.455ZM136.78 154.246L135.759 159.142L133.801 158.734L134.822 153.838L136.78 154.246ZM134.738 164.038L133.717 168.934L131.759 168.526L132.78 163.63L134.738 164.038ZM132.696 173.83L131.675 178.725L129.717 178.317L130.738 173.421L132.696 173.83ZM130.655 183.621L129.634 188.517L127.676 188.109L128.697 183.213L130.655 183.621ZM128.613 193.413L127.592 198.309L125.634 197.901L126.655 193.005L128.613 193.413ZM126.571 203.205L125.55 208.1L123.592 207.692L124.613 202.796L126.571 203.205ZM124.53 212.996L123.509 217.892L121.551 217.484L122.572 212.588L124.53 212.996ZM122.488 222.788L121.977 225.236L120.02 224.828L120.53 222.38L122.488 222.788ZM1.96347 3.76636L0.0351562 4.29698L0.203033 4.9065C0.313812 5.30849 0.478302 5.90505 0.693146 6.68343L2.62106 6.15131C2.40628 5.3732 2.24188 4.7769 2.13116 4.37516L1.96347 3.76636ZM1.99277 11.3858C2.3848 12.8025 2.83096 14.4135 3.32687 16.2021L5.25418 15.6677C4.75833 13.8794 4.31229 12.2688 3.92035 10.8524L1.99277 11.3858ZM4.66431 21.0213C5.08884 22.5496 5.53845 24.167 6.01141 25.8668L7.9382 25.3307C7.46533 23.6312 7.01581 22.0141 6.59137 20.486L4.66431 21.0213ZM7.36017 30.7103C7.78687 32.2414 8.22855 33.825 8.68423 35.4575L10.6106 34.9198C10.155 33.2876 9.71338 31.7042 9.28674 30.1733L7.36017 30.7103ZM10.0349 40.2925C10.4731 41.8598 10.9221 43.4645 11.3811 45.1036L13.307 44.5643C12.8481 42.9254 12.3992 41.321 11.9611 39.754L10.0349 40.2925ZM12.7221 49.8889C13.1682 51.4794 13.6224 53.0977 14.0841 54.7412L16.0096 54.2003C15.548 52.557 15.0938 50.9391 14.6478 49.3488L12.7221 49.8889ZM15.4223 59.5007C15.8721 61.0992 16.328 62.7184 16.7897 64.3562L18.7147 63.8137C18.2531 62.1761 17.7972 60.5572 17.3475 58.959L15.4223 59.5007ZM18.1316 69.1132C18.5832 70.7126 19.0396 72.3274 19.5002 73.9559L21.4247 73.4116C20.9641 71.7834 20.5079 70.1689 20.0564 68.5698L18.1316 69.1132ZM20.8498 78.7231C21.3033 80.3239 21.7605 81.9359 22.2209 83.5575L24.1449 83.0113C23.6846 81.39 23.2275 79.7783 22.774 78.1779L20.8498 78.7231ZM23.5773 88.3305C24.0322 89.9296 24.4897 91.5365 24.9495 93.1497L26.8729 92.6015C26.4132 90.9887 25.9557 89.3821 25.5009 87.7832L23.5773 88.3305ZM26.315 97.9352C26.7714 99.5331 27.2297 101.136 27.6895 102.742L29.6122 102.191C29.1526 100.586 28.6944 98.9834 28.2381 97.3858L26.315 97.9352ZM29.0638 107.537C29.5223 109.134 29.9818 110.734 30.4422 112.334L32.3642 111.781C31.904 110.182 31.4446 108.582 30.9862 106.985L29.0638 107.537ZM31.8245 117.133C32.2857 118.733 32.7473 120.331 33.2089 121.927L35.1301 121.371C34.6687 119.776 34.2072 118.178 33.7462 116.579L31.8245 117.133ZM34.5984 126.724C35.063 128.326 35.5273 129.925 35.9909 131.518L37.9113 130.959C37.4478 129.366 36.9837 127.769 36.5192 126.167L34.5984 126.724ZM37.3871 136.308C37.856 137.914 38.3238 139.514 38.7901 141.106L40.7094 140.543C40.2433 138.952 39.7757 137.353 39.3069 135.748L37.3871 136.308ZM40.1932 145.885C40.6672 147.497 41.1392 149.098 41.6088 150.688L43.5269 150.121C43.0575 148.532 42.5857 146.932 42.1119 145.321L40.1932 145.885ZM43.0206 155.456C43.5004 157.073 43.9773 158.676 44.4507 160.263L46.3672 159.692C45.8941 158.105 45.4175 156.503 44.938 154.887L43.0206 155.456ZM45.8749 165.025C46.3611 166.646 46.8431 168.248 47.3203 169.829L49.235 169.251C48.7581 167.671 48.2765 166.07 47.7906 164.45L45.8749 165.025ZM48.7638 174.594C49.2565 176.214 49.7434 177.809 50.2238 179.377L52.1359 178.79C51.656 177.225 51.1696 175.631 50.6773 174.012L48.7638 174.594ZM51.6971 184.161C52.1955 185.771 52.6857 187.347 53.1671 188.886L55.0759 188.289C54.5951 186.752 54.1055 185.178 53.6078 183.57L51.6971 184.161ZM54.6857 193.707C55.2029 195.337 55.7081 196.917 56.2002 198.443L58.1036 197.829C57.6126 196.306 57.1084 194.73 56.5921 193.102L54.6857 193.707ZM57.7354 203.152C58.2911 204.838 58.8264 206.439 59.3395 207.949L61.2331 207.305C60.7222 205.802 60.1889 204.207 59.6349 202.526L57.7354 203.152ZM60.988 212.698C61.6111 214.449 62.1909 216.022 62.7227 217.398L64.5883 216.678C64.0646 215.322 63.4911 213.767 62.8723 212.027L60.988 212.698ZM64.7094 222.073C65.0261 222.713 65.3273 223.247 65.6102 223.636C65.7502 223.828 65.912 224.021 66.0968 224.176C66.2624 224.315 66.575 224.532 66.9993 224.532V222.532C67.1413 222.532 67.2462 222.57 67.3023 222.596C67.331 222.61 67.3513 222.622 67.3631 222.63C67.3691 222.634 67.3736 222.637 67.3764 222.639L67.3786 222.641C67.3766 222.639 67.3733 222.636 67.3686 222.631L67.3596 222.622L67.3486 222.61L67.3354 222.596C67.3202 222.578 67.3028 222.558 67.2833 222.533C67.2661 222.511 67.2473 222.486 67.2268 222.458C67.0435 222.207 66.8011 221.79 66.5015 221.186L64.7094 222.073ZM254.537 27.3747L252.426 28.7219L251.35 27.0359L253.461 25.6887L254.537 27.3747ZM248.204 31.4163L243.981 34.1108L242.905 32.4248L247.128 29.7304L248.204 31.4163ZM239.759 36.8052L235.537 39.4997L234.461 37.8137L238.683 35.1193L239.759 36.8052ZM231.315 42.1941L227.092 44.8886L226.016 43.2026L230.239 40.5082L231.315 42.1941ZM222.87 47.583L218.648 50.2774L217.572 48.5915L221.794 45.8971L222.87 47.583ZM214.426 52.9719L210.204 55.6663L209.128 53.9804L213.35 51.2859L214.426 52.9719ZM205.981 58.3608L201.759 61.0552L200.683 59.3693L204.905 56.6748L205.981 58.3608ZM197.537 63.7497L193.315 66.4441L192.239 64.7582L196.461 62.0637L197.537 63.7497ZM189.092 69.1386L184.87 71.833L183.794 70.1471L188.016 67.4526L189.092 69.1386ZM180.648 74.5275L178.537 75.8747L177.461 74.1887L179.572 72.8415L180.648 74.5275ZM284.531 29.7839L285.164 32.2104L287.099 31.706L286.467 29.2795L284.531 29.7839ZM286.428 37.0633L287.693 41.9163L289.628 41.4119L288.364 36.559L286.428 37.0633ZM288.958 46.7692L290.222 51.6221L292.158 51.1178L290.893 46.2648L288.958 46.7692ZM291.487 56.4751L292.752 61.328L294.687 60.8237L293.422 55.9707L291.487 56.4751ZM294.017 66.181L295.281 71.0339L297.217 70.5295L295.952 65.6766L294.017 66.181ZM296.546 75.8868L297.811 80.7398L299.746 80.2354L298.481 75.3825L296.546 75.8868ZM299.075 85.5927L300.34 90.4457L302.275 89.9413L301.011 85.0884L299.075 85.5927ZM301.605 95.2986L302.869 100.152L304.805 99.6472L303.54 94.7942L301.605 95.2986ZM304.134 105.004L305.399 109.857L307.334 109.353L306.07 104.5L304.134 105.004ZM306.664 114.71L307.928 119.563L309.864 119.059L308.599 114.206L306.664 114.71ZM309.193 124.416L310.458 129.269L312.393 128.765L311.128 123.912L309.193 124.416ZM311.722 134.122L312.987 138.975L314.922 138.471L313.658 133.618L311.722 134.122ZM314.252 143.828L315.517 148.681L317.452 148.177L316.187 143.324L314.252 143.828ZM316.781 153.534L318.046 158.387L319.981 157.882L318.717 153.03L316.781 153.534ZM319.311 163.24L320.575 168.093L322.511 167.588L321.246 162.735L319.311 163.24ZM321.84 172.946L323.105 177.799L325.04 177.294L323.775 172.441L321.84 172.946ZM324.369 182.652L325.634 187.505L327.57 187L326.305 182.147L324.369 182.652ZM326.899 192.357L327.531 194.784L329.467 194.28L328.834 191.853L326.899 192.357Z" fill="url(#paint0_linear_2038_296)"/>
<defs>
<linearGradient id="paint0_linear_2038_296" x1="461.692" y1="234.389" x2="447.069" y2="-11.6559" gradientUnits="userSpaceOnUse">
<stop stop-color="white"/>
<stop offset="1" stop-color="white" stop-opacity="0.37"/>
</linearGradient>
</defs>
</svg>
