<svg width="60" height="60" viewBox="0 0 60 60" fill="none" xmlns="http://www.w3.org/2000/svg">
<path d="M34.3312 46.0969C39.3562 39.7031 47.8125 27.9469 47.8125 21.2156C47.8125 11.5875 39.825 3.75 30 3.75C20.175 3.75 12.1875 11.5875 12.1875 21.2156C12.1875 27.9469 20.6437 39.7031 25.6688 46.0969C19.425 46.5937 13.9031 48.1968 13.9031 51.0844C13.9031 54.6375 22.2469 56.25 30 56.25C37.7531 56.25 46.0969 54.6375 46.0969 51.0844C46.0969 48.1968 40.575 46.5937 34.3312 46.0969ZM14.0625 21.2156C14.0625 12.6187 21.2156 5.625 30 5.625C38.7844 5.625 45.9375 12.6187 45.9375 21.2156C45.9375 27.7031 36.75 40.05 32.025 45.9656C31.4531 46.6875 30.9468 47.3062 30.5343 47.8125C30.3281 48.0563 30.15 48.2625 30 48.45C29.85 48.2625 29.6718 48.0563 29.4656 47.8125C29.0531 47.3062 28.5468 46.6875 27.975 45.9656C23.25 40.05 14.0625 27.7031 14.0625 21.2156ZM30 54.375C20.8031 54.375 15.7781 52.2 15.7781 51.0844C15.7781 50.0906 19.7531 48.2719 27.0937 47.8781C28.3125 49.3875 29.1468 50.3531 29.2875 50.5218C29.4656 50.7281 29.7281 50.85 30 50.85C30.2719 50.85 30.5343 50.7281 30.7125 50.5218C30.8531 50.3531 31.6875 49.3875 32.9062 47.8781C40.2469 48.2719 44.2219 50.0906 44.2219 51.0844C44.2219 52.2 39.1969 54.375 30 54.375Z" fill="white"/>
<path d="M29.9969 21.0001C32.9313 21.0001 35.3219 18.6095 35.3219 15.6751C35.3219 12.7407 32.9313 10.3501 29.9969 10.3501C27.0625 10.3501 24.6719 12.7407 24.6719 15.6751C24.6719 18.6095 27.0625 21.0001 29.9969 21.0001ZM29.9969 12.2251C31.9 12.2251 33.4469 13.772 33.4469 15.6751C33.4469 17.5782 31.9 19.1251 29.9969 19.1251C28.0938 19.1251 26.5469 17.5782 26.5469 15.6751C26.5469 13.772 28.0938 12.2251 29.9969 12.2251Z" fill="white"/>
<path d="M43.9938 21.2156C43.9938 13.4999 37.7125 7.22803 29.9969 7.22803C22.2813 7.22803 16 13.4999 16 21.2156C16 28.9312 22.2813 35.2124 29.9969 35.2124C37.7125 35.2124 43.9938 28.9312 43.9938 21.2156ZM17.875 21.2156C17.875 14.5312 23.3125 9.10303 29.9969 9.10303C36.6813 9.10303 42.1188 14.5312 42.1188 21.2156C42.1188 25.0687 40.3094 28.5093 37.4969 30.7312L37.4931 30.734C37.3009 27.8527 36.5356 25.7487 35.1544 24.3538C33.9075 23.0949 32.1726 22.4563 29.9964 22.4563C25.4252 22.4563 22.879 25.2168 22.3963 30.6487L22.3938 30.6468C19.6375 28.4249 17.875 25.0218 17.875 21.2156ZM24.2012 31.8644C24.4235 25.2183 27.397 24.3313 29.9964 24.3313C31.6763 24.3313 32.9279 24.7703 33.8223 25.673C35.0107 26.8735 35.6244 28.9851 35.6642 31.9333C33.9777 32.8318 32.0482 33.3374 29.9969 33.3374C27.8969 33.3374 25.9188 32.8031 24.2031 31.8656L24.2012 31.8644Z" fill="white"/>
</svg>
