<svg width="154" height="45" viewBox="0 0 154 45" fill="none" xmlns="http://www.w3.org/2000/svg">
<path opacity="0.4" d="M149.5 15.1032C151.317 16.5506 152.618 18.0682 153.34 19.6379L152.431 20.0557C152.812 20.8841 153 21.7082 153 22.5317C153 23.3553 152.812 24.1794 152.431 25.0078L153.34 25.4256C152.618 26.9953 151.317 28.5129 149.5 29.9603L148.877 29.1781C147.547 30.2374 145.91 31.2713 143.983 32.2675L144.443 33.1558C142.803 34.0036 140.974 34.8172 138.97 35.592L138.609 34.6593C136.877 35.3291 135.009 35.9709 133.017 36.5812L133.309 37.5373C131.483 38.0966 129.556 38.6286 127.536 39.1309L127.295 38.1605C125.438 38.6223 123.501 39.0592 121.491 39.4693L121.691 40.4492C119.789 40.8371 117.823 41.2009 115.797 41.5391L115.633 40.5528C113.719 40.8724 111.751 41.1691 109.734 41.4415L109.868 42.4325C107.928 42.6945 105.943 42.9341 103.919 43.15L103.813 42.1556C101.87 42.3627 99.8908 42.5479 97.8771 42.7103L97.9575 43.707C95.9941 43.8654 93.9989 44.002 91.9751 44.1159L91.9189 43.1175C89.9581 43.228 87.9702 43.317 85.9584 43.3839L85.9917 44.3833C84.0164 44.449 82.0183 44.4933 80.0003 44.5153L79.9894 43.5154C78.9976 43.5263 78.0011 43.5317 77 43.5317C75.9989 43.5317 75.0024 43.5263 74.0106 43.5154L73.9997 44.5153C71.9817 44.4933 69.9836 44.449 68.0084 44.3833L68.0416 43.3839C66.0298 43.317 64.042 43.228 62.0811 43.1175L62.0249 44.1159C60.0011 44.002 58.0059 43.8654 56.0425 43.707L56.1229 42.7103C54.1092 42.5479 52.1295 42.3627 50.1874 42.1556L50.0814 43.15C48.0566 42.9341 46.072 42.6945 44.132 42.4325L44.2658 41.4415C42.2492 41.1691 40.2815 40.8724 38.3673 40.5528L38.2025 41.5391C36.1774 41.2009 34.2112 40.8371 32.3093 40.4492L32.5092 39.4693C30.4987 39.0592 28.5619 38.6223 26.7054 38.1605L26.464 39.131C24.4443 38.6286 22.5171 38.0966 20.6907 37.5373L20.9835 36.5812C18.9905 35.9709 17.1228 35.3291 15.3906 34.6593L15.0299 35.592C13.0265 34.8172 11.1968 34.0036 9.55724 33.1558L10.0166 32.2675C8.09 31.2713 6.45289 30.2374 5.12317 29.1781L4.5001 29.9603C2.68316 28.5129 1.38208 26.9953 0.6602 25.4256L1.56873 25.0078C1.18776 24.1794 1 23.3553 1 22.5317C1 21.7082 1.18776 20.8841 1.56873 20.0557L0.660194 19.6379C1.38207 18.0682 2.68315 16.5506 4.50009 15.1032L5.12317 15.8854C6.45288 14.8261 8.08999 13.7922 10.0166 12.796L9.55723 11.9077C11.1968 11.0599 13.0265 10.2462 15.0299 9.47151L15.3906 10.4042C17.1228 9.73438 18.9905 9.09256 20.9835 8.48232L20.6907 7.52614C22.5171 6.96691 24.4443 6.43492 26.464 5.93253L26.7054 6.90296C28.5619 6.44116 30.4987 6.00423 32.5092 5.59414L32.3093 4.61431C34.2112 4.22637 36.1774 3.86254 38.2025 3.52436L38.3672 4.51071C40.2814 4.19106 42.2492 3.89437 44.2658 3.622L44.132 2.63099C46.072 2.36897 48.0565 2.12942 50.0814 1.91352L50.1874 2.90789C52.1295 2.70082 54.1092 2.51557 56.1229 2.3532L56.0425 1.35644C58.0059 1.19812 60.0011 1.0615 62.0249 0.947535L62.0811 1.94595C64.0419 1.83552 66.0298 1.74644 68.0416 1.67959L68.0083 0.680141C69.9836 0.614503 71.9817 0.570224 73.9997 0.548133L74.0106 1.54807C75.0024 1.53722 75.9989 1.53174 77 1.53174C78.0011 1.53174 78.9976 1.53722 79.9894 1.54807L80.0003 0.548133C82.0183 0.570223 84.0164 0.614503 85.9916 0.680141L85.9584 1.67959C87.9702 1.74644 89.958 1.83552 91.9189 1.94595L91.9751 0.947534C93.9988 1.0615 95.9941 1.19812 97.9575 1.35644L97.8771 2.3532C99.8908 2.51557 101.87 2.70081 103.813 2.90789L103.919 1.91352C105.943 2.12942 107.928 2.36897 109.868 2.63099L109.734 3.62199C111.751 3.89437 113.719 4.19106 115.633 4.5107L115.797 3.52436C117.823 3.86253 119.789 4.22637 121.691 4.61431L121.491 5.59413C123.501 6.00423 125.438 6.44116 127.295 6.90296L127.536 5.93253C129.556 6.43492 131.483 6.96691 133.309 7.52613L133.016 8.48231C135.009 9.09256 136.877 9.73437 138.609 10.4042L138.97 9.4715C140.973 10.2462 142.803 11.0599 144.443 11.9077L143.983 12.7959C145.91 13.7922 147.547 14.8261 148.877 15.8854L149.5 15.1032Z" fill="url(#paint0_linear_2038_233)" stroke="white" stroke-width="2" stroke-dasharray="6 6"/>
<defs>
<linearGradient id="paint0_linear_2038_233" x1="77" y1="15.0917" x2="77" y2="44.5317" gradientUnits="userSpaceOnUse">
<stop stop-color="#BB60A8"/>
<stop offset="1" stop-color="#DA40DD" stop-opacity="0.21"/>
</linearGradient>
</defs>
</svg>
