<svg width="117" height="58" viewBox="0 0 117 58" fill="none" xmlns="http://www.w3.org/2000/svg">
<g filter="url(#filter0_d_2038_245)">
<path d="M15 13.2526C15 11.5549 16.6717 10.1787 18.7339 10.1787H98.2661C100.328 10.1787 102 11.5549 102 13.2526V34.1552C102 35.8529 100.328 37.2291 98.2661 37.2291H18.7339C16.6717 37.2291 15 35.8529 15 34.1552V13.2526Z" fill="white"/>
</g>
<path d="M58.4982 40.8848L55.0159 37.0465L61.9805 37.0465L58.4982 40.8848Z" fill="white"/>
<path d="M86.8628 24.5654H88.632C88.6159 24.1713 88.3586 23.7853 87.7474 23.7853C87.1925 23.7853 86.8869 24.2035 86.8628 24.5654ZM88.7366 25.5947L89.6292 25.8601C89.4282 26.5437 88.8009 27.1147 87.8278 27.1147C86.7422 27.1147 85.7852 26.3346 85.7852 24.9996C85.7852 23.737 86.718 22.9167 87.7313 22.9167C88.9537 22.9167 89.6855 23.6968 89.6855 24.9675C89.6855 25.1203 89.6694 25.2811 89.6694 25.2972H86.8387C86.8628 25.8199 87.3051 26.1979 87.8359 26.1979C88.3345 26.1979 88.6079 25.9486 88.7366 25.5947Z" fill="black"/>
<path d="M81.0078 27.2108L81.9729 26.9534C82.0452 27.3877 82.391 27.7013 82.8977 27.7013C83.5732 27.7013 83.9512 27.3636 83.9512 26.5996V26.3101C83.7904 26.5674 83.4204 26.8167 82.8494 26.8167C81.7959 26.8167 81.0078 26.0045 81.0078 24.8947C81.0078 23.8492 81.7638 22.9646 82.8494 22.9646C83.4767 22.9646 83.8386 23.238 83.9753 23.5034V23.037H85.0047V26.5674C85.0047 27.6531 84.4176 28.6423 82.9299 28.6423C81.8442 28.6423 81.1204 27.9667 81.0078 27.2108ZM83.0344 25.8999C83.5813 25.8999 83.9673 25.5059 83.9673 24.8947C83.9673 24.2835 83.5491 23.8975 83.0344 23.8975C82.5036 23.8975 82.0854 24.2835 82.0854 24.8947C82.0854 25.5139 82.4795 25.8999 83.0344 25.8999Z" fill="black"/>
<path d="M76.7227 25.9164C76.7227 25.2087 77.2454 24.8147 77.9048 24.7182L78.8779 24.5734C79.1031 24.5412 79.1755 24.4286 79.1755 24.2919C79.1755 24.0105 78.9583 23.7772 78.508 23.7772C78.0415 23.7772 77.7842 24.0748 77.752 24.4206L76.8031 24.2196C76.8674 23.6003 77.4384 22.9167 78.4999 22.9167C79.7545 22.9167 80.2209 23.6244 80.2209 24.4206V26.3668C80.2209 26.5759 80.2451 26.8573 80.2692 26.9941H79.2881C79.2639 26.8895 79.2478 26.6724 79.2478 26.5196C79.0468 26.8332 78.6688 27.1066 78.0818 27.1066C77.2373 27.1066 76.7227 26.5357 76.7227 25.9164ZM78.3069 26.3105C78.7573 26.3105 79.1755 26.0933 79.1755 25.3937V25.2168L78.2828 25.3535C78.0094 25.3937 77.7922 25.5465 77.7922 25.8521C77.7922 26.0853 77.9611 26.3105 78.3069 26.3105Z" fill="black"/>
<path d="M75.8469 26.9938H74.7773V21.1714H75.8469V26.9938Z" fill="black"/>
<path d="M73.6282 26.9938H72.5586V21.1714H73.6282V26.9938Z" fill="black"/>
<path d="M71.4131 26.9939H70.3435V23.0372H71.4131V26.9939ZM70.2148 21.7424C70.2148 21.3725 70.5124 21.075 70.8743 21.075C71.2442 21.075 71.5337 21.3725 71.5337 21.7424C71.5337 22.0963 71.2442 22.3938 70.8743 22.3938C70.5124 22.3938 70.2148 22.0963 70.2148 21.7424Z" fill="black"/>
<path d="M67.0341 25.5301L68.5219 21.292H69.6961L67.581 26.9938H66.439L64.332 21.292H65.5464L67.0341 25.5301Z" fill="black"/>
<path d="M59.2102 24.6697V26.9938H58.1406V21.1714H59.2102V23.3669C59.4676 23.0613 59.9018 22.9326 60.2798 22.9326C61.2851 22.9326 61.7515 23.6322 61.7515 24.5008V26.9938H60.6819V24.6857C60.6819 24.2434 60.4648 23.8976 59.9501 23.8976C59.4997 23.8976 59.2343 24.2354 59.2102 24.6697Z" fill="black"/>
<path d="M56.6367 21.855V23.0372H57.4328V23.9861H56.6367V25.6428C56.6367 25.9886 56.7975 26.1012 57.1031 26.1012C57.2318 26.1012 57.3765 26.0851 57.4328 26.069V26.9536C57.3363 26.9938 57.1433 27.0501 56.8297 27.0501C56.0576 27.0501 55.5751 26.5917 55.5751 25.8277V23.9861H54.8594V23.0372H55.0604C55.4786 23.0372 55.6716 22.7637 55.6716 22.4099V21.855H56.6367Z" fill="black"/>
<path d="M54.4048 23.021V24.0986C54.2842 24.0745 54.1796 24.0664 54.0831 24.0664C53.5363 24.0664 53.0618 24.3318 53.0618 25.1843V26.9937H51.9922V23.0371H53.0296V23.6241C53.2709 23.1014 53.8177 23.0049 54.1555 23.0049C54.244 23.0049 54.3244 23.0129 54.4048 23.021Z" fill="black"/>
<path d="M49.0748 26.1416C49.5976 26.1416 50.0801 25.7636 50.0801 25.0157C50.0801 24.2678 49.5976 23.8898 49.0748 23.8898C48.5521 23.8898 48.0696 24.2678 48.0696 25.0157C48.0696 25.7556 48.5521 26.1416 49.0748 26.1416ZM49.0748 22.9167C50.257 22.9167 51.1497 23.7933 51.1497 25.0157C51.1497 26.2301 50.257 27.1147 49.0748 27.1147C47.8927 27.1147 47 26.2301 47 25.0157C47 23.7933 47.8927 22.9167 49.0748 22.9167Z" fill="black"/>
<path d="M46.0998 26.9938H44.9337L42.3442 22.9486V26.9938H41.2344V21.292H42.6176L44.99 25.0637V21.292H46.0998V26.9938Z" fill="black"/>
<g filter="url(#filter1_d_2038_245)">
<path d="M23.7734 19.3038C23.7734 18.7056 24.2584 18.2207 24.8565 18.2207H34.3878C34.986 18.2207 35.4709 18.7056 35.4709 19.3038V28.8351C35.4709 29.4333 34.986 29.9182 34.3878 29.9182H24.8565C24.2584 29.9182 23.7734 29.4333 23.7734 28.8351V19.3038Z" fill="#BB60A8"/>
</g>
<defs>
<filter id="filter0_d_2038_245" x="0" y="0.178711" width="117" height="57.0505" filterUnits="userSpaceOnUse" color-interpolation-filters="sRGB">
<feFlood flood-opacity="0" result="BackgroundImageFix"/>
<feColorMatrix in="SourceAlpha" type="matrix" values="0 0 0 0 0 0 0 0 0 0 0 0 0 0 0 0 0 0 127 0" result="hardAlpha"/>
<feOffset dy="5"/>
<feGaussianBlur stdDeviation="7.5"/>
<feColorMatrix type="matrix" values="0 0 0 0 0.164706 0 0 0 0 0.25098 0 0 0 0 0.34902 0 0 0 0.2 0"/>
<feBlend mode="normal" in2="BackgroundImageFix" result="effect1_dropShadow_2038_245"/>
<feBlend mode="normal" in="SourceGraphic" in2="effect1_dropShadow_2038_245" result="shape"/>
</filter>
<filter id="filter1_d_2038_245" x="19.7734" y="18.2207" width="19.6992" height="19.6975" filterUnits="userSpaceOnUse" color-interpolation-filters="sRGB">
<feFlood flood-opacity="0" result="BackgroundImageFix"/>
<feColorMatrix in="SourceAlpha" type="matrix" values="0 0 0 0 0 0 0 0 0 0 0 0 0 0 0 0 0 0 127 0" result="hardAlpha"/>
<feOffset dy="4"/>
<feGaussianBlur stdDeviation="2"/>
<feComposite in2="hardAlpha" operator="out"/>
<feColorMatrix type="matrix" values="0 0 0 0 0 0 0 0 0 0 0 0 0 0 0 0 0 0 0.25 0"/>
<feBlend mode="normal" in2="BackgroundImageFix" result="effect1_dropShadow_2038_245"/>
<feBlend mode="normal" in="SourceGraphic" in2="effect1_dropShadow_2038_245" result="shape"/>
</filter>
</defs>
</svg>
