<svg width="88" height="40" viewBox="0 0 88 40" fill="none" xmlns="http://www.w3.org/2000/svg">
<path opacity="0.6" d="M83.7205 11.6325C85.4808 13.2646 86.7441 15.0222 87.4234 16.8667L86.485 17.2123C86.8259 18.138 87 19.0785 87 20.0317C87 20.985 86.8259 21.9255 86.485 22.8512L87.4234 23.1968C86.7441 25.0413 85.4808 26.7989 83.7205 28.431L83.0406 27.6977C81.6722 28.9664 79.9707 30.1712 77.9711 31.2856L78.4579 32.1591C76.6987 33.1395 74.7308 34.0432 72.5842 34.8569L72.2297 33.9219C70.3462 34.6358 68.3178 35.2809 66.1651 35.847L66.4194 36.8141C64.4107 37.3423 62.2989 37.8017 60.1007 38.1849L59.929 37.1998C57.889 37.5554 55.7723 37.8449 53.5925 38.0621L53.6916 39.0572C51.593 39.2662 49.4377 39.4088 47.2374 39.4798L47.2052 38.4803C46.147 38.5144 45.0781 38.5317 44 38.5317C42.9219 38.5317 41.853 38.5144 40.7948 38.4803L40.7626 39.4798C38.5623 39.4088 36.407 39.2662 34.3084 39.0572L34.4075 38.0621C32.2277 37.8449 30.111 37.5554 28.071 37.1998L27.8993 38.1849C25.7011 37.8017 23.5893 37.3423 21.5806 36.8141L21.8349 35.847C19.6822 35.2809 17.6538 34.6358 15.7703 33.9219L15.4158 34.8569C13.2692 34.0432 11.3013 33.1395 9.54206 32.1591L10.0289 31.2856C8.02933 30.1712 6.32776 28.9664 4.95942 27.6977L4.27952 28.431C2.51919 26.7989 1.25594 25.0413 0.576627 23.1968L1.51501 22.8512C1.1741 21.9255 1 20.985 1 20.0317C1 19.0785 1.1741 18.138 1.51501 17.2123L0.576627 16.8667C1.25594 15.0222 2.51919 13.2646 4.27952 11.6325L4.95942 12.3658C6.32776 11.0971 8.02933 9.89231 10.0289 8.77791L9.54206 7.90441C11.3013 6.92393 13.2692 6.02025 15.4158 5.20654L15.7703 6.14162C17.6538 5.42765 19.6822 4.78257 21.8349 4.21652L21.5805 3.2494C23.5893 2.72119 25.7011 2.2618 27.8993 1.87857L28.071 2.86371C30.111 2.50806 32.2277 2.21855 34.4075 2.00139L34.3084 1.00632C36.407 0.797247 38.5623 0.654632 40.7626 0.58372L40.7948 1.5832C41.853 1.54909 42.9219 1.53174 44 1.53174C45.0781 1.53174 46.147 1.54909 47.2052 1.5832L47.2374 0.58372C49.4376 0.654632 51.593 0.797247 53.6916 1.00632L53.5925 2.00139C55.7723 2.21855 57.889 2.50806 59.929 2.86371L60.1007 1.87857C62.2989 2.2618 64.4107 2.72119 66.4194 3.2494L66.1651 4.21652C68.3178 4.78257 70.3462 5.42765 72.2297 6.14162L72.5842 5.20654C74.7308 6.02025 76.6987 6.92393 78.4579 7.90441L77.9711 8.77791C79.9707 9.89231 81.6722 11.0971 83.0406 12.3658L83.7205 11.6325Z" fill="url(#paint0_linear_2038_234)" stroke="white" stroke-width="2" stroke-dasharray="6 6"/>
<defs>
<linearGradient id="paint0_linear_2038_234" x1="44" y1="13.4372" x2="44" y2="39.5317" gradientUnits="userSpaceOnUse">
<stop stop-color="#EB5757"/>
<stop offset="1" stop-color="#8392B5"/>
</linearGradient>
</defs>
</svg>
