<svg width="62" height="65" viewBox="0 0 62 65" fill="none" xmlns="http://www.w3.org/2000/svg">
<g filter="url(#filter0_d_2038_264)">
<path d="M15 13.8045C15 11.997 15.6149 10.5317 16.3734 10.5317H45.6266C46.3851 10.5317 47 11.997 47 13.8045V36.059C47 37.8665 46.3851 39.3317 45.6266 39.3317H35.8L31 44.1317L26.52 39.3317H16.3734C15.6149 39.3317 15 37.8665 15 36.059V13.8045Z" fill="white"/>
</g>
<g filter="url(#filter1_d_2038_264)">
<path d="M22.6797 17.3111C22.6797 16.3947 23.4226 15.6519 24.3389 15.6519H38.9404C39.8568 15.6519 40.5997 16.3947 40.5997 17.3111V31.9126C40.5997 32.829 39.8568 33.5719 38.9404 33.5719H24.3389C23.4226 33.5719 22.6797 32.829 22.6797 31.9126V17.3111Z" fill="#E76C6C"/>
</g>
<defs>
<filter id="filter0_d_2038_264" x="0" y="0.531738" width="62" height="63.6001" filterUnits="userSpaceOnUse" color-interpolation-filters="sRGB">
<feFlood flood-opacity="0" result="BackgroundImageFix"/>
<feColorMatrix in="SourceAlpha" type="matrix" values="0 0 0 0 0 0 0 0 0 0 0 0 0 0 0 0 0 0 127 0" result="hardAlpha"/>
<feOffset dy="5"/>
<feGaussianBlur stdDeviation="7.5"/>
<feColorMatrix type="matrix" values="0 0 0 0 0.164706 0 0 0 0 0.25098 0 0 0 0 0.34902 0 0 0 0.2 0"/>
<feBlend mode="normal" in2="BackgroundImageFix" result="effect1_dropShadow_2038_264"/>
<feBlend mode="normal" in="SourceGraphic" in2="effect1_dropShadow_2038_264" result="shape"/>
</filter>
<filter id="filter1_d_2038_264" x="18.6797" y="15.6519" width="25.9219" height="25.9199" filterUnits="userSpaceOnUse" color-interpolation-filters="sRGB">
<feFlood flood-opacity="0" result="BackgroundImageFix"/>
<feColorMatrix in="SourceAlpha" type="matrix" values="0 0 0 0 0 0 0 0 0 0 0 0 0 0 0 0 0 0 127 0" result="hardAlpha"/>
<feOffset dy="4"/>
<feGaussianBlur stdDeviation="2"/>
<feComposite in2="hardAlpha" operator="out"/>
<feColorMatrix type="matrix" values="0 0 0 0 0 0 0 0 0 0 0 0 0 0 0 0 0 0 0.25 0"/>
<feBlend mode="normal" in2="BackgroundImageFix" result="effect1_dropShadow_2038_264"/>
<feBlend mode="normal" in="SourceGraphic" in2="effect1_dropShadow_2038_264" result="shape"/>
</filter>
</defs>
</svg>
