<svg width="147" height="51" viewBox="0 0 147 51" fill="none" xmlns="http://www.w3.org/2000/svg">
<path fill-rule="evenodd" clip-rule="evenodd" d="M6.65381 0.687988C3.1516 0.687988 0.3125 2.82441 0.3125 5.45983V37.9083C0.3125 40.5437 3.1516 42.6802 6.65381 42.6802H60.8969L68.183 50.4925L75.4691 42.6802H140.456C143.958 42.6802 146.797 40.5437 146.797 37.9083V5.45983C146.797 2.82441 143.958 0.687988 140.456 0.687988H6.65381Z" fill="white"/>
<path d="M53.6667 17.2076L51.9148 17.7597C51.8159 17.193 51.3638 16.3068 50.0922 16.3068C49.1457 16.3068 48.524 16.9315 48.524 17.6144C48.524 18.181 48.8772 18.6314 49.6119 18.7767L51.0106 19.0528C52.8331 19.416 53.8079 20.6364 53.8079 22.0893C53.8079 23.673 52.5223 25.2712 50.1911 25.2712C47.5351 25.2712 46.3624 23.5132 46.207 22.0458L48.0154 21.5518C48.1002 22.5688 48.7925 23.4841 50.2053 23.4841C51.2508 23.4841 51.83 22.9466 51.83 22.2201C51.83 21.6244 51.392 21.1595 50.615 20.9997L49.2163 20.7091C47.6198 20.3749 46.5885 19.3143 46.5885 17.7597C46.5885 15.929 48.185 14.5342 50.0781 14.5342C52.5081 14.5342 53.4406 16.0452 53.6667 17.2076Z" fill="#010101"/>
<path d="M58.3799 23.5132C59.2982 23.5132 60.1459 22.8303 60.1459 21.4791C60.1459 20.1279 59.2982 19.445 58.3799 19.445C57.4616 19.445 56.6139 20.1279 56.6139 21.4791C56.6139 22.8158 57.4616 23.5132 58.3799 23.5132ZM58.3799 17.687C60.4567 17.687 62.0249 19.2707 62.0249 21.4791C62.0249 23.673 60.4567 25.2712 58.3799 25.2712C56.3031 25.2712 54.7349 23.673 54.7349 21.4791C54.7349 19.2707 56.3031 17.687 58.3799 17.687Z" fill="#010101"/>
<path d="M68.0298 25.0533C68.0016 24.908 67.9733 24.5738 67.9733 24.2832C67.5918 24.9516 66.7865 25.2422 66.0519 25.2422C64.3706 25.2422 63.4099 23.9781 63.4099 22.4235V17.905H65.289V22.0312C65.289 22.8303 65.6846 23.4696 66.5605 23.4696C67.3941 23.4696 67.8744 22.8884 67.8744 22.0603V17.905H69.7534V23.7602C69.7534 24.3123 69.7958 24.8063 69.8241 25.0533H68.0298Z" fill="#010101"/>
<path d="M74.0757 15.7692V17.905H75.4744V19.6194H74.0757V22.6124C74.0757 23.2371 74.3583 23.4405 74.8952 23.4405C75.1212 23.4405 75.3755 23.4115 75.4744 23.3824V24.9806C75.3049 25.0533 74.9658 25.155 74.4148 25.155C73.0585 25.155 72.2108 24.3268 72.2108 22.9466V19.6194H70.9534V17.905H71.3066C72.0413 17.905 72.3804 17.411 72.3804 16.7717V15.7692H74.0757Z" fill="#010101"/>
<path d="M78.6047 20.8544V25.0533H76.7256V14.5342H78.6047V18.5007C79.0568 17.9485 79.8197 17.7161 80.4837 17.7161C82.2497 17.7161 83.0691 18.9801 83.0691 20.5493V25.0533H81.1901V20.8834C81.1901 20.0843 80.8086 19.4596 79.9045 19.4596C79.1133 19.4596 78.6471 20.0698 78.6047 20.8544Z" fill="#010101"/>
<path d="M92.3521 22.409L94.9657 14.7521H97.0284L93.3128 25.0533H91.3066L87.605 14.7521H89.7384L92.3521 22.409Z" fill="#010101"/>
<path d="M100.045 25.0533H98.1661V17.905H100.045V25.0533ZM97.94 15.5658C97.94 14.8974 98.4628 14.3599 99.0985 14.3599C99.7484 14.3599 100.257 14.8974 100.257 15.5658C100.257 16.2051 99.7484 16.7426 99.0985 16.7426C98.4628 16.7426 97.94 16.2051 97.94 15.5658Z" fill="#010101"/>
<path d="M103.936 25.0533H102.057V14.5342H103.936V25.0533Z" fill="#010101"/>
<path d="M107.827 25.0533H105.948V14.5342H107.827V25.0533Z" fill="#010101"/>
<path d="M109.373 23.1064C109.373 21.8278 110.291 21.1159 111.45 20.9415L113.159 20.68C113.555 20.6219 113.682 20.4185 113.682 20.1715C113.682 19.663 113.301 19.2416 112.509 19.2416C111.69 19.2416 111.238 19.7792 111.181 20.404L109.514 20.0407C109.627 18.922 110.63 17.687 112.495 17.687C114.699 17.687 115.519 18.9656 115.519 20.404V23.92C115.519 24.2978 115.561 24.8063 115.604 25.0533H113.88C113.838 24.8644 113.809 24.4721 113.809 24.1961C113.456 24.7627 112.792 25.2567 111.761 25.2567C110.277 25.2567 109.373 24.2251 109.373 23.1064ZM112.156 23.8183C112.947 23.8183 113.682 23.426 113.682 22.162V21.8423L112.114 22.0893C111.634 22.162 111.252 22.438 111.252 22.9901C111.252 23.4115 111.549 23.8183 112.156 23.8183Z" fill="#010101"/>
<path d="M116.891 25.4456L118.586 24.9806C118.713 25.7652 119.321 26.3318 120.211 26.3318C121.398 26.3318 122.062 25.7216 122.062 24.3413V23.8183C121.779 24.2832 121.129 24.7336 120.126 24.7336C118.275 24.7336 116.891 23.2662 116.891 21.2612C116.891 19.3724 118.219 17.7742 120.126 17.7742C121.228 17.7742 121.864 18.2682 122.104 18.7476V17.905H123.912V24.2832C123.912 26.2447 122.881 28.0317 120.267 28.0317C118.36 28.0317 117.089 26.8113 116.891 25.4456ZM120.451 23.0773C121.412 23.0773 122.09 22.3654 122.09 21.2612C122.09 20.157 121.355 19.4596 120.451 19.4596C119.519 19.4596 118.784 20.157 118.784 21.2612C118.784 22.3799 119.476 23.0773 120.451 23.0773Z" fill="#010101"/>
<path d="M127.186 20.6655H130.294C130.265 19.9536 129.813 19.2562 128.74 19.2562C127.765 19.2562 127.228 20.0117 127.186 20.6655ZM130.477 22.5252L132.046 23.0047C131.692 24.2396 130.59 25.2712 128.881 25.2712C126.974 25.2712 125.292 23.8619 125.292 21.4501C125.292 19.169 126.931 17.687 128.711 17.687C130.859 17.687 132.145 19.0963 132.145 21.3919C132.145 21.668 132.116 21.9586 132.116 21.9876H127.143C127.186 22.932 127.963 23.6149 128.895 23.6149C129.771 23.6149 130.251 23.1645 130.477 22.5252Z" fill="#010101"/>
<g filter="url(#filter0_d_2041_458)">
<path d="M16.9102 11.3759C16.9102 10.3272 17.7198 9.47705 18.7186 9.47705H34.633C35.6317 9.47705 36.4414 10.3272 36.4414 11.3759V28.086C36.4414 29.1347 35.6317 29.9849 34.633 29.9849H18.7186C17.7198 29.9849 16.9102 29.1347 16.9102 28.086V11.3759Z" fill="#0DC39F"/>
</g>
<defs>
<filter id="filter0_d_2041_458" x="12.9102" y="9.47705" width="27.5312" height="28.5078" filterUnits="userSpaceOnUse" color-interpolation-filters="sRGB">
<feFlood flood-opacity="0" result="BackgroundImageFix"/>
<feColorMatrix in="SourceAlpha" type="matrix" values="0 0 0 0 0 0 0 0 0 0 0 0 0 0 0 0 0 0 127 0" result="hardAlpha"/>
<feOffset dy="4"/>
<feGaussianBlur stdDeviation="2"/>
<feComposite in2="hardAlpha" operator="out"/>
<feColorMatrix type="matrix" values="0 0 0 0 0 0 0 0 0 0 0 0 0 0 0 0 0 0 0.25 0"/>
<feBlend mode="normal" in2="BackgroundImageFix" result="effect1_dropShadow_2041_458"/>
<feBlend mode="normal" in="SourceGraphic" in2="effect1_dropShadow_2041_458" result="shape"/>
</filter>
</defs>
</svg>
