<svg width="64" height="64" viewBox="0 0 64 64" fill="none" xmlns="http://www.w3.org/2000/svg">
<path d="M57 22H55.274C56.1296 21.2519 56.8155 20.3295 57.2857 19.2947C57.7558 18.2599 57.9994 17.1366 58 16C58 11.589 54.411 8 50 8C45.589 8 42 11.589 42 16C42.0006 17.1366 42.2442 18.2599 42.7143 19.2947C43.1845 20.3295 43.8704 21.2519 44.726 22H43C39.14 22 36 25.141 36 29V34H28V29C28 25.141 24.86 22 21 22H19.274C20.1296 21.2519 20.8155 20.3295 21.2857 19.2947C21.7558 18.2599 21.9994 17.1366 22 16C22 11.589 18.411 8 14 8C9.589 8 6 11.589 6 16C6.00064 17.1366 6.24419 18.2599 6.71434 19.2947C7.18448 20.3295 7.87035 21.2519 8.726 22H7C3.14 22 0 25.141 0 29V43C0 43.2652 0.105357 43.5196 0.292893 43.7071C0.48043 43.8946 0.734784 44 1 44H6V61C6 61.2652 6.10536 61.5196 6.29289 61.7071C6.48043 61.8946 6.73478 62 7 62H21C21.2652 62 21.5196 61.8946 21.7071 61.7071C21.8946 61.5196 22 61.2652 22 61V40.974C22.8604 41.6358 23.9145 41.9963 25 42H39C40.13 42 41.162 41.609 42 40.974V61C42 61.2652 42.1054 61.5196 42.2929 61.7071C42.4804 61.8946 42.7348 62 43 62H57C57.2652 62 57.5196 61.8946 57.7071 61.7071C57.8946 61.5196 58 61.2652 58 61V44H63C63.2652 44 63.5196 43.8946 63.7071 43.7071C63.8946 43.5196 64 43.2652 64 43V29C64 25.141 60.86 22 57 22ZM44 16C44 12.691 46.691 10 50 10C53.309 10 56 12.691 56 16C56 19.309 53.309 22 50 22C46.691 22 44 19.309 44 16ZM8 16C8 12.691 10.691 10 14 10C17.309 10 20 12.691 20 16C20 19.309 17.309 22 14 22C10.691 22 8 19.309 8 16ZM22 37V29H20V60H15V42H13V60H8V29H6V42H2V29C2 26.243 4.243 24 7 24H21C23.757 24 26 26.243 26 29V35C26 35.2652 26.1054 35.5196 26.2929 35.7071C26.4804 35.8946 26.7348 36 27 36H31V40H25C23.346 40 22 38.654 22 37ZM62 42H58V29H56V60H51V42H49V60H44V29H42V37C42 38.654 40.654 40 39 40H33V36H37C37.2652 36 37.5196 35.8946 37.7071 35.7071C37.8946 35.5196 38 35.2652 38 35V29C38 26.243 40.243 24 43 24H57C59.757 24 62 26.243 62 29V42Z" fill="white"/>
<path d="M42.6986 8.70697L45.7056 5.69997C45.7985 5.60718 45.8723 5.49698 45.9226 5.37566C45.9729 5.25435 45.9988 5.1243 45.9988 4.99297C45.9988 4.86164 45.9729 4.73159 45.9226 4.61028C45.8723 4.48896 45.7985 4.37876 45.7056 4.28597L42.7126 1.29297L41.2986 2.70697L42.5916 3.99997H34.9916C34.8602 3.99983 34.7302 4.02565 34.6088 4.07593C34.4875 4.12621 34.3773 4.19997 34.2846 4.29297L31.9916 6.58597L29.6986 4.29297C29.6058 4.19997 29.4956 4.12621 29.3743 4.07593C29.253 4.02565 29.1229 3.99983 28.9916 3.99997H21.3916L22.6846 2.70697L21.2706 1.29297L18.2776 4.28597C18.1846 4.37876 18.1109 4.48896 18.0606 4.61028C18.0103 4.73159 17.9844 4.86164 17.9844 4.99297C17.9844 5.1243 18.0103 5.25435 18.0606 5.37566C18.1109 5.49698 18.1846 5.60718 18.2776 5.69997L21.2846 8.70697L22.6986 7.29297L21.4056 5.99997H28.5776L30.5776 7.99997L28.5776 9.99997H23.9986V12H28.9916C29.2566 12 29.5116 11.895 29.6986 11.707L31.9916 9.41397L34.2846 11.707C34.4721 11.8945 34.7264 11.9999 34.9916 12H39.9986V9.99997H35.4056L33.4056 7.99997L35.4056 5.99997H42.5776L41.2846 7.29297L42.6986 8.70697Z" fill="white"/>
</svg>
