<svg width="126" height="59" viewBox="0 0 126 59" fill="none" xmlns="http://www.w3.org/2000/svg">
<path opacity="0.8" d="M123.094 20.8003C124.335 22.611 125.2 24.4984 125.647 26.4432L125.16 26.5552C125.385 27.5341 125.5 28.527 125.5 29.5317C125.5 30.5365 125.385 31.5294 125.16 32.5083L125.647 32.6203C125.2 34.5651 124.335 36.4525 123.094 38.2632L122.682 37.9806C121.61 39.5455 120.245 41.059 118.612 42.5062L118.944 42.8804C117.479 44.1786 115.807 45.4194 113.948 46.5934L113.681 46.1707C112.028 47.2153 110.222 48.2081 108.278 49.1419L108.494 49.5926C106.694 50.4577 104.778 51.2715 102.758 52.0288L102.582 51.5606C100.713 52.2615 98.753 52.914 96.7114 53.5139L96.8524 53.9937C94.9115 54.564 92.8982 55.0867 90.8203 55.5582L90.7096 55.0706C88.7372 55.5182 86.7059 55.9196 84.6223 56.2716L84.7056 56.7646C82.6965 57.104 80.6395 57.3976 78.5404 57.6428L78.4824 57.1461C76.4606 57.3823 74.3994 57.5732 72.3042 57.7165L72.3383 58.2154C70.2943 58.3552 68.2182 58.4498 66.1151 58.4969L66.1039 57.997C65.0756 58.0201 64.0408 58.0317 63 58.0317C61.9592 58.0317 60.9244 58.0201 59.8961 57.997L59.8849 58.4969C57.7818 58.4498 55.7057 58.3552 53.6617 58.2154L53.6958 57.7165C51.6006 57.5732 49.5394 57.3823 47.5176 57.1461L47.4596 57.6428C45.3605 57.3976 43.3035 57.104 41.2944 56.7646L41.3777 56.2716C39.2941 55.9196 37.2627 55.5182 35.2904 55.0706L35.1797 55.5582C33.1018 55.0867 31.0885 54.564 29.1476 53.9937L29.2885 53.5139C27.247 52.914 25.287 52.2615 23.4175 51.5606L23.242 52.0288C21.2221 51.2715 19.3062 50.4577 17.5055 49.5926L17.722 49.1419C15.7782 48.2081 13.9725 47.2153 12.3186 46.1707L12.0516 46.5934C10.1929 45.4194 8.52102 44.1786 7.05616 42.8804L7.38778 42.5062C5.75475 41.0589 4.39018 39.5455 3.31816 37.9806L2.90566 38.2632C1.66524 36.4525 0.800365 34.5651 0.353087 32.6203L0.840366 32.5083C0.615231 31.5294 0.5 30.5365 0.5 29.5317C0.5 28.527 0.615231 27.5341 0.840366 26.5552L0.353087 26.4432C0.800365 24.4984 1.66524 22.611 2.90567 20.8003L3.31816 21.0829C4.39019 19.518 5.75475 18.0045 7.38778 16.5573L7.05616 16.1831C8.52102 14.8849 10.1929 13.6441 12.0516 12.47L12.3186 12.8928C13.9725 11.8481 15.7783 10.8553 17.722 9.92155L17.5055 9.47086C19.3062 8.60581 21.2221 7.79202 23.242 7.03472L23.4175 7.5029C25.287 6.80201 27.247 6.14944 29.2886 5.54954L29.1476 5.06982C31.0885 4.4995 33.1018 3.97678 35.1797 3.50524L35.2904 3.99284C37.2628 3.54526 39.2941 3.1439 41.3777 2.7919L41.2944 2.29888C43.3035 1.95948 45.3605 1.66584 47.4596 1.42071L47.5176 1.91734C49.5394 1.68122 51.6006 1.49027 53.6958 1.34696L53.6617 0.848127C55.7057 0.708321 57.7818 0.61371 59.8849 0.566571L59.8961 1.06645C60.9244 1.0434 61.9592 1.03174 63 1.03174C64.0408 1.03174 65.0756 1.0434 66.1039 1.06645L66.1151 0.566571C68.2182 0.61371 70.2943 0.708322 72.3383 0.848127L72.3042 1.34696C74.3994 1.49027 76.4606 1.68122 78.4824 1.91734L78.5404 1.42071C80.6395 1.66584 82.6965 1.95948 84.7056 2.29889L84.6223 2.7919C86.7059 3.1439 88.7373 3.54526 90.7096 3.99284L90.8203 3.50524C92.8982 3.97678 94.9115 4.4995 96.8524 5.06982L96.7114 5.54954C98.753 6.14945 100.713 6.80201 102.582 7.5029L102.758 7.03473C104.778 7.79203 106.694 8.60582 108.494 9.47086L108.278 9.92155C110.222 10.8553 112.028 11.8481 113.681 12.8928L113.948 12.47C115.807 13.6441 117.479 14.8849 118.944 16.1831L118.612 16.5573C120.245 18.0045 121.61 19.518 122.682 21.0829L123.094 20.8003Z" fill="url(#paint0_linear_2038_235)" stroke="white" stroke-dasharray="6 6"/>
<defs>
<linearGradient id="paint0_linear_2038_235" x1="63" y1="19.7245" x2="63" y2="58.5317" gradientUnits="userSpaceOnUse">
<stop stop-color="#EBDC57"/>
<stop offset="1" stop-color="#DDCD40" stop-opacity="0.21"/>
</linearGradient>
</defs>
</svg>
