<svg width="279" height="35" viewBox="0 0 279 35" fill="none" xmlns="http://www.w3.org/2000/svg">
<path d="M272.039 23.9762C272.039 22.1762 273.515 20.7002 275.315 20.7002C277.151 20.7002 278.627 22.1762 278.627 23.9762C278.627 25.7762 277.151 27.2522 275.315 27.2522C273.515 27.2522 272.039 25.7762 272.039 23.9762Z" fill="white"/>
<path d="M256.304 16.128H264.224C264.152 14.364 263 12.636 260.264 12.636C257.78 12.636 256.412 14.508 256.304 16.128ZM264.692 20.736L268.688 21.924C267.788 24.984 264.98 27.54 260.624 27.54C255.764 27.54 251.48 24.048 251.48 18.072C251.48 12.42 255.656 8.74805 260.192 8.74805C265.664 8.74805 268.94 12.24 268.94 17.928C268.94 18.612 268.868 19.332 268.868 19.404H256.196C256.304 21.744 258.284 23.436 260.66 23.436C262.892 23.436 264.116 22.32 264.692 20.736Z" fill="white"/>
<path d="M249.62 9.21556V14.0396C249.08 13.9316 248.612 13.8956 248.18 13.8956C245.732 13.8956 243.608 15.0836 243.608 18.8996V26.9996H238.82V9.28756H243.464V11.9156C244.544 9.57555 246.992 9.14355 248.504 9.14355C248.9 9.14355 249.26 9.17955 249.62 9.21556Z" fill="white"/>
<path d="M222.414 16.128H230.334C230.262 14.364 229.11 12.636 226.374 12.636C223.89 12.636 222.522 14.508 222.414 16.128ZM230.802 20.736L234.798 21.924C233.898 24.984 231.09 27.54 226.734 27.54C221.874 27.54 217.59 24.048 217.59 18.072C217.59 12.42 221.766 8.74805 226.302 8.74805C231.774 8.74805 235.05 12.24 235.05 17.928C235.05 18.612 234.978 19.332 234.978 19.404H222.306C222.414 21.744 224.394 23.436 226.77 23.436C229.002 23.436 230.226 22.32 230.802 20.736Z" fill="white"/>
<path d="M202.686 16.5955V26.9995H197.898V0.935547H202.686V10.7635C203.838 9.39555 205.782 8.81955 207.474 8.81955C211.974 8.81955 214.062 11.9515 214.062 15.8395V26.9995H209.274V16.6675C209.274 14.6875 208.302 13.1395 205.998 13.1395C203.982 13.1395 202.794 14.6515 202.686 16.5955Z" fill="white"/>
<path d="M166.266 27.9719L170.586 26.8199C170.91 28.7639 172.458 30.1679 174.726 30.1679C177.75 30.1679 179.442 28.6559 179.442 25.2359V23.9399C178.722 25.0919 177.066 26.2079 174.51 26.2079C169.794 26.2079 166.266 22.5719 166.266 17.6039C166.266 12.9239 169.65 8.96387 174.51 8.96387C177.318 8.96387 178.938 10.1879 179.55 11.3759V9.28787H184.158V25.0919C184.158 29.9519 181.53 34.3799 174.87 34.3799C170.01 34.3799 166.77 31.3559 166.266 27.9719ZM175.338 22.1039C177.786 22.1039 179.514 20.3399 179.514 17.6039C179.514 14.8679 177.642 13.1399 175.338 13.1399C172.962 13.1399 171.09 14.8679 171.09 17.6039C171.09 20.3759 172.854 22.1039 175.338 22.1039Z" fill="white"/>
<path d="M151.288 16.8123V27.0003H146.5V9.28831H151.144V11.4843C152.224 9.64831 154.348 8.82031 156.256 8.82031C160.648 8.82031 162.664 11.9523 162.664 15.8403V27.0003H157.876V16.6683C157.876 14.6883 156.904 13.1403 154.6 13.1403C152.512 13.1403 151.288 14.7603 151.288 16.8123Z" fill="white"/>
<path d="M133.433 23.184C135.773 23.184 137.933 21.492 137.933 18.144C137.933 14.796 135.773 13.104 133.433 13.104C131.093 13.104 128.933 14.796 128.933 18.144C128.933 21.456 131.093 23.184 133.433 23.184ZM133.433 8.74805C138.725 8.74805 142.721 12.672 142.721 18.144C142.721 23.58 138.725 27.54 133.433 27.54C128.141 27.54 124.145 23.58 124.145 18.144C124.145 12.672 128.141 8.74805 133.433 8.74805Z" fill="white"/>
<path d="M120.35 26.9995H115.562V0.935547H120.35V26.9995Z" fill="white"/>
<path d="M99.156 16.128H107.076C107.004 14.364 105.852 12.636 103.116 12.636C100.632 12.636 99.264 14.508 99.156 16.128ZM107.544 20.736L111.54 21.924C110.64 24.984 107.832 27.54 103.476 27.54C98.616 27.54 94.332 24.048 94.332 18.072C94.332 12.42 98.508 8.74805 103.044 8.74805C108.516 8.74805 111.792 12.24 111.792 17.928C111.792 18.612 111.72 19.332 111.72 19.404H99.048C99.156 21.744 101.136 23.436 103.512 23.436C105.744 23.436 106.968 22.32 107.544 20.736Z" fill="white"/>
<path d="M78.2651 26.9995H73.6211V0.935547H78.3371V11.2315C79.1291 9.97155 81.0731 8.81955 83.7011 8.81955C88.8851 8.81955 91.8731 12.8155 91.8731 18.0715C91.8731 23.4355 88.5611 27.4315 83.5211 27.4315C81.0731 27.4315 79.2011 26.3515 78.2651 24.8395V26.9995ZM87.0851 18.1075C87.0851 14.8675 85.1411 13.1035 82.6931 13.1035C80.2811 13.1035 78.2651 14.8675 78.2651 18.1075C78.2651 21.3115 80.2811 23.1475 82.6931 23.1475C85.1411 23.1475 87.0851 21.3475 87.0851 18.1075Z" fill="white"/>
<path d="M55.2251 27.0001C55.1531 26.6401 55.0811 25.8121 55.0811 25.0921C54.1091 26.7481 52.0571 27.4681 50.1851 27.4681C45.9011 27.4681 43.4531 24.3361 43.4531 20.4841V9.28809H48.2411V19.5121C48.2411 21.4921 49.2491 23.0761 51.4811 23.0761C53.6051 23.0761 54.8291 21.6361 54.8291 19.5841V9.28809H59.6171V23.7961C59.6171 25.1641 59.7251 26.3881 59.7971 27.0001H55.2251Z" fill="white"/>
<path d="M30.6357 23.184C32.9757 23.184 35.1357 21.492 35.1357 18.144C35.1357 14.796 32.9757 13.104 30.6357 13.104C28.2957 13.104 26.1357 14.796 26.1357 18.144C26.1357 21.456 28.2957 23.184 30.6357 23.184ZM30.6357 8.74805C35.9276 8.74805 39.9236 12.672 39.9236 18.144C39.9236 23.58 35.9276 27.54 30.6357 27.54C25.3436 27.54 21.3477 23.58 21.3477 18.144C21.3477 12.672 25.3436 8.74805 30.6357 8.74805Z" fill="white"/>
<path d="M9.33731 16.2716L0.445312 1.47559H6.27731L12.0013 11.5916L17.7253 1.47559H23.3053L14.3053 16.2716V26.9996H9.33731V16.2716Z" fill="white"/>
</svg>
