<svg width="566" height="558" viewBox="0 0 566 558" fill="none" xmlns="http://www.w3.org/2000/svg">
<g opacity="0.7">
<path d="M290.591 217.993C275.93 216.861 262.396 215.728 247.734 214.595" stroke="#C6EAFF" stroke-width="1.4" stroke-miterlimit="10" stroke-dasharray="3 3"/>
<path d="M289.501 299.545C275.967 316.535 262.433 334.658 250.027 351.648" stroke="#C6EAFF" stroke-width="1.4" stroke-miterlimit="10" stroke-dasharray="3 3"/>
<path d="M247.763 214.595C235.358 222.524 221.824 229.32 209.418 237.248" stroke="#C6EAFF" stroke-width="1.4" stroke-miterlimit="10" stroke-dasharray="3 3"/>
<path d="M247.766 214.606C239.871 204.412 231.977 194.218 224.082 184.024" stroke="#C6EAFF" stroke-width="1.4" stroke-miterlimit="10" stroke-dasharray="3 3"/>
<path d="M225.216 184.024C219.577 201.014 215.066 219.136 210.555 237.259" stroke="#C6EAFF" stroke-width="1.4" stroke-miterlimit="10" stroke-dasharray="3 3"/>
<path d="M239.859 172.699C255.649 187.423 273.694 202.148 290.611 216.873" stroke="#C6EAFF" stroke-width="1.4" stroke-miterlimit="10" stroke-dasharray="3 3"/>
<path d="M225.208 184.024C213.93 189.687 201.524 195.351 190.246 202.147" stroke="#C6EAFF" stroke-width="1.4" stroke-miterlimit="10" stroke-dasharray="3 3"/>
<path d="M247.747 214.595C213.913 261.034 181.207 308.606 160.906 357.31" stroke="#C6EAFF" stroke-width="1.4" stroke-miterlimit="10" stroke-dasharray="3 3"/>
<path d="M250.003 351.655C218.424 352.788 189.101 353.921 160.906 356.186" stroke="#C6EAFF" stroke-width="1.4" stroke-miterlimit="10" stroke-dasharray="3 3"/>
<path d="M132.711 312.014C141.733 326.738 150.756 341.463 159.778 356.187" stroke="#C6EAFF" stroke-width="1.4" stroke-miterlimit="10" stroke-dasharray="3 3"/>
<path d="M132.711 312.014C132.711 318.81 133.839 326.738 133.839 333.534" stroke="#C6EAFF" stroke-width="1.4" stroke-miterlimit="10" stroke-dasharray="3 3"/>
<path d="M160.904 357.321C151.882 349.392 143.987 342.596 134.965 334.667" stroke="#C6EAFF" stroke-width="1.4" stroke-miterlimit="10" stroke-dasharray="3 3"/>
<path d="M222.941 404.893C264.67 412.822 305.271 420.75 344.745 429.812" stroke="#C6EAFF" stroke-width="1.4" stroke-miterlimit="10" stroke-dasharray="3 3"/>
<path d="M344.763 429.807C317.696 403.755 284.989 378.837 250.027 352.786" stroke="#C6EAFF" stroke-width="1.4" stroke-miterlimit="10" stroke-dasharray="3 3"/>
<path d="M146.238 373.176C150.75 367.513 155.261 361.849 160.9 357.319" stroke="#C6EAFF" stroke-width="1.4" stroke-miterlimit="10" stroke-dasharray="3 3"/>
<path d="M346.988 194.212C381.95 236.12 415.785 278.029 441.724 323.335" stroke="#C6EAFF" stroke-width="1.4" stroke-miterlimit="10" stroke-dasharray="3 3"/>
<path d="M181.211 140.975C220.684 134.179 260.158 128.516 298.503 123.985" stroke="#C6EAFF" stroke-width="1.4" stroke-miterlimit="10" stroke-dasharray="3 3"/>
<path d="M347.022 449.061C347.022 442.265 345.895 435.469 345.895 428.673" stroke="#C6EAFF" stroke-width="1.4" stroke-miterlimit="10" stroke-dasharray="3 3"/>
<path d="M346.988 449.064C381.95 411.686 415.785 369.778 441.724 323.339" stroke="#C6EAFF" stroke-width="1.4" stroke-miterlimit="10" stroke-dasharray="3 3"/>
<path d="M383.117 126.251C341.388 142.109 291.765 155.701 238.758 172.691" stroke="#C6EAFF" stroke-width="1.4" stroke-miterlimit="10" stroke-dasharray="3 3"/>
<path d="M415.812 301.82C434.985 285.963 451.902 270.105 466.564 251.983" stroke="#C6EAFF" stroke-width="1.4" stroke-miterlimit="10" stroke-dasharray="3 3"/>
<path d="M290.609 471.72C308.654 464.924 327.827 456.995 347 450.199" stroke="#C6EAFF" stroke-width="1.4" stroke-miterlimit="10" stroke-dasharray="3 3"/>
<path d="M155.273 135.311C181.213 147.77 209.408 160.229 239.859 172.688" stroke="#C6EAFF" stroke-width="1.4" stroke-miterlimit="10" stroke-dasharray="3 3"/>
<path d="M438.363 157.964C442.875 167.025 447.386 176.086 451.897 186.28" stroke="#C6EAFF" stroke-width="1.4" stroke-miterlimit="10" stroke-dasharray="3 3"/>
<path d="M298.488 123.985C346.984 135.311 394.352 146.638 438.336 157.965" stroke="#C6EAFF" stroke-width="1.4" stroke-miterlimit="10" stroke-dasharray="3 3"/>
<path d="M386.473 105.867C403.39 122.857 421.435 139.846 438.352 157.969" stroke="#C6EAFF" stroke-width="1.4" stroke-miterlimit="10" stroke-dasharray="3 3"/>
<path d="M346.988 194.216C349.244 154.573 349.244 118.328 349.244 85.4805" stroke="#C6EAFF" stroke-width="1.4" stroke-miterlimit="10" stroke-dasharray="3 3"/>
<path d="M349.246 86.6094C337.968 93.4053 326.69 101.334 313.156 108.13" stroke="#C6EAFF" stroke-width="1.4" stroke-miterlimit="10" stroke-dasharray="3 3"/>
<path d="M325.578 484.174C333.473 472.847 340.24 461.521 347.007 449.062" stroke="#C6EAFF" stroke-width="1.4" stroke-miterlimit="10" stroke-dasharray="3 3"/>
<path d="M298.507 123.985C289.484 105.863 281.589 88.8729 277.078 73.0156" stroke="#C6EAFF" stroke-width="1.4" stroke-miterlimit="10" stroke-dasharray="3 3"/>
<path d="M277.078 73.0156C300.762 77.5463 325.574 82.0769 349.258 86.6076" stroke="#C6EAFF" stroke-width="1.4" stroke-miterlimit="10" stroke-dasharray="3 3"/>
<path d="M346.985 449.062C314.278 464.919 284.955 480.776 259.016 495.501" stroke="#C6EAFF" stroke-width="1.4" stroke-miterlimit="10" stroke-dasharray="3 3"/>
<path d="M467.672 253.112C481.206 283.694 490.228 314.276 494.739 344.858" stroke="#C6EAFF" stroke-width="1.4" stroke-miterlimit="10" stroke-dasharray="3 3"/>
<path d="M160.891 357.319C149.613 392.431 142.846 427.544 146.229 459.258" stroke="#C6EAFF" stroke-width="1.4" stroke-miterlimit="10" stroke-dasharray="3 3"/>
<path d="M495.896 212.332C482.362 203.271 467.701 195.342 453.039 186.281" stroke="#C6EAFF" stroke-width="1.4" stroke-miterlimit="10" stroke-dasharray="3 3"/>
<path d="M438.363 157.964C458.664 174.954 477.837 193.076 494.754 212.332" stroke="#C6EAFF" stroke-width="1.4" stroke-miterlimit="10" stroke-dasharray="3 3"/>
<path d="M146.261 459.254C141.75 458.121 138.367 455.856 133.855 454.723" stroke="#C6EAFF" stroke-width="1.4" stroke-miterlimit="10" stroke-dasharray="3 3"/>
<path d="M516.185 258.775C498.14 282.561 471.073 302.949 441.75 323.337" stroke="#C6EAFF" stroke-width="1.4" stroke-miterlimit="10" stroke-dasharray="3 3"/>
<path d="M473.305 425.279C483.455 400.361 491.35 373.177 494.733 345.993" stroke="#C6EAFF" stroke-width="1.4" stroke-miterlimit="10" stroke-dasharray="3 3"/>
<path d="M473.303 425.279C434.957 435.473 390.973 442.269 346.988 450.197" stroke="#C6EAFF" stroke-width="1.4" stroke-miterlimit="10" stroke-dasharray="3 3"/>
<path d="M467.672 253.11C483.461 224.794 494.739 194.212 496.995 165.896" stroke="#C6EAFF" stroke-width="1.4" stroke-miterlimit="10" stroke-dasharray="3 3"/>
<path d="M380.832 94.5426C388.727 84.3487 395.494 73.0221 398.877 62.8281" stroke="#C6EAFF" stroke-width="1.4" stroke-miterlimit="10" stroke-dasharray="3 3"/>
<path d="M398.866 62.8281C386.46 71.8894 369.543 78.6854 349.242 86.614" stroke="#C6EAFF" stroke-width="1.4" stroke-miterlimit="10" stroke-dasharray="3 3"/>
<path d="M259.016 495.506C275.933 507.965 289.466 518.159 298.489 529.486" stroke="#C6EAFF" stroke-width="1.4" stroke-miterlimit="10" stroke-dasharray="3 3"/>
<path d="M146.264 373.17C116.941 393.558 94.3851 417.344 88.7461 441.13" stroke="#C6EAFF" stroke-width="1.4" stroke-miterlimit="10" stroke-dasharray="3 3"/>
<path d="M172.177 54.8955C132.704 85.4773 97.7415 126.253 72.9297 173.825" stroke="#C6EAFF" stroke-width="1.4" stroke-miterlimit="10" stroke-dasharray="3 3"/>
<path d="M383.078 126.258C415.785 120.595 442.852 113.799 460.897 104.737" stroke="#C6EAFF" stroke-width="1.4" stroke-miterlimit="10" stroke-dasharray="3 3"/>
<path d="M460.918 104.737C474.452 123.993 485.73 144.38 495.88 165.901" stroke="#C6EAFF" stroke-width="1.4" stroke-miterlimit="10" stroke-dasharray="3 3"/>
<path d="M450.738 92.272C454.122 95.67 457.505 100.201 462.016 104.731" stroke="#C6EAFF" stroke-width="1.4" stroke-miterlimit="10" stroke-dasharray="3 3"/>
<path d="M26.6882 251.983C25.5604 279.167 27.816 305.218 33.4551 332.402" stroke="#C6EAFF" stroke-width="1.4" stroke-miterlimit="10" stroke-dasharray="3 3"/>
<path d="M190.221 201.014C156.387 206.677 124.808 213.473 95.4849 222.534C68.4175 230.463 45.8613 239.524 27.8164 251.983" stroke="#C6EAFF" stroke-width="1.4" stroke-miterlimit="10" stroke-dasharray="3 3"/>
<path d="M26.7109 251.983C27.8387 318.81 51.5227 384.504 87.6126 440.005" stroke="#C6EAFF" stroke-width="1.4" stroke-miterlimit="10" stroke-dasharray="3 3"/>
<path d="M74.0566 172.699C54.8838 196.485 37.9667 223.668 27.8164 250.852" stroke="#C6EAFF" stroke-width="1.4" stroke-miterlimit="10" stroke-dasharray="3 3"/>
<path d="M50.3711 168.157C85.3332 153.433 131.573 146.637 181.197 140.974" stroke="#C6EAFF" stroke-width="1.4" stroke-miterlimit="10" stroke-dasharray="3 3"/>
<path d="M204.886 34.5107C193.608 40.174 183.458 46.97 172.18 53.766" stroke="#C6EAFF" stroke-width="1.4" stroke-miterlimit="10" stroke-dasharray="3 3"/>
<path d="M85.3477 111.531C100.009 99.0713 115.798 87.7447 131.588 77.5508" stroke="#C6EAFF" stroke-width="1.4" stroke-miterlimit="10" stroke-dasharray="3 3"/>
<path d="M50.4076 168.163C44.7686 176.091 40.2573 185.152 35.7461 194.214" stroke="#C6EAFF" stroke-width="1.4" stroke-miterlimit="10" stroke-dasharray="3 3"/>
<path d="M250.001 351.655C198.122 412.819 158.649 478.513 178.95 521.554" stroke="#C6EAFF" stroke-width="1.4" stroke-miterlimit="10" stroke-dasharray="3 3"/>
<path d="M155.273 135.317C158.657 88.8779 177.83 46.9695 209.408 23.1836" stroke="#C6EAFF" stroke-width="1.4" stroke-miterlimit="10" stroke-dasharray="3 3"/>
<path d="M44.7305 153.439C45.8583 157.97 48.1139 163.633 50.3695 168.164" stroke="#C6EAFF" stroke-width="1.4" stroke-miterlimit="10" stroke-dasharray="3 3"/>
<path d="M370.703 23.1836C376.342 24.3163 381.981 26.5816 387.62 27.7142" stroke="#C6EAFF" stroke-width="1.4" stroke-miterlimit="10" stroke-dasharray="3 3"/>
<path d="M50.4051 168.163C39.127 176.091 28.9767 185.152 21.082 195.346" stroke="#C6EAFF" stroke-width="1.4" stroke-miterlimit="10" stroke-dasharray="3 3"/>
<path d="M44.766 153.439C35.7435 167.031 27.8489 180.623 21.082 195.348" stroke="#C6EAFF" stroke-width="1.4" stroke-miterlimit="10" stroke-dasharray="3 3"/>
<path d="M92.1019 480.776C85.335 468.316 84.2072 453.592 88.7185 440" stroke="#C6EAFF" stroke-width="1.4" stroke-miterlimit="10" stroke-dasharray="3 3"/>
<path d="M442.863 458.121C474.442 444.529 503.765 428.672 525.193 409.417" stroke="#C6EAFF" stroke-width="1.4" stroke-miterlimit="10" stroke-dasharray="3 3"/>
<path d="M525.182 408.291C544.355 347.128 528.566 275.77 495.859 212.341" stroke="#C6EAFF" stroke-width="1.4" stroke-miterlimit="10" stroke-dasharray="3 3"/>
<path d="M298.489 529.485C289.466 543.077 274.805 553.271 259.016 556.669" stroke="#C6EAFF" stroke-width="1.4" stroke-miterlimit="10" stroke-dasharray="3 3"/>
<path d="M551.131 342.598C545.492 365.251 536.469 387.904 525.191 409.425" stroke="#C6EAFF" stroke-width="1.4" stroke-miterlimit="10" stroke-dasharray="3 3"/>
<path d="M188 27.716C194.767 22.0527 201.534 17.522 209.428 14.124" stroke="#C6EAFF" stroke-width="1.4" stroke-miterlimit="10" stroke-dasharray="3 3"/>
<path d="M208.291 14.124C207.164 16.3893 208.291 19.7873 209.419 23.1853" stroke="#C6EAFF" stroke-width="1.4" stroke-miterlimit="10" stroke-dasharray="3 3"/>
<path d="M159.809 34.5119C175.598 26.5833 192.515 19.7873 209.432 14.124" stroke="#C6EAFF" stroke-width="1.4" stroke-miterlimit="10" stroke-dasharray="3 3"/>
<path d="M208.279 14.124C159.783 33.3792 116.926 67.3591 85.3477 111.533" stroke="#C6EAFF" stroke-width="1.4" stroke-miterlimit="10" stroke-dasharray="3 3"/>
<path d="M483.463 90.012C462.035 80.9507 431.584 71.8894 397.75 62.8281" stroke="#C6EAFF" stroke-width="1.4" stroke-miterlimit="10" stroke-dasharray="3 3"/>
<path d="M351.498 10.7192C362.776 25.4438 358.265 53.7603 349.242 85.4748" stroke="#C6EAFF" stroke-width="1.4" stroke-miterlimit="10" stroke-dasharray="3 3"/>
<path d="M351.531 10.7192C357.17 14.1172 363.937 18.6479 370.704 23.1785" stroke="#C6EAFF" stroke-width="1.4" stroke-miterlimit="10" stroke-dasharray="3 3"/>
<path d="M398.899 62.8216C381.982 40.1684 366.193 23.1785 351.531 10.7192" stroke="#C6EAFF" stroke-width="1.4" stroke-miterlimit="10" stroke-dasharray="3 3"/>
<path d="M525.181 408.289C510.519 440.004 489.091 469.453 462.023 493.239" stroke="#C6EAFF" stroke-width="1.4" stroke-miterlimit="10" stroke-dasharray="3 3"/>
<path d="M270.287 1.65967C249.987 3.92499 229.686 8.45561 208.258 14.1189" stroke="#C6EAFF" stroke-width="1.4" stroke-miterlimit="10" stroke-dasharray="3 3"/>
<path d="M557.899 335.794C555.643 338.06 553.387 340.325 550.004 341.458" stroke="#C6EAFF" stroke-width="1.4" stroke-miterlimit="10" stroke-dasharray="3 3"/>
<path d="M557.902 335.793C556.774 333.528 555.646 331.263 553.391 330.13" stroke="#C6EAFF" stroke-width="1.4" stroke-miterlimit="10" stroke-dasharray="3 3"/>
<path d="M112.399 53.7676C80.8204 79.8188 56.0086 114.931 44.7305 153.442" stroke="#C6EAFF" stroke-width="1.4" stroke-miterlimit="10" stroke-dasharray="3 3"/>
<path d="M525.191 408.289C527.447 411.687 528.575 415.085 528.575 418.483" stroke="#C6EAFF" stroke-width="1.4" stroke-miterlimit="10" stroke-dasharray="3 3"/>
<path d="M26.7065 251.983C8.6616 283.697 0.766957 321.075 7.53381 355.055" stroke="#C6EAFF" stroke-width="1.4" stroke-miterlimit="10" stroke-dasharray="3 3"/>
<path d="M552.25 199.876C559.017 221.397 562.4 244.05 562.4 266.703" stroke="#C6EAFF" stroke-width="1.4" stroke-miterlimit="10" stroke-dasharray="3 3"/>
<path d="M552.25 199.878C543.227 187.419 522.927 177.225 495.859 164.766" stroke="#C6EAFF" stroke-width="1.4" stroke-miterlimit="10" stroke-dasharray="3 3"/>
<path d="M552.253 199.88C546.614 180.625 537.592 161.37 527.441 144.38" stroke="#C6EAFF" stroke-width="1.4" stroke-miterlimit="10" stroke-dasharray="3 3"/>
<path d="M562.412 314.276C560.156 296.153 540.984 276.898 516.172 258.775" stroke="#C6EAFF" stroke-width="1.4" stroke-miterlimit="10" stroke-dasharray="3 3"/>
<path d="M562.401 314.272C570.295 233.853 538.717 150.036 484.582 90.0054" stroke="#C6EAFF" stroke-width="1.4" stroke-miterlimit="10" stroke-dasharray="3 3"/>
<path d="M562.398 314.279C561.27 321.075 560.142 329.003 557.887 335.799" stroke="#C6EAFF" stroke-width="1.4" stroke-miterlimit="10" stroke-dasharray="3 3"/>
<path d="M551.131 367.506C545.492 382.231 536.469 395.823 525.191 408.282" stroke="#C6EAFF" stroke-width="1.4" stroke-miterlimit="10" stroke-dasharray="3 3"/>
<path d="M476.695 75.2822C481.207 79.8129 483.462 85.4762 484.59 90.0068" stroke="#C6EAFF" stroke-width="1.4" stroke-miterlimit="10" stroke-dasharray="3 3"/>
<path d="M476.682 74.1523C490.216 87.7443 498.111 104.734 492.472 118.326C485.705 134.183 465.404 146.643 439.465 157.969" stroke="#C6EAFF" stroke-width="1.4" stroke-miterlimit="10" stroke-dasharray="3 3"/>
<path d="M524.051 427.545C544.351 393.565 557.885 353.922 561.268 314.279" stroke="#C6EAFF" stroke-width="1.4" stroke-miterlimit="10" stroke-dasharray="3 3"/>
<path d="M47.0234 429.803C50.4069 444.527 59.4293 459.252 70.7074 471.711" stroke="#C6EAFF" stroke-width="1.4" stroke-miterlimit="10" stroke-dasharray="3 3"/>
<path d="M474.445 489.842C493.618 471.719 511.663 450.199 525.197 427.545" stroke="#C6EAFF" stroke-width="1.4" stroke-miterlimit="10" stroke-dasharray="3 3"/>
<path d="M474.445 489.834C491.362 473.977 491.362 446.793 474.445 424.14" stroke="#C6EAFF" stroke-width="1.4" stroke-miterlimit="10" stroke-dasharray="3 3"/>
<path d="M562.424 314.278C566.935 281.431 565.808 247.451 556.785 215.736" stroke="#C6EAFF" stroke-width="1.4" stroke-miterlimit="10" stroke-dasharray="3 3"/>
<path d="M85.3402 111.529C54.8894 122.856 30.0776 139.846 25.5664 161.366" stroke="#C6EAFF" stroke-width="1.4" stroke-miterlimit="10" stroke-dasharray="3 3"/>
<path d="M194.736 10.7192C163.158 19.7805 134.962 34.5051 112.406 53.7603" stroke="#C6EAFF" stroke-width="1.4" stroke-miterlimit="10" stroke-dasharray="3 3"/>
<path d="M44.7646 153.439C22.2084 169.297 7.54691 191.95 9.80253 214.603" stroke="#C6EAFF" stroke-width="1.4" stroke-miterlimit="10" stroke-dasharray="3 3"/>
<path d="M30.086 412.819C-0.364863 352.788 -7.13173 281.431 9.7854 215.736" stroke="#C6EAFF" stroke-width="1.4" stroke-miterlimit="10" stroke-dasharray="3 3"/>
<path d="M162.03 27.709C141.729 34.5049 123.684 42.4336 112.406 53.7602" stroke="#C6EAFF" stroke-width="1.4" stroke-miterlimit="10" stroke-dasharray="3 3"/>
<path d="M33.4609 409.417C41.3556 432.07 53.7615 453.59 71.8064 472.846" stroke="#C6EAFF" stroke-width="1.4" stroke-miterlimit="10" stroke-dasharray="3 3"/>
<path d="M34.6128 407.149C32.3572 408.282 30.1016 410.547 30.1016 412.812" stroke="#C6EAFF" stroke-width="1.4" stroke-miterlimit="10" stroke-dasharray="3 3"/>
<path d="M15.4153 344.858C13.1597 344.858 9.77625 343.725 8.64844 343.725" stroke="#C6EAFF" stroke-width="1.4" stroke-miterlimit="10" stroke-dasharray="3 3"/>
<path d="M15.4223 344.854C8.65545 347.119 5.27204 351.65 8.65546 355.048" stroke="#C6EAFF" stroke-width="1.4" stroke-miterlimit="10" stroke-dasharray="3 3"/>
<path d="M476.695 75.2822C494.74 90.0068 508.274 108.129 507.146 126.252" stroke="#C6EAFF" stroke-width="1.4" stroke-miterlimit="10" stroke-dasharray="3 3"/>
<path d="M15.4153 344.861C12.0318 327.871 9.77625 309.749 8.64844 291.626" stroke="#C6EAFF" stroke-width="1.4" stroke-miterlimit="10" stroke-dasharray="3 3"/>
<path d="M7.54688 253.112C7.54688 265.572 7.54688 278.031 8.67469 291.623" stroke="#C6EAFF" stroke-width="1.4" stroke-miterlimit="10" stroke-dasharray="3 3"/>
<path d="M56.0172 128.52C43.6113 137.581 32.3333 148.908 25.5664 160.234" stroke="#C6EAFF" stroke-width="1.4" stroke-miterlimit="10" stroke-dasharray="3 3"/>
<path d="M45.8907 147.776C30.1013 169.297 17.6954 191.95 9.80078 215.736" stroke="#C6EAFF" stroke-width="1.4" stroke-miterlimit="10" stroke-dasharray="3 3"/>
<path d="M9.7823 214.595C8.65449 229.32 9.78231 244.044 13.1657 259.902" stroke="#C6EAFF" stroke-width="1.4" stroke-miterlimit="10" stroke-dasharray="3 3"/>
<path d="M7.54688 253.112C9.80249 255.378 12.0581 257.643 14.3137 259.908" stroke="#C6EAFF" stroke-width="1.4" stroke-miterlimit="10" stroke-dasharray="3 3"/>
<path d="M148.52 46.9642C150.775 40.1683 155.286 33.3723 160.925 27.709" stroke="#C6EAFF" stroke-width="1.4" stroke-miterlimit="10" stroke-dasharray="3 3"/>
<path d="M148.5 46.9668C113.538 68.4873 81.9591 96.8039 56.0195 128.518" stroke="#C6EAFF" stroke-width="1.4" stroke-miterlimit="10" stroke-dasharray="3 3"/>
<path d="M19.9297 341.458C21.0575 364.112 25.5687 387.898 33.4634 408.285" stroke="#C6EAFF" stroke-width="1.4" stroke-miterlimit="10" stroke-dasharray="3 3"/>
<path d="M293.981 1.65967C275.936 3.92499 257.891 10.7209 242.102 20.9149" stroke="#C6EAFF" stroke-width="1.4" stroke-miterlimit="10" stroke-dasharray="3 3"/>
<path d="M226.324 7.32227C227.452 11.8529 233.091 15.2509 240.986 19.7815" stroke="#C6EAFF" stroke-width="1.4" stroke-miterlimit="10" stroke-dasharray="3 3"/>
<path d="M13.1914 259.911C17.7026 239.523 25.5973 218.002 35.7476 198.747" stroke="#C6EAFF" stroke-width="1.4" stroke-miterlimit="10" stroke-dasharray="3 3"/>
<path d="M242.119 19.7891C185.729 41.3096 127.083 74.1568 79.7148 120.596" stroke="#C6EAFF" stroke-width="1.4" stroke-miterlimit="10" stroke-dasharray="3 3"/>
<path d="M26.7081 251.978C13.1744 228.193 7.53533 201.009 16.5578 179.488C25.5803 156.835 49.2642 136.447 78.5873 120.59" stroke="#C6EAFF" stroke-width="1.4" stroke-miterlimit="10" stroke-dasharray="3 3"/>
<path d="M277.064 24.3197C264.658 23.1871 253.38 22.0544 242.102 19.7891" stroke="#C6EAFF" stroke-width="1.4" stroke-miterlimit="10" stroke-dasharray="3 3"/>
<path d="M53.7617 223.662C56.0173 187.417 63.912 152.304 78.5735 120.59" stroke="#C6EAFF" stroke-width="1.4" stroke-miterlimit="10" stroke-dasharray="3 3"/>
<path d="M39.0938 279.169C42.4772 261.046 46.9884 241.791 53.7553 223.668" stroke="#C6EAFF" stroke-width="1.4" stroke-miterlimit="10" stroke-dasharray="3 3"/>
<path d="M224.07 40.1748C201.514 52.6341 177.83 67.3587 155.273 83.2159" stroke="#C6EAFF" stroke-width="1.4" stroke-miterlimit="10" stroke-dasharray="3 3"/>
<path d="M186.839 519.285C165.411 497.764 141.727 472.846 118.043 443.396" stroke="#C6EAFF" stroke-width="1.4" stroke-miterlimit="10" stroke-dasharray="3 3"/>
<path d="M342.5 62.8281C374.079 74.1547 405.657 85.4814 436.108 97.9406" stroke="#C6EAFF" stroke-width="1.4" stroke-miterlimit="10" stroke-dasharray="3 3"/>
<path d="M466.551 123.985C460.912 126.25 454.145 127.383 446.25 128.516" stroke="#C6EAFF" stroke-width="1.4" stroke-miterlimit="10" stroke-dasharray="3 3"/>
<path d="M436.117 97.9351C440.628 108.129 444.012 118.323 447.395 128.517" stroke="#C6EAFF" stroke-width="1.4" stroke-miterlimit="10" stroke-dasharray="3 3"/>
<path d="M102.273 401.485C106.785 416.21 112.424 430.935 119.191 444.526" stroke="#C6EAFF" stroke-width="1.4" stroke-miterlimit="10" stroke-dasharray="3 3"/>
<path d="M102.257 401.485C70.6786 401.485 46.9946 401.485 33.4609 407.149" stroke="#C6EAFF" stroke-width="1.4" stroke-miterlimit="10" stroke-dasharray="3 3"/>
<path d="M75.1901 249.712C67.2954 240.651 59.4008 231.59 53.7617 222.528" stroke="#C6EAFF" stroke-width="1.4" stroke-miterlimit="10" stroke-dasharray="3 3"/>
<path d="M224.084 40.1748C213.933 53.7667 207.166 69.624 201.527 87.7465" stroke="#C6EAFF" stroke-width="1.4" stroke-miterlimit="10" stroke-dasharray="3 3"/>
<path d="M176.723 460.387C178.978 483.04 182.362 503.428 188.001 520.418" stroke="#C6EAFF" stroke-width="1.4" stroke-miterlimit="10" stroke-dasharray="3 3"/>
<path d="M119.191 443.396C137.236 449.06 156.409 454.723 176.71 459.254" stroke="#C6EAFF" stroke-width="1.4" stroke-miterlimit="10" stroke-dasharray="3 3"/>
<path d="M178.948 101.33C172.181 108.126 164.286 114.922 157.52 121.718" stroke="#C6EAFF" stroke-width="1.4" stroke-miterlimit="10" stroke-dasharray="3 3"/>
<path d="M156.415 83.2134C155.287 95.6726 156.415 108.132 158.671 121.724" stroke="#C6EAFF" stroke-width="1.4" stroke-miterlimit="10" stroke-dasharray="3 3"/>
<path d="M238.758 473.98C252.292 503.43 263.57 527.215 264.697 545.338" stroke="#C6EAFF" stroke-width="1.4" stroke-miterlimit="10" stroke-dasharray="3 3"/>
<path d="M441.75 441.131C453.028 412.815 459.795 381.1 463.178 347.121" stroke="#C6EAFF" stroke-width="1.4" stroke-miterlimit="10" stroke-dasharray="3 3"/>
<path d="M453.039 368.647C460.934 356.188 467.701 343.728 473.34 331.269" stroke="#C6EAFF" stroke-width="1.4" stroke-miterlimit="10" stroke-dasharray="3 3"/>
<path d="M242.104 19.7891C238.72 37.9116 256.765 62.8302 281.577 88.8814" stroke="#C6EAFF" stroke-width="1.4" stroke-miterlimit="10" stroke-dasharray="3 3"/>
<path d="M342.476 62.8281C325.559 71.8894 305.258 80.9507 281.574 88.8793" stroke="#C6EAFF" stroke-width="1.4" stroke-miterlimit="10" stroke-dasharray="3 3"/>
<path d="M120.332 374.309C138.377 404.891 157.55 433.207 176.722 460.391" stroke="#C6EAFF" stroke-width="1.4" stroke-miterlimit="10" stroke-dasharray="3 3"/>
<path d="M120.302 374.312C89.8516 325.608 63.912 274.638 53.7617 223.668" stroke="#C6EAFF" stroke-width="1.4" stroke-miterlimit="10" stroke-dasharray="3 3"/>
<path d="M120.305 374.306C98.8762 368.642 78.5757 362.979 60.5308 356.183C44.7415 350.52 31.2078 345.989 19.9297 341.458" stroke="#C6EAFF" stroke-width="1.4" stroke-miterlimit="10" stroke-dasharray="3 3"/>
<path d="M293.996 464.921C297.38 479.646 300.763 493.238 301.891 506.83" stroke="#C6EAFF" stroke-width="1.4" stroke-miterlimit="10" stroke-dasharray="3 3"/>
<path d="M422.562 478.511C427.073 453.592 424.818 424.143 418.051 394.694" stroke="#C6EAFF" stroke-width="1.4" stroke-miterlimit="10" stroke-dasharray="3 3"/>
<path d="M124.814 206.677C98.874 211.208 74.0623 216.871 53.7617 223.667" stroke="#C6EAFF" stroke-width="1.4" stroke-miterlimit="10" stroke-dasharray="3 3"/>
<path d="M287.21 79.8184C281.571 88.8796 275.932 99.0736 270.293 110.4" stroke="#C6EAFF" stroke-width="1.4" stroke-miterlimit="10" stroke-dasharray="3 3"/>
<path d="M224.082 40.1748C228.593 60.5627 246.638 84.3486 270.322 109.267" stroke="#C6EAFF" stroke-width="1.4" stroke-miterlimit="10" stroke-dasharray="3 3"/>
<path d="M273.688 450.199C280.454 454.73 288.349 460.393 295.116 464.924" stroke="#C6EAFF" stroke-width="1.4" stroke-miterlimit="10" stroke-dasharray="3 3"/>
<path d="M125.928 264.438C95.477 287.092 69.5374 310.878 52.6203 335.796C37.9588 358.449 31.1919 383.368 34.5753 406.021" stroke="#C6EAFF" stroke-width="1.4" stroke-miterlimit="10" stroke-dasharray="3 3"/>
<path d="M75.2305 249.716C91.0198 254.246 107.937 259.91 125.982 264.44" stroke="#C6EAFF" stroke-width="1.4" stroke-miterlimit="10" stroke-dasharray="3 3"/>
<path d="M287.207 79.8184C300.741 96.8083 317.658 116.063 336.831 135.319" stroke="#C6EAFF" stroke-width="1.4" stroke-miterlimit="10" stroke-dasharray="3 3"/>
<path d="M336.834 135.32C314.277 127.392 291.721 118.33 270.293 110.402" stroke="#C6EAFF" stroke-width="1.4" stroke-miterlimit="10" stroke-dasharray="3 3"/>
<path d="M418.066 131.914C393.254 133.046 366.186 134.179 336.863 134.179" stroke="#C6EAFF" stroke-width="1.4" stroke-miterlimit="10" stroke-dasharray="3 3"/>
<path d="M468.821 249.716C454.16 238.39 438.37 227.063 421.453 215.736" stroke="#C6EAFF" stroke-width="1.4" stroke-miterlimit="10" stroke-dasharray="3 3"/>
<path d="M463.182 347.125C455.287 304.084 439.498 259.91 421.453 215.736" stroke="#C6EAFF" stroke-width="1.4" stroke-miterlimit="10" stroke-dasharray="3 3"/>
<path d="M421.434 216.871C422.562 187.422 421.434 159.105 418.051 133.054" stroke="#C6EAFF" stroke-width="1.4" stroke-miterlimit="10" stroke-dasharray="3 3"/>
<path d="M201.525 88.8765C191.375 112.662 184.608 138.714 178.969 165.897" stroke="#C6EAFF" stroke-width="1.4" stroke-miterlimit="10" stroke-dasharray="3 3"/>
<path d="M463.192 347.121C429.357 374.304 389.884 396.958 349.283 418.478C309.81 438.866 272.592 456.989 238.758 475.111" stroke="#C6EAFF" stroke-width="1.4" stroke-miterlimit="10" stroke-dasharray="3 3"/>
<path d="M293.996 464.923C300.763 452.464 307.53 440.005 314.297 427.545" stroke="#C6EAFF" stroke-width="1.4" stroke-miterlimit="10" stroke-dasharray="3 3"/>
<path d="M453.032 368.644C444.009 351.654 433.859 333.532 421.453 315.409" stroke="#C6EAFF" stroke-width="1.4" stroke-miterlimit="10" stroke-dasharray="3 3"/>
<path d="M466.566 123.985C477.844 182.883 457.543 251.975 421.453 316.537" stroke="#C6EAFF" stroke-width="1.4" stroke-miterlimit="10" stroke-dasharray="3 3"/>
<path d="M421.453 316.539C439.498 322.202 457.543 326.733 473.332 331.263" stroke="#C6EAFF" stroke-width="1.4" stroke-miterlimit="10" stroke-dasharray="3 3"/>
<path d="M334.616 408.289C275.97 427.544 220.707 443.402 176.723 460.391" stroke="#C6EAFF" stroke-width="1.4" stroke-miterlimit="10" stroke-dasharray="3 3"/>
<path d="M314.305 427.544C321.072 420.748 327.838 415.085 334.605 408.289" stroke="#C6EAFF" stroke-width="1.4" stroke-miterlimit="10" stroke-dasharray="3 3"/>
<path d="M418.075 394.694C391.008 400.357 363.94 404.888 334.617 408.286" stroke="#C6EAFF" stroke-width="1.4" stroke-miterlimit="10" stroke-dasharray="3 3"/>
<path d="M125.973 264.44C136.123 258.777 147.401 254.246 157.551 249.716" stroke="#C6EAFF" stroke-width="1.4" stroke-miterlimit="10" stroke-dasharray="3 3"/>
<path d="M157.506 249.719C150.739 204.413 149.612 161.372 157.506 121.729" stroke="#C6EAFF" stroke-width="1.4" stroke-miterlimit="10" stroke-dasharray="3 3"/>
<path d="M453.025 368.647C436.108 356.188 418.063 344.861 398.891 331.269" stroke="#C6EAFF" stroke-width="1.4" stroke-miterlimit="10" stroke-dasharray="3 3"/>
<path d="M228.603 386.762C192.513 347.119 156.423 307.476 125.973 265.568" stroke="#C6EAFF" stroke-width="1.4" stroke-miterlimit="10" stroke-dasharray="3 3"/>
<path d="M105.656 336.934C144.002 353.923 184.603 369.781 228.587 385.638" stroke="#C6EAFF" stroke-width="1.4" stroke-miterlimit="10" stroke-dasharray="3 3"/>
<path d="M336.863 135.311C342.502 157.964 349.269 182.882 356.036 207.801" stroke="#C6EAFF" stroke-width="1.4" stroke-miterlimit="10" stroke-dasharray="3 3"/>
<path d="M281.6 154.57C280.473 163.632 280.473 173.826 280.473 184.019" stroke="#C6EAFF" stroke-width="1.4" stroke-miterlimit="10" stroke-dasharray="3 3"/>
<path d="M180.066 165.896C212.773 171.559 246.607 178.355 280.441 184.018" stroke="#C6EAFF" stroke-width="1.4" stroke-miterlimit="10" stroke-dasharray="3 3"/>
<path d="M312.032 323.339C283.837 344.859 254.514 366.38 228.574 386.768" stroke="#C6EAFF" stroke-width="1.4" stroke-miterlimit="10" stroke-dasharray="3 3"/>
<path d="M325.585 289.356C309.796 254.244 294.006 219.131 280.473 185.151" stroke="#C6EAFF" stroke-width="1.4" stroke-miterlimit="10" stroke-dasharray="3 3"/>
<path d="M325.578 289.359C330.089 330.135 334.601 370.91 334.601 408.288" stroke="#C6EAFF" stroke-width="1.4" stroke-miterlimit="10" stroke-dasharray="3 3"/>
<path d="M421.442 316.543C390.991 307.481 358.285 298.42 325.578 289.359" stroke="#C6EAFF" stroke-width="1.4" stroke-miterlimit="10" stroke-dasharray="3 3"/>
<path d="M325.578 289.353C362.796 262.169 396.63 233.853 422.57 204.404C446.254 178.353 463.171 150.036 466.554 123.985" stroke="#C6EAFF" stroke-width="1.4" stroke-miterlimit="10" stroke-dasharray="3 3"/>
<path d="M242.114 19.7891C224.069 41.3096 227.452 82.0854 243.241 125.126C262.414 177.229 293.993 230.464 325.571 288.229" stroke="#C6EAFF" stroke-width="1.4" stroke-miterlimit="10" stroke-dasharray="3 3"/>
<path d="M325.592 289.359C321.081 300.685 316.57 312.012 312.059 323.339" stroke="#C6EAFF" stroke-width="1.4" stroke-miterlimit="10" stroke-dasharray="3 3"/>
<path d="M118.589 270.977L114.852 291.711" stroke="#C6EAFF" stroke-width="1.4" stroke-dasharray="3 3"/>
</g>
</svg>
