<svg width="1391" height="577" viewBox="0 0 1391 577" fill="none" xmlns="http://www.w3.org/2000/svg">
<mask id="mask0_2038_229" style="mask-type:alpha" maskUnits="userSpaceOnUse" x="0" y="0" width="1391" height="577">
<rect width="1391" height="577" fill="url(#paint0_linear_2038_229)"/>
</mask>
<g mask="url(#mask0_2038_229)">
<path d="M1390.72 269.203C1390.84 271.201 1390.93 273.21 1390.97 275.228L1389.97 275.249C1389.99 276.251 1390 277.256 1390 278.263C1390 279.262 1389.99 280.26 1389.97 281.256L1390.97 281.277C1390.93 283.282 1390.85 285.28 1390.72 287.271L1389.72 287.209C1389.6 289.186 1389.44 291.156 1389.24 293.119L1390.23 293.222C1390.03 295.21 1389.78 297.191 1389.49 299.165L1388.5 299.021C1388.22 300.984 1387.89 302.939 1387.53 304.888L1388.51 305.072C1388.14 307.033 1387.73 308.986 1387.28 310.932L1386.31 310.708C1385.87 312.634 1385.38 314.553 1384.86 316.464L1385.83 316.727C1385.3 318.651 1384.74 320.568 1384.13 322.476L1383.18 322.175C1382.58 324.061 1381.95 325.939 1381.28 327.81L1382.22 328.149C1381.54 330.016 1380.84 331.876 1380.09 333.728L1379.16 333.354C1378.42 335.194 1377.64 337.027 1376.83 338.852L1377.74 339.26C1376.93 341.07 1376.09 342.872 1375.21 344.667L1374.31 344.227C1373.44 345.997 1372.54 347.76 1371.61 349.515L1372.49 349.986C1371.55 351.751 1370.57 353.508 1369.56 355.258L1368.69 354.758C1367.71 356.456 1366.7 358.147 1365.65 359.83L1366.5 360.358C1365.46 362.043 1364.38 363.72 1363.27 365.39L1362.44 364.837C1361.33 366.498 1360.19 368.152 1359.03 369.799L1359.84 370.377C1358.71 371.979 1357.54 373.573 1356.35 375.16L1355.55 374.559C1354.36 376.137 1353.15 377.708 1351.9 379.271L1352.68 379.894C1351.43 381.465 1350.15 383.028 1348.85 384.584L1348.08 383.941C1346.82 385.434 1345.54 386.921 1344.23 388.401L1344.98 389.063C1343.67 390.549 1342.33 392.027 1340.97 393.499L1340.23 392.818C1338.87 394.284 1337.49 395.743 1336.08 397.194L1336.79 397.892C1335.42 399.299 1334.03 400.7 1332.62 402.094L1331.91 401.381C1330.51 402.764 1329.08 404.141 1327.63 405.51L1328.32 406.238C1326.86 407.613 1325.38 408.981 1323.87 410.342L1323.2 409.601C1321.74 410.921 1320.26 412.235 1318.76 413.543L1319.42 414.298C1317.93 415.593 1316.42 416.882 1314.89 418.164L1314.25 417.398C1312.72 418.676 1311.18 419.949 1309.61 421.214L1310.24 421.992C1308.69 423.245 1307.12 424.492 1305.52 425.733L1304.91 424.944C1303.37 426.148 1301.8 427.346 1300.22 428.539L1300.82 429.337C1299.23 430.533 1297.63 431.722 1296 432.906L1295.41 432.097C1293.79 433.278 1292.16 434.452 1290.5 435.62L1291.07 436.437C1289.47 437.57 1287.84 438.697 1286.2 439.818L1285.64 438.992C1284.01 440.103 1282.37 441.209 1280.71 442.309L1281.26 443.143C1279.59 444.246 1277.91 445.343 1276.21 446.434L1275.67 445.592C1273.99 446.672 1272.3 447.746 1270.58 448.814L1271.11 449.662C1269.45 450.701 1267.77 451.734 1266.07 452.762L1265.55 451.907C1263.86 452.932 1262.15 453.952 1260.43 454.967L1260.94 455.829C1259.21 456.845 1257.47 457.857 1255.72 458.862L1255.22 457.995C1253.5 458.982 1251.76 459.963 1250.01 460.939L1250.49 461.813C1248.78 462.771 1247.04 463.724 1245.3 464.672L1244.82 463.793C1243.08 464.739 1241.32 465.68 1239.55 466.616L1240.02 467.5C1238.25 468.437 1236.46 469.369 1234.66 470.296L1234.2 469.407C1232.44 470.315 1230.66 471.217 1228.88 472.114L1229.33 473.008C1227.56 473.892 1225.79 474.771 1224.01 475.645L1223.57 474.747C1221.78 475.62 1219.99 476.487 1218.18 477.35L1218.61 478.252C1216.8 479.116 1214.98 479.976 1213.15 480.83L1212.73 479.923C1210.93 480.762 1209.12 481.595 1207.29 482.424L1207.71 483.335C1205.91 484.15 1204.11 484.961 1202.29 485.767L1201.89 484.853C1200.07 485.657 1198.25 486.457 1196.42 487.253L1196.81 488.17C1194.98 488.966 1193.13 489.758 1191.27 490.545L1190.88 489.624C1189.04 490.402 1187.19 491.176 1185.33 491.945L1185.71 492.869C1183.9 493.621 1182.07 494.368 1180.23 495.111L1179.85 494.184C1178.02 494.926 1176.17 495.663 1174.32 496.396L1174.68 497.326C1172.82 498.06 1170.96 498.789 1169.08 499.513L1168.72 498.58C1166.84 499.304 1164.96 500.023 1163.06 500.737L1163.42 501.673C1161.57 502.367 1159.72 503.057 1157.86 503.743L1157.52 502.804C1155.66 503.488 1153.8 504.167 1151.93 504.842L1152.27 505.783C1150.39 506.458 1148.51 507.13 1146.62 507.796L1146.29 506.853C1144.4 507.519 1142.5 508.181 1140.59 508.838L1140.92 509.784C1139.04 510.432 1137.14 511.077 1135.24 511.717L1134.93 510.769C1133.06 511.398 1131.18 512.024 1129.3 512.645L1129.61 513.594C1127.73 514.216 1125.83 514.833 1123.93 515.446L1123.62 514.495C1121.72 515.107 1119.81 515.715 1117.9 516.319L1118.2 517.273C1116.28 517.877 1114.36 518.478 1112.42 519.073L1112.13 518.118C1110.24 518.699 1108.35 519.276 1106.45 519.849L1106.74 520.806C1104.85 521.377 1102.94 521.945 1101.03 522.508L1100.75 521.548C1098.84 522.111 1096.93 522.669 1095.01 523.223L1095.29 524.184C1093.36 524.739 1091.43 525.29 1089.49 525.836L1089.22 524.874C1087.29 525.418 1085.36 525.958 1083.41 526.494L1083.68 527.458C1081.78 527.982 1079.87 528.502 1077.96 529.018L1077.7 528.053C1075.78 528.568 1073.87 529.08 1071.94 529.588L1072.2 530.555C1070.27 531.063 1068.34 531.567 1066.4 532.067L1066.15 531.099C1064.21 531.598 1062.26 532.094 1060.31 532.586L1060.56 533.555C1058.62 534.044 1056.67 534.53 1054.71 535.011L1054.48 534.04C1052.56 534.511 1050.64 534.979 1048.71 535.443L1048.95 536.415C1047.02 536.88 1045.08 537.34 1043.14 537.797L1042.91 536.823C1040.97 537.28 1039.03 537.732 1037.08 538.18L1037.3 539.155C1035.35 539.604 1033.39 540.049 1031.43 540.49L1031.21 539.514C1029.26 539.952 1027.3 540.386 1025.34 540.816L1025.55 541.793C1023.62 542.216 1021.69 542.636 1019.75 543.051L1019.54 542.073C1017.6 542.489 1015.65 542.9 1013.7 543.308L1013.91 544.287C1011.96 544.695 1010 545.099 1008.04 545.499L1007.84 544.519C1005.88 544.919 1003.91 545.316 1001.94 545.708L1002.14 546.689C1000.17 547.081 998.2 547.468 996.223 547.852L996.032 546.871C994.094 547.247 992.151 547.62 990.204 547.989L990.39 548.972C988.441 549.341 986.486 549.707 984.527 550.069L984.346 549.085C983.083 549.318 981.819 549.55 980.553 549.78C979.856 549.907 979.157 550.033 978.458 550.159L978.636 551.143C976.667 551.498 974.693 551.849 972.715 552.196L972.542 551.211C970.565 551.558 968.583 551.901 966.597 552.241L966.765 553.226C964.815 553.56 962.86 553.889 960.9 554.215L960.736 553.229C958.781 553.554 956.823 553.876 954.859 554.194L955.019 555.181C953.054 555.499 951.085 555.814 949.112 556.125L948.956 555.137C946.984 555.448 945.007 555.755 943.026 556.058L943.178 557.047C941.195 557.351 939.208 557.651 937.218 557.947L937.07 556.958C935.103 557.251 933.131 557.54 931.155 557.826L931.298 558.816C929.337 559.1 927.373 559.38 925.404 559.656L925.265 558.666C923.297 558.942 921.326 559.215 919.35 559.484L919.485 560.475C917.509 560.744 915.528 561.01 913.543 561.273L913.412 560.281C911.429 560.543 909.441 560.802 907.45 561.057L907.577 562.049C905.589 562.303 903.597 562.554 901.601 562.802L901.478 561.809C899.515 562.053 897.549 562.292 895.579 562.529L895.698 563.522C893.726 563.758 891.751 563.991 889.773 564.221L889.657 563.227C887.68 563.457 885.699 563.683 883.714 563.905L883.826 564.899C881.84 565.122 879.85 565.341 877.857 565.556L877.75 564.562C875.758 564.777 873.762 564.989 871.763 565.198L871.867 566.192C869.887 566.399 867.903 566.602 865.915 566.801L865.815 565.806C863.844 566.004 861.869 566.199 859.89 566.39L859.986 567.385C858.007 567.577 856.024 567.764 854.038 567.949L853.945 566.953C851.96 567.137 849.972 567.318 847.981 567.495L848.069 568.491C846.077 568.669 844.081 568.843 842.082 569.013L841.997 568.017C839.999 568.188 837.998 568.354 835.994 568.518L836.075 569.515C834.099 569.676 832.12 569.834 830.139 569.988L830.061 568.991C828.083 569.145 826.101 569.296 824.117 569.443L824.191 570.441C822.205 570.588 820.217 570.732 818.225 570.873L818.155 569.875C816.164 570.016 814.171 570.153 812.175 570.287L812.242 571.285C810.244 571.418 808.244 571.549 806.241 571.676L806.178 570.678C804.182 570.804 802.183 570.928 800.181 571.047L800.241 572.046C798.262 572.164 796.28 572.279 794.295 572.391L794.239 571.392C792.256 571.504 790.27 571.612 788.281 571.717L788.334 572.716C786.344 572.821 784.351 572.922 782.356 573.021L782.307 572.022C780.313 572.12 778.317 572.215 776.317 572.306L776.363 573.305C774.363 573.397 772.36 573.485 770.354 573.57L770.312 572.571C768.318 572.655 766.322 572.736 764.323 572.813L764.362 573.813C762.379 573.89 760.393 573.963 758.406 574.034L758.37 573.034C756.384 573.104 754.395 573.171 752.403 573.235L752.435 574.235C750.443 574.298 748.448 574.359 746.45 574.416L746.422 573.416C744.426 573.473 742.427 573.526 740.427 573.577L740.452 574.576C738.45 574.627 736.446 574.674 734.439 574.717L734.417 573.718C732.424 573.761 730.429 573.801 728.431 573.838L728.45 574.837C726.464 574.874 724.477 574.907 722.487 574.937L722.472 573.937C720.484 573.967 718.493 573.993 716.5 574.016L716.512 575.016C714.518 575.04 712.522 575.06 710.524 575.076L710.516 574.076C708.519 574.093 706.52 574.106 704.518 574.116L704.523 575.116C702.521 575.126 700.517 575.133 698.511 575.136L698.509 574.136C697.897 574.137 697.284 574.138 696.671 574.138C696.281 574.139 695.89 574.139 695.5 574.139C694.496 574.139 693.493 574.138 692.49 574.136L692.488 575.136C690.482 575.133 688.478 575.126 686.476 575.116L686.481 574.116C684.48 574.106 682.481 574.093 680.484 574.076L680.475 575.076C678.477 575.06 676.481 575.04 674.487 575.016L674.499 574.016C672.506 573.993 670.516 573.967 668.527 573.937L668.512 574.937C666.523 574.907 664.535 574.874 662.55 574.837L662.568 573.837C660.57 573.801 658.575 573.761 656.582 573.718L656.56 574.717C654.554 574.674 652.55 574.627 650.548 574.576L650.573 573.577C648.572 573.526 646.574 573.473 644.578 573.416L644.549 574.416C642.552 574.359 640.557 574.298 638.564 574.235L638.596 573.235C636.605 573.171 634.616 573.104 632.629 573.034L632.594 574.034C630.606 573.963 628.621 573.89 626.638 573.813L626.677 572.813C624.678 572.736 622.681 572.655 620.687 572.571L620.645 573.57C618.64 573.485 616.637 573.397 614.636 573.305L614.682 572.306C612.683 572.215 610.686 572.12 608.692 572.022L608.643 573.021C606.648 572.922 604.655 572.821 602.666 572.716L602.718 571.717C600.73 571.612 598.744 571.504 596.76 571.392L596.704 572.391C594.72 572.279 592.738 572.164 590.759 572.046L590.818 571.047C588.817 570.928 586.818 570.804 584.822 570.678L584.759 571.676C582.755 571.549 580.755 571.418 578.758 571.285L578.825 570.287C576.829 570.153 574.835 570.016 572.845 569.875L572.775 570.873C570.783 570.732 568.794 570.588 566.809 570.441L566.883 569.443C564.898 569.296 562.917 569.145 560.938 568.991L560.861 569.988C558.879 569.834 556.9 569.676 554.924 569.515L555.006 568.518C553.002 568.354 551.001 568.188 549.003 568.017L548.918 569.013C546.919 568.843 544.923 568.669 542.93 568.491L543.019 567.495C541.027 567.318 539.039 567.137 537.054 566.953L536.962 567.949C534.976 567.764 532.993 567.577 531.013 567.385L531.109 566.39C529.131 566.199 527.156 566.004 525.184 565.806L525.084 566.801C523.097 566.602 521.113 566.399 519.132 566.192L519.236 565.198C517.237 564.989 515.242 564.777 513.25 564.562L513.143 565.556C511.15 565.341 509.16 565.122 507.174 564.899L507.285 563.905C505.301 563.683 503.32 563.457 501.342 563.227L501.227 564.221C499.248 563.991 497.273 563.758 495.302 563.522L495.421 562.529C493.451 562.292 491.485 562.053 489.522 561.809L489.399 562.802C487.403 562.554 485.411 562.303 483.423 562.049L483.55 561.057C481.558 560.802 479.571 560.543 477.588 560.281L477.457 561.273C475.472 561.01 473.491 560.744 471.514 560.475L471.649 559.484C469.674 559.215 467.702 558.942 465.735 558.666L465.596 559.656C463.627 559.38 461.662 559.099 459.702 558.816L459.845 557.826C457.869 557.54 455.897 557.251 453.93 556.958L453.782 557.947C451.791 557.651 449.805 557.351 447.822 557.047L447.974 556.058C445.993 555.755 444.016 555.448 442.044 555.137L441.888 556.125C439.915 555.814 437.945 555.499 435.981 555.181L436.141 554.194C434.177 553.876 432.218 553.554 430.264 553.229L430.1 554.215C428.14 553.889 426.185 553.56 424.235 553.226L424.403 552.241C422.417 551.901 420.435 551.558 418.458 551.211L418.285 552.196C416.307 551.849 414.333 551.498 412.364 551.143L412.542 550.159C410.574 549.805 408.612 549.447 406.654 549.085L406.473 550.069C404.513 549.707 402.559 549.341 400.61 548.972L400.796 547.989C398.848 547.62 396.906 547.247 394.968 546.871L394.777 547.852C392.8 547.468 390.828 547.081 388.862 546.689L389.057 545.708C387.086 545.316 385.121 544.919 383.16 544.519L382.96 545.499C380.998 545.099 379.042 544.695 377.091 544.286L377.295 543.308C375.346 542.9 373.401 542.489 371.463 542.073L371.253 543.051C369.313 542.636 367.378 542.216 365.448 541.793L365.662 540.816C363.7 540.386 361.743 539.952 359.792 539.514L359.573 540.49C357.609 540.049 355.651 539.604 353.698 539.155L353.922 538.18C351.971 537.732 350.026 537.279 348.087 536.823L347.858 537.797C345.917 537.34 343.983 536.88 342.054 536.415L342.288 535.443C340.361 534.979 338.44 534.511 336.525 534.04L336.285 535.011C334.332 534.529 332.385 534.044 330.444 533.555L330.688 532.586C328.737 532.094 326.792 531.598 324.854 531.099L324.605 532.067C322.665 531.567 320.731 531.063 318.804 530.555L319.059 529.588C317.134 529.08 315.216 528.568 313.304 528.053L313.043 529.018C311.129 528.502 309.222 527.982 307.322 527.458L307.587 526.494C305.644 525.958 303.707 525.418 301.777 524.873L301.506 525.836C299.568 525.289 297.638 524.739 295.714 524.184L295.991 523.223C294.07 522.669 292.155 522.111 290.248 521.548L289.965 522.507C288.056 521.944 286.155 521.377 284.26 520.806L284.549 519.849C282.649 519.276 280.756 518.699 278.871 518.118L278.577 519.073C276.643 518.478 274.718 517.877 272.8 517.273L273.101 516.319C271.185 515.715 269.277 515.107 267.377 514.494L267.07 515.446C265.169 514.833 263.275 514.216 261.389 513.594L261.702 512.644C259.818 512.024 257.942 511.398 256.074 510.769L255.755 511.717C253.856 511.077 251.964 510.432 250.082 509.783L250.408 508.838C248.501 508.181 246.602 507.519 244.713 506.853L244.38 507.796C242.488 507.13 240.605 506.458 238.731 505.783L239.07 504.842C237.198 504.167 235.335 503.488 233.481 502.804L233.135 503.743C231.276 503.057 229.425 502.367 227.584 501.673L227.937 500.737C226.042 500.023 224.157 499.304 222.282 498.58L221.922 499.513C220.044 498.789 218.176 498.06 216.318 497.326L216.685 496.396C214.829 495.663 212.983 494.926 211.146 494.184L210.772 495.111C208.933 494.368 207.104 493.621 205.285 492.869L205.667 491.945C203.808 491.176 201.958 490.402 200.12 489.624L199.73 490.545C197.871 489.758 196.023 488.966 194.186 488.17L194.584 487.253C192.749 486.457 190.925 485.657 189.112 484.853L188.707 485.767C186.891 484.961 185.087 484.15 183.293 483.335L183.707 482.424C181.884 481.595 180.072 480.762 178.272 479.923L177.85 480.829C176.016 479.975 174.195 479.116 172.385 478.252L172.816 477.35C171.01 476.487 169.215 475.62 167.433 474.747L166.993 475.645C165.208 474.771 163.435 473.892 161.674 473.008L162.123 472.114C160.335 471.217 158.561 470.315 156.799 469.407L156.341 470.296C154.541 469.369 152.755 468.437 150.982 467.5L151.449 466.616C149.679 465.68 147.923 464.739 146.18 463.793L145.703 464.672C143.957 463.724 142.224 462.771 140.505 461.813L140.992 460.939C139.241 459.963 137.503 458.981 135.781 457.995L135.284 458.862C133.528 457.856 131.787 456.845 130.061 455.828L130.569 454.967C128.847 453.952 127.14 452.932 125.447 451.907L124.929 452.762C123.233 451.734 121.553 450.701 119.887 449.662L120.417 448.814C118.704 447.746 117.007 446.672 115.327 445.592L114.787 446.434C113.088 445.343 111.407 444.246 109.742 443.143L110.294 442.309C108.633 441.209 106.989 440.103 105.362 438.992L104.798 439.818C103.156 438.697 101.532 437.57 99.9252 436.437L100.501 435.62C98.844 434.452 97.2052 433.277 95.5851 432.097L94.9963 432.905C93.3719 431.722 91.7662 430.533 90.1792 429.337L90.7809 428.538C89.1984 427.346 87.6346 426.148 86.0899 424.944L85.4751 425.733C83.8837 424.492 82.3122 423.245 80.761 421.992L81.3894 421.214C79.8224 419.948 78.2762 418.676 76.751 417.398L76.1086 418.164C74.5787 416.881 73.0698 415.593 71.582 414.297L72.2386 413.543C70.7362 412.235 69.2554 410.921 67.7967 409.6L67.1255 410.342C65.6219 408.98 64.1415 407.612 62.6844 406.238L63.3706 405.51C61.9186 404.14 60.4899 402.764 59.0848 401.381L58.3833 402.093C56.9672 400.699 55.5748 399.299 54.2065 397.891L54.9234 397.194C53.5119 395.742 52.1262 394.284 50.7664 392.818L50.0333 393.498C48.6681 392.027 47.3289 390.548 46.016 389.063L46.7652 388.401C45.457 386.921 44.1751 385.434 42.9196 383.94L42.1541 384.584C40.8463 383.028 39.567 381.464 38.3165 379.894L39.0988 379.271C37.8539 377.707 36.6377 376.136 35.4505 374.559L34.6514 375.16C33.4574 373.573 32.2925 371.978 31.1569 370.377L31.9727 369.798C30.8052 368.152 29.6691 366.498 28.5647 364.836L27.7319 365.39C26.6218 363.72 25.5433 362.042 24.4968 360.357L25.3463 359.83C24.3008 358.146 23.2875 356.456 22.3066 354.757L21.4407 355.258C20.4301 353.508 19.4537 351.75 18.5118 349.985L19.3941 349.514C18.4576 347.759 17.5554 345.996 16.688 344.226L15.79 344.666C14.9107 342.871 14.0668 341.069 13.2586 339.259L14.1717 338.851C13.3568 337.026 12.5786 335.194 11.8373 333.353L10.9097 333.727C10.1638 331.875 9.45493 330.015 8.78355 328.148L9.72458 327.81C9.05197 325.939 8.41725 324.06 7.82077 322.174L6.86731 322.476C6.26373 320.567 5.699 318.651 5.17351 316.727L6.13818 316.463C5.61619 314.552 5.1332 312.633 4.68957 310.707L3.71508 310.931C3.26696 308.986 2.85871 307.032 2.49068 305.071L3.47352 304.887C3.10789 302.939 2.78225 300.983 2.49696 299.02L1.50735 299.164C1.22054 297.191 0.97422 295.21 0.768772 293.221L1.76348 293.119C1.56064 291.156 1.39792 289.186 1.27567 287.208L0.277579 287.27C0.154484 285.279 0.0721469 283.281 0.0309331 281.276L1.03072 281.255C1.01026 280.26 1 279.262 1 278.263C1 277.256 1.01041 276.252 1.0312 275.25L0.0314123 275.229C0.0732763 273.211 0.156923 271.202 0.28198 269.203L1.28003 269.266C1.40421 267.281 1.56951 265.306 1.77555 263.342L0.781 263.237C0.990925 261.235 1.24285 259.244 1.53639 257.262L2.52559 257.409C2.81785 255.436 3.15165 253.474 3.52661 251.521L2.54456 251.333C2.92234 249.366 3.34161 247.409 3.80196 245.463L4.77511 245.693C5.23317 243.756 5.73221 241.83 6.27185 239.914L5.30931 239.643C5.85276 237.714 6.43708 235.795 7.06188 233.886L8.01224 234.198C8.62998 232.311 9.2876 230.434 9.98473 228.568L9.04795 228.218C9.74682 226.347 10.4851 224.487 11.2623 222.636L12.1843 223.024C12.9564 221.186 13.7673 219.358 14.6167 217.541L13.7108 217.118C14.5525 215.317 15.4316 213.526 16.3478 211.745L17.237 212.203C18.1447 210.439 19.0891 208.685 20.0699 206.94L19.1983 206.45C20.182 204.701 21.202 202.962 22.2579 201.233L23.1114 201.754C24.1367 200.075 25.1961 198.405 26.2894 196.745L25.4543 196.195C26.5538 194.526 27.6872 192.866 28.8542 191.216L29.6706 191.794C30.8192 190.17 32.0006 188.555 33.2146 186.95L32.417 186.347C33.6104 184.769 34.8349 183.2 36.0903 181.641L36.8693 182.268C38.1184 180.716 39.3984 179.173 40.7089 177.64L39.9487 176.99C41.2445 175.474 42.5699 173.966 43.9246 172.468L44.6664 173.138C45.9868 171.678 47.3354 170.225 48.7117 168.782L47.988 168.092C49.3703 166.642 50.7805 165.2 52.2182 163.768L52.9241 164.476C54.3312 163.074 55.7649 161.68 57.2251 160.295L56.5367 159.569C57.9701 158.209 59.4287 156.857 60.9122 155.513L61.5836 156.254C63.0615 154.915 64.5644 153.584 66.092 152.261L65.4374 151.505C66.9505 150.194 68.4878 148.892 70.0488 147.597L70.6872 148.367C72.1998 147.112 73.7349 145.865 75.2924 144.626L74.6697 143.843C76.2323 142.6 77.8173 141.363 79.4244 140.135L80.0318 140.929C81.6289 139.708 83.2481 138.495 84.889 137.288L84.2968 136.483C85.8804 135.319 87.4841 134.162 89.1078 133.011L89.6858 133.828C91.3048 132.681 92.9438 131.541 94.6026 130.408L94.0386 129.582C95.702 128.446 97.3852 127.317 99.088 126.195L99.6382 127.03C101.289 125.943 102.959 124.862 104.646 123.787L104.109 122.943C105.78 121.88 107.467 120.823 109.173 119.773L109.698 120.625C111.399 119.577 113.118 118.536 114.855 117.501L114.343 116.642C116.073 115.611 117.821 114.587 119.585 113.569L120.085 114.435C121.786 113.454 123.503 112.479 125.236 111.51L124.748 110.637C126.485 109.666 128.238 108.7 130.006 107.741L130.483 108.62C132.248 107.663 134.028 106.712 135.825 105.767L135.359 104.882C137.125 103.952 138.907 103.029 140.703 102.111L141.158 103.002C142.914 102.105 144.684 101.213 146.469 100.327L146.024 99.4316C147.812 98.544 149.615 97.6621 151.431 96.7859L151.865 97.6866C153.678 96.812 155.505 95.9431 157.346 95.0798L156.921 94.1745C158.72 93.3308 160.532 92.4926 162.357 91.6599L162.772 92.5697C164.571 91.7492 166.382 90.934 168.205 90.1241L167.799 89.2102C169.626 88.3989 171.465 87.593 173.317 86.7924L173.714 87.7103C175.563 86.911 177.424 86.117 179.298 85.3283L178.91 84.4066C180.741 83.6361 182.584 82.8706 184.438 82.1102L184.817 83.0354C186.648 82.2849 188.489 81.5394 190.342 80.7988L189.971 79.8702C191.827 79.1285 193.694 78.3919 195.572 77.6602L195.935 78.592C197.811 77.8614 199.697 77.1358 201.595 76.4152L201.24 75.4803C203.104 74.7726 204.979 74.0698 206.864 73.3718L207.211 74.3096C209.065 73.623 210.93 72.9411 212.804 72.2639L212.465 71.3234C214.342 70.6453 216.229 69.9719 218.127 69.3032L218.459 70.2464C220.354 69.5786 222.259 68.9155 224.174 68.2571L223.849 67.3114C225.748 66.6587 227.656 66.0107 229.574 65.3673L229.892 66.3153C231.764 65.6873 233.646 65.0638 235.536 64.4446L235.225 63.4943C237.118 62.8744 239.02 62.259 240.931 61.648L241.235 62.6006C243.144 61.9903 245.062 61.3845 246.989 60.7832L246.691 59.8286C248.621 59.2266 250.559 58.629 252.506 58.0359L252.797 58.9925C254.688 58.4165 256.588 57.8447 258.496 57.2771L258.211 56.3187C260.115 55.7523 262.027 55.1901 263.948 54.6322L264.227 55.5925C266.145 55.0352 268.072 54.4821 270.006 53.9332L269.734 52.9712C271.67 52.4218 273.615 51.8766 275.568 51.3356L275.835 52.2993C277.766 51.7645 279.705 51.2338 281.652 50.7072L281.391 49.7419C283.303 49.2249 285.222 48.7119 287.148 48.2029L287.404 49.1697C289.328 48.6612 291.261 48.1567 293.2 47.6563L292.95 46.688C294.892 46.1871 296.841 45.6901 298.797 45.1973L299.041 46.167C300.995 45.6746 302.957 45.1862 304.926 44.7019L304.687 43.7308C306.621 43.255 308.563 42.783 310.511 42.315L310.745 43.2873C312.673 42.8241 314.608 42.3646 316.551 41.909L316.322 40.9354C318.266 40.4794 320.216 40.0272 322.173 39.5789L322.397 40.5536C324.352 40.1057 326.314 39.6616 328.283 39.2214L328.065 38.2455C330.035 37.8048 332.012 37.3681 333.996 36.9352L334.209 37.9122C336.147 37.4893 338.091 37.07 340.041 36.6545L339.833 35.6764C341.777 35.2622 343.728 34.8516 345.684 34.4446L345.888 35.4237C347.843 35.0171 349.804 34.6142 351.771 34.215L351.572 33.2349C353.541 32.8354 355.516 32.4395 357.497 32.0474L357.691 33.0283C359.67 32.6365 361.655 32.2483 363.646 31.8639L363.456 30.882C365.404 30.5058 367.358 30.1332 369.318 29.7641L369.503 30.7468C371.456 30.3788 373.415 30.0143 375.38 29.6534L375.199 28.6699C377.165 28.3086 379.137 27.951 381.114 27.5969L381.29 28.5812C383.266 28.2273 385.247 27.877 387.233 27.5303L387.061 26.5452C389.049 26.1981 391.042 25.8547 393.04 25.5148L393.208 26.5006C395.167 26.1675 397.13 25.8379 399.099 25.5116L398.935 24.5251C400.898 24.1998 402.866 23.878 404.839 23.5595L404.998 24.5467C406.969 24.2285 408.946 23.9137 410.927 23.6022L410.772 22.6144C412.755 22.3027 414.742 21.9945 416.735 21.6897L416.886 22.6782C418.877 22.3737 420.873 22.0725 422.874 21.7748L422.727 20.7857C424.701 20.4919 426.679 20.2016 428.662 19.9145L428.806 20.9042C430.773 20.6195 432.744 20.3381 434.72 20.06L434.581 19.0697C436.558 18.7914 438.54 18.5164 440.527 18.2447L440.662 19.2355C442.648 18.9639 444.637 18.6957 446.631 18.4307L446.5 17.4395C448.495 17.1744 450.495 16.9126 452.499 16.6541L452.627 17.6459C454.615 17.3894 456.608 17.1362 458.605 16.8863L458.481 15.894C460.453 15.6472 462.429 15.4036 464.41 15.1631L464.53 16.1558C466.509 15.9155 468.493 15.6784 470.48 15.4445L470.363 14.4514C472.352 14.2173 474.344 13.9865 476.341 13.7588L476.454 14.7524C478.45 14.5249 480.449 14.3006 482.453 14.0795L482.343 13.0855C484.348 12.8642 486.356 12.6462 488.369 12.4314L488.475 13.4258C490.451 13.2149 492.43 13.0071 494.413 12.8025L494.31 11.8078C496.292 11.6032 498.278 11.4017 500.268 11.2034L500.367 12.1984C502.355 12.0002 504.347 11.805 506.343 11.613L506.247 10.6176C508.244 10.4254 510.245 10.2364 512.249 10.0505L512.341 11.0462C514.345 10.8604 516.351 10.6776 518.361 10.4981L518.272 9.50202C520.268 9.32371 522.268 9.14846 524.271 8.97629L524.356 9.97262C526.338 9.80226 528.323 9.63492 530.312 9.47061L530.23 8.474C532.219 8.30959 534.212 8.1482 536.209 7.98984L536.288 8.98671C538.283 8.82843 540.281 8.67318 542.283 8.52096L542.207 7.52384C544.21 7.37154 546.217 7.22227 548.226 7.07603L548.299 8.07339C550.307 7.92724 552.318 7.78411 554.333 7.64403L554.264 6.64644C556.253 6.50817 558.244 6.37285 560.239 6.2405L560.305 7.23831C562.293 7.10642 564.285 6.97747 566.279 6.85147L566.216 5.85346C568.211 5.7274 570.209 5.60429 572.21 5.48414L572.27 6.48234C574.27 6.36225 576.273 6.24512 578.279 6.13094L578.222 5.13256C580.229 5.01833 582.239 4.90706 584.252 4.79875L584.305 5.79731C586.314 5.68925 588.325 5.58415 590.339 5.48201L590.288 4.48329C592.276 4.38246 594.267 4.28451 596.26 4.18945L596.308 5.18832C598.3 5.0933 600.296 5.00118 602.293 4.91194L602.249 3.91293C604.248 3.82365 606.249 3.73726 608.254 3.65377L608.295 4.6529C610.298 4.56944 612.304 4.48888 614.313 4.41122L614.274 3.41197C616.284 3.33427 618.296 3.25947 620.311 3.18757L620.346 4.18694C622.351 4.1154 624.358 4.04675 626.367 3.98097L626.335 2.98151C628.326 2.91632 630.32 2.85397 632.317 2.79444L632.347 3.794C634.342 3.7345 636.34 3.67784 638.34 3.62401L638.314 2.62437C640.315 2.57052 642.319 2.5195 644.325 2.47133L644.349 3.47104C646.354 3.42289 648.361 3.37758 650.371 3.33511L650.35 2.33533C652.361 2.29284 654.374 2.2532 656.389 2.21641L656.407 3.21624C658.41 3.17968 660.415 3.14593 662.422 3.11501L662.407 2.11512C664.401 2.0844 666.397 2.05646 668.395 2.03131L668.408 3.03123C670.405 3.00609 672.405 2.98373 674.406 2.96416L674.396 1.96421C676.399 1.94463 678.404 1.92784 680.41 1.91384L680.417 2.91382C682.423 2.89983 684.431 2.88863 686.441 2.88023L686.437 1.88024C688.448 1.87184 690.461 1.86623 692.476 1.86343L692.477 2.86343C693.484 2.86203 694.492 2.86133 695.5 2.86133C696.508 2.86133 697.515 2.86203 698.522 2.86343L698.523 1.86343C700.538 1.86623 702.551 1.87184 704.562 1.88024L704.558 2.88023C706.568 2.88863 708.576 2.89983 710.582 2.91381L710.589 1.91384C712.596 1.92783 714.6 1.94462 716.603 1.9642L716.593 2.96415C718.595 2.98372 720.594 3.00608 722.592 3.03122L722.604 2.0313C724.603 2.05646 726.599 2.0844 728.593 2.11512L728.577 3.115C730.584 3.14592 732.589 3.17967 734.592 3.21623L734.61 2.2164C736.626 2.25319 738.639 2.29283 740.65 2.33532L740.628 3.3351C742.638 3.37756 744.646 3.42288 746.651 3.47103L746.675 2.47132C748.681 2.51949 750.685 2.57051 752.686 2.62436L752.659 3.624C754.659 3.67783 756.657 3.73449 758.653 3.79398L758.683 2.79443C760.679 2.85395 762.673 2.91631 764.665 2.98149L764.632 3.98096C766.642 4.04673 768.649 4.11539 770.653 4.18692L770.689 3.18756C772.704 3.25945 774.716 3.33425 776.725 3.41195L776.687 4.41121C778.695 4.48887 780.701 4.56943 782.704 4.65288L782.746 3.65375C784.75 3.73724 786.752 3.82364 788.751 3.91292L788.706 4.91192C790.704 5.00116 792.699 5.09329 794.692 5.1883L794.739 4.18943C796.733 4.2845 798.724 4.38244 800.712 4.48327L800.661 5.48199C802.675 5.58413 804.686 5.68923 806.694 5.79729L806.748 4.79873C808.761 4.90704 810.771 5.01831 812.778 5.13254L812.721 6.13093C814.727 6.2451 816.73 6.36223 818.73 6.48232L818.79 5.48412C820.791 5.60428 822.789 5.72739 824.784 5.85345L824.721 6.85146C826.715 6.97745 828.706 7.1064 830.694 7.23829L830.76 6.24049C832.755 6.37284 834.747 6.50815 836.736 6.64643L836.667 7.64402C838.681 7.7841 840.693 7.92722 842.701 8.07338L842.774 7.07602C844.783 7.22225 846.789 7.37153 848.792 7.52383L848.717 8.52095C850.718 8.67317 852.717 8.82842 854.712 8.9867L854.791 7.98983C856.788 8.14819 858.781 8.30958 860.77 8.47399L860.688 9.47059C862.677 9.63491 864.662 9.80225 866.643 9.97261L866.729 8.97628C868.732 9.14845 870.732 9.3237 872.728 9.50202L872.639 10.4981C874.649 10.6776 876.655 10.8604 878.658 11.0462L878.751 10.0505C880.755 10.2364 882.756 10.4254 884.753 10.6176L884.657 11.613C886.653 11.805 888.645 12.0002 890.633 12.1984L890.732 11.2034C892.722 11.4017 894.708 11.6032 896.69 11.8078L896.587 12.8025C898.57 13.0071 900.55 13.2149 902.525 13.4258L902.631 12.4314C904.644 12.6462 906.652 12.8643 908.657 13.0855L908.547 14.0795C910.551 14.3006 912.55 14.5249 914.546 14.7524L914.659 13.7588C916.656 13.9865 918.648 14.2174 920.637 14.4514L920.52 15.4445C922.508 15.6785 924.491 15.9156 926.47 16.1559L926.591 15.1632C928.571 15.4036 930.547 15.6472 932.52 15.8941L932.395 16.8863C934.392 17.1362 936.385 17.3894 938.374 17.6459L938.501 16.6541C940.506 16.9126 942.505 17.1744 944.501 17.4395L944.369 18.4308C946.363 18.6957 948.353 18.964 950.338 19.2355L950.473 18.2447C952.46 18.5164 954.442 18.7915 956.419 19.0698L956.28 20.06C958.256 20.3381 960.228 20.6196 962.195 20.9043L962.338 19.9146C964.321 20.2016 966.3 20.492 968.274 20.7857L968.126 21.7748C970.127 22.0726 972.123 22.3737 974.115 22.6783L974.266 21.6898C976.258 21.9946 978.246 22.3028 980.229 22.6144L980.073 23.6023C982.055 23.9137 984.031 24.2286 986.003 24.5468L986.162 23.5596C988.135 23.878 990.103 24.1999 992.065 24.5252L991.902 25.5117C993.87 25.838 995.834 26.1676 997.792 26.5007L997.96 25.5148C999.958 25.8547 1001.95 26.1982 1003.94 26.5452L1003.77 27.5303C1005.75 27.8771 1007.73 28.2274 1009.71 28.5813L1009.89 27.5969C1011.86 27.9511 1013.84 28.3087 1015.8 28.6699L1015.62 29.6535C1017.59 30.0144 1019.54 30.3789 1021.5 30.7469L1021.68 29.7642C1023.64 30.1333 1025.6 30.5059 1027.54 30.8821L1027.35 31.8639C1029.35 32.2484 1031.33 32.6366 1033.31 33.0284L1033.5 32.0475C1035.48 32.4396 1037.46 32.8355 1039.43 33.235L1039.23 34.2151C1041.2 34.6143 1043.16 35.0172 1045.11 35.4238L1045.32 34.4447C1047.27 34.8517 1049.22 35.2623 1051.17 35.6765L1050.96 36.6546C1052.91 37.0701 1054.85 37.4894 1056.79 37.9123L1057 36.9353C1058.99 37.3682 1060.97 37.805 1062.94 38.2456L1062.72 39.2215C1064.69 39.6617 1066.65 40.1058 1068.6 40.5537L1068.83 39.579C1070.78 40.0273 1072.73 40.4795 1074.68 40.9355L1074.45 41.9091C1076.39 42.3647 1078.33 42.8242 1080.26 43.2875L1080.49 42.3151C1082.44 42.7832 1084.38 43.2551 1086.31 43.7309L1086.07 44.702C1088.04 45.1863 1090.01 45.6747 1091.96 46.1671L1092.2 45.1974C1094.16 45.6903 1096.11 46.1872 1098.05 46.6881L1097.8 47.6564C1099.74 48.1569 1101.67 48.6613 1103.6 49.1698L1103.85 48.203C1105.78 48.712 1107.7 49.225 1109.61 49.742L1109.35 50.7074C1111.3 51.2339 1113.23 51.7646 1115.17 52.2994L1115.43 51.3357C1117.39 51.8767 1119.33 52.4219 1121.27 52.9713L1120.99 53.9334C1122.93 54.4823 1124.86 55.0354 1126.77 55.5927L1127.05 54.6324C1128.97 55.1903 1130.89 55.7524 1132.79 56.3188L1132.5 57.2773C1134.41 57.8449 1136.31 58.4167 1138.2 58.9927L1138.49 58.0361C1140.44 58.6292 1142.38 59.2267 1144.31 59.8287L1144.01 60.7833C1145.94 61.3847 1147.86 61.9904 1149.77 62.6007L1150.07 61.6482C1151.98 62.2592 1153.88 62.8746 1155.78 63.4944L1155.46 64.4448C1157.35 65.0639 1159.24 65.6875 1161.11 66.3155L1161.43 65.3674C1163.34 66.0108 1165.25 66.6589 1167.15 67.3116L1166.83 68.2572C1168.74 68.9156 1170.65 69.5787 1172.54 70.2465L1172.87 69.3034C1174.77 69.9721 1176.66 70.6455 1178.54 71.3236L1178.2 72.2641C1180.07 72.9413 1181.94 73.6232 1183.79 74.3098L1184.14 73.372C1186.02 74.07 1187.9 74.7728 1189.76 75.4804L1189.41 76.4153C1191.3 77.1359 1193.19 77.8616 1195.07 78.5922L1195.43 77.6604C1197.31 78.392 1199.17 79.1287 1201.03 79.8704L1200.66 80.799C1202.51 81.5395 1204.35 82.2851 1206.18 83.0356L1206.56 82.1104C1208.42 82.8708 1210.26 83.6362 1212.09 84.4068L1211.7 85.3285C1213.58 86.1171 1215.44 86.9111 1217.29 87.7104L1217.68 86.7925C1219.53 87.5931 1221.37 88.3991 1223.2 89.2103L1222.8 90.1242C1224.62 90.9341 1226.43 91.7493 1228.23 92.5698L1228.64 91.66C1230.47 92.4928 1232.28 93.3309 1234.08 94.1746L1233.65 95.08C1235.5 95.9432 1237.32 96.8121 1239.14 97.6867L1239.57 96.786C1241.39 97.6622 1243.19 98.5441 1244.98 99.4317L1244.53 100.327C1246.32 101.213 1248.09 102.105 1249.84 103.002L1250.3 102.111C1252.09 103.029 1253.87 103.952 1255.64 104.882L1255.18 105.767C1256.97 106.712 1258.75 107.663 1260.52 108.62L1260.99 107.741C1262.76 108.7 1264.52 109.666 1266.25 110.637L1265.76 111.51C1267.5 112.479 1269.21 113.454 1270.92 114.435L1271.42 113.569C1273.18 114.587 1274.93 115.611 1276.66 116.642L1276.15 117.501C1277.88 118.536 1279.6 119.577 1281.3 120.625L1281.83 119.773C1283.53 120.823 1285.22 121.88 1286.89 122.943L1286.35 123.787C1288.04 124.862 1289.71 125.943 1291.36 127.03L1291.91 126.195C1293.61 127.317 1295.3 128.446 1296.96 129.582L1296.4 130.408C1298.06 131.541 1299.7 132.681 1301.31 133.827L1301.89 133.011C1303.52 134.161 1305.12 135.318 1306.7 136.483L1306.11 137.288C1307.75 138.494 1309.37 139.708 1310.97 140.929L1311.58 140.135C1313.18 141.363 1314.77 142.6 1316.33 143.843L1315.71 144.626C1317.27 145.865 1318.8 147.112 1320.31 148.367L1320.95 147.597C1322.51 148.892 1324.05 150.194 1325.56 151.505L1324.91 152.261C1326.44 153.584 1327.94 154.915 1329.42 156.254L1330.09 155.513C1331.57 156.857 1333.03 158.209 1334.46 159.569L1333.77 160.294C1335.23 161.68 1336.67 163.074 1338.08 164.476L1338.78 163.768C1340.22 165.2 1341.63 166.641 1343.01 168.091L1342.29 168.781C1343.66 170.225 1345.01 171.677 1346.33 173.138L1347.08 172.467C1348.43 173.966 1349.76 175.473 1351.05 176.99L1350.29 177.639C1351.6 179.173 1352.88 180.716 1354.13 182.268L1354.91 181.64C1356.16 183.2 1357.39 184.769 1358.58 186.347L1357.79 186.95C1359 188.555 1360.18 190.169 1361.33 191.793L1362.15 191.216C1363.31 192.866 1364.45 194.525 1365.55 196.195L1364.71 196.745C1365.8 198.405 1366.86 200.074 1367.89 201.753L1368.74 201.232C1369.8 202.961 1370.82 204.7 1371.8 206.45L1370.93 206.94C1371.91 208.684 1372.86 210.438 1373.76 212.202L1374.65 211.745C1375.57 213.525 1376.45 215.316 1377.29 217.117L1376.38 217.54C1377.23 219.358 1378.04 221.185 1378.82 223.023L1379.74 222.636C1380.51 224.486 1381.25 226.346 1381.95 228.217L1381.02 228.567C1381.71 230.434 1382.37 232.31 1382.99 234.197L1383.94 233.886C1384.56 235.794 1385.15 237.713 1385.69 239.642L1384.73 239.914C1385.27 241.829 1385.77 243.756 1386.22 245.692L1387.2 245.462C1387.66 247.408 1388.08 249.365 1388.46 251.332L1387.47 251.521C1387.85 253.473 1388.18 255.435 1388.47 257.408L1389.46 257.262C1389.76 259.243 1390.01 261.235 1390.22 263.237L1389.22 263.341C1389.43 265.306 1389.6 267.28 1389.72 269.265L1390.72 269.203Z" fill="url(#paint1_linear_2038_229)" stroke="white" stroke-width="2" stroke-dasharray="6 6"/>
</g>
<defs>
<linearGradient id="paint0_linear_2038_229" x1="695.5" y1="0" x2="695.5" y2="577" gradientUnits="userSpaceOnUse">
<stop stop-color="#D9D9D9" stop-opacity="0.25"/>
<stop offset="1" stop-color="#D9D9D9"/>
</linearGradient>
<linearGradient id="paint1_linear_2038_229" x1="695.5" y1="171.287" x2="695.5" y2="594.589" gradientUnits="userSpaceOnUse">
<stop stop-color="#0074D8" stop-opacity="0.68"/>
<stop offset="1" stop-color="#40A1DD" stop-opacity="0.21"/>
</linearGradient>
</defs>
</svg>
