<svg width="365" height="131" viewBox="0 0 365 131" fill="none" xmlns="http://www.w3.org/2000/svg">
<path fill-rule="evenodd" clip-rule="evenodd" d="M13.7736 0C6.16664 0 0 6.17376 0 13.7895V107.558C0 115.174 6.16663 121.347 13.7736 121.347H166.621L175.613 131L184.605 121.347H351.226C358.833 121.347 365 115.174 365 107.558V13.7895C365 6.17376 358.833 0 351.226 0H13.7736Z" fill="white"/>
<path d="M153.254 37.0799L156.438 24.6831H159.944L155.07 42.6205H151.538L147.509 29.8442L143.481 42.6205H139.899L135 24.6831H138.631L141.864 37.0293L145.769 24.6831H149.325L153.254 37.0799Z" fill="#15121E"/>
<path d="M163.482 34.98H168.953C168.904 33.7403 168.108 32.526 166.218 32.526C164.502 32.526 163.557 33.8415 163.482 34.98ZM169.277 38.2184L172.037 39.0533C171.416 41.2037 169.476 43 166.467 43C163.109 43 160.15 40.5459 160.15 36.3462C160.15 32.3742 163.035 29.7936 166.168 29.7936C169.948 29.7936 172.211 32.2477 172.211 36.245C172.211 36.7257 172.162 37.2317 172.162 37.2823H163.408C163.482 38.9268 164.85 40.1158 166.491 40.1158C168.033 40.1158 168.879 39.3316 169.277 38.2184Z" fill="#15121E"/>
<path d="M173.772 39.1545L176.607 38.522C176.681 39.5087 177.403 40.4194 178.845 40.4194C179.939 40.4194 180.462 39.8375 180.462 39.1798C180.462 38.6232 180.088 38.1678 179.143 37.9654L177.527 37.5859C175.164 37.0546 174.095 35.6125 174.095 33.8668C174.095 31.6405 176.035 29.7936 178.671 29.7936C182.153 29.7936 183.322 32.0453 183.471 33.3862L180.71 34.0186C180.611 33.285 180.088 32.3489 178.696 32.3489C177.825 32.3489 177.129 32.8802 177.129 33.5885C177.129 34.1957 177.577 34.5752 178.248 34.7017L179.989 35.0812C182.401 35.5872 183.62 37.0799 183.62 38.9015C183.62 40.9254 182.078 43 178.87 43C175.189 43 173.921 40.5712 173.772 39.1545Z" fill="#15121E"/>
<path d="M190.358 26.4541V30.1731H192.82V33.1585H190.358V38.3702C190.358 39.4581 190.856 39.8122 191.801 39.8122C192.198 39.8122 192.646 39.7617 192.82 39.7111V42.494C192.522 42.6205 191.925 42.7976 190.955 42.7976C188.567 42.7976 187.075 41.3555 187.075 38.9521V33.1585H184.862V30.1731H185.484C186.777 30.1731 187.374 29.3129 187.374 28.1997V26.4541H190.358Z" fill="#15121E"/>
<path d="M205.407 42.6205H201.95V24.6831H213.092V27.9973H205.382V32.4248H212.246V35.6378H205.407V42.6205Z" fill="#15121E"/>
<path d="M220.361 39.9387C221.978 39.9387 223.47 38.7497 223.47 36.3968C223.47 34.0439 221.978 32.8549 220.361 32.8549C218.745 32.8549 217.253 34.0439 217.253 36.3968C217.253 38.7244 218.745 39.9387 220.361 39.9387ZM220.361 29.7936C224.017 29.7936 226.778 32.5513 226.778 36.3968C226.778 40.217 224.017 43 220.361 43C216.705 43 213.945 40.217 213.945 36.3968C213.945 32.5513 216.705 29.7936 220.361 29.7936Z" fill="#15121E"/>
<path d="M236.849 30.1225V33.5126C236.476 33.4368 236.153 33.4115 235.855 33.4115C234.163 33.4115 232.696 34.2463 232.696 36.9281V42.6205H229.389V30.1731H232.597V32.02C233.343 30.3755 235.034 30.0719 236.078 30.0719C236.352 30.0719 236.601 30.0972 236.849 30.1225Z" fill="#15121E"/>
<path d="M251.039 30.1731L246.14 35.4101L251.138 42.6205H247.085L243.852 37.8642L242.484 39.3316V42.6205H239.176V24.3036H242.484V34.8029L246.712 30.1731H251.039Z" fill="#15121E"/>
<path d="M268.166 42.6205L264.709 35.7137H262.918V42.6205H259.461V24.6831H266.35C269.782 24.6831 271.971 27.0866 271.971 30.1984C271.971 32.7031 270.528 34.6005 268.215 35.2836L271.996 42.6205H268.166ZM262.918 32.7031H265.704C267.445 32.7031 268.464 31.6911 268.464 30.2237C268.464 28.7057 267.445 27.719 265.704 27.719H262.918V32.7031Z" fill="#15121E"/>
<path d="M278.064 42.6205H274.756V30.1731H278.064V42.6205ZM274.358 26.0999C274.358 24.9361 275.278 24 276.398 24C277.542 24 278.437 24.9361 278.437 26.0999C278.437 27.213 277.542 28.1491 276.398 28.1491C275.278 28.1491 274.358 27.213 274.358 26.0999Z" fill="#15121E"/>
<path d="M293.145 30.1731L288.395 42.6205H285.087L280.088 30.1731H283.719L286.753 38.522L289.663 30.1731H293.145Z" fill="#15121E"/>
<path d="M297.205 34.98H302.676C302.627 33.7403 301.831 32.526 299.941 32.526C298.225 32.526 297.28 33.8415 297.205 34.98ZM303 38.2184L305.76 39.0533C305.139 41.2037 303.199 43 300.19 43C296.832 43 293.873 40.5459 293.873 36.3462C293.873 32.3742 296.758 29.7936 299.891 29.7936C303.671 29.7936 305.934 32.2477 305.934 36.245C305.934 36.7257 305.885 37.2317 305.885 37.2823H297.131C297.205 38.9268 298.573 40.1158 300.214 40.1158C301.756 40.1158 302.602 39.3316 303 38.2184Z" fill="#15121E"/>
<path d="M316 30.1225V33.5126C315.627 33.4368 315.304 33.4115 315.005 33.4115C313.314 33.4115 311.847 34.2463 311.847 36.9281V42.6205H308.539V30.1731H311.747V32.02C312.493 30.3755 314.185 30.0719 315.229 30.0719C315.503 30.0719 315.751 30.0972 316 30.1225Z" fill="#15121E"/>
<g opacity="0.5">
<path d="M138.044 60.8999L136.154 60.6707C136.135 60.4989 136.135 60.3271 136.135 60.1743C136.135 58.0549 137.717 56.1647 140.455 56.1647C143.136 56.1647 144.679 57.9022 144.679 59.9643C144.679 61.5872 143.754 62.8856 142.326 63.783L139.858 65.3486C139.144 65.8069 138.507 66.3224 138.334 67.0861H144.757V68.8236H136C136.039 66.7997 136.849 65.2531 138.97 63.8975L141.053 62.561C142.23 61.8163 142.77 60.938 142.77 59.9834C142.77 58.8569 141.998 57.8067 140.417 57.8067C138.777 57.8067 138.006 58.9332 138.006 60.3461C138.006 60.518 138.025 60.7089 138.044 60.8999Z" fill="#2A4059"/>
<path d="M148.253 60.8999L146.363 60.6707C146.344 60.4989 146.344 60.3271 146.344 60.1743C146.344 58.0549 147.925 56.1647 150.664 56.1647C153.345 56.1647 154.888 57.9022 154.888 59.9643C154.888 61.5872 153.962 62.8856 152.535 63.783L150.066 65.3486C149.353 65.8069 148.716 66.3224 148.543 67.0861H154.965V68.8236H146.209C146.247 66.7997 147.058 65.2531 149.179 63.8975L151.262 62.561C152.439 61.8163 152.979 60.938 152.979 59.9834C152.979 58.8569 152.207 57.8067 150.626 57.8067C148.986 57.8067 148.215 58.9332 148.215 60.3461C148.215 60.518 148.234 60.7089 148.253 60.8999Z" fill="#2A4059"/>
<path d="M157.093 67.6016C157.093 66.857 157.671 66.2651 158.424 66.2651C159.176 66.2651 159.774 66.857 159.774 67.6016C159.774 68.3463 159.176 68.9191 158.424 68.9191C157.671 68.9191 157.093 68.3463 157.093 67.6016Z" fill="#2A4059"/>
<path d="M161.805 65.4632L163.618 64.9286C163.733 66.456 164.871 67.4871 166.434 67.4871C167.919 67.4871 169.115 66.5133 169.115 64.9858C169.115 63.2865 167.861 62.4273 166.414 62.4273C165.527 62.4273 164.679 62.771 164.139 63.3247C163.483 63.0765 162.923 62.8283 162.287 62.5992L163.907 56.4511H170.503V58.1695H165.161L164.235 61.7209C164.794 61.1099 165.797 60.8044 166.781 60.8044C169.23 60.8044 171.024 62.351 171.024 64.9095C171.024 67.2389 169.211 69.1291 166.434 69.1291C163.772 69.1291 161.978 67.4107 161.805 65.4632Z" fill="#2A4059"/>
<path d="M181.552 59.6397L177.598 63.5157L181.63 68.8236H179.354L176.325 64.7758L175.033 66.0551V68.8236H173.239V55H175.033V63.7066L179.045 59.6397H181.552Z" fill="#2A4059"/>
<path d="M189.989 68.8236H188.195V59.6397H189.931V60.8617C190.509 59.8497 191.667 59.3724 192.747 59.3724C193.904 59.3724 195.023 59.9261 195.524 61.1099C196.257 59.7924 197.453 59.3724 198.629 59.3724C200.25 59.3724 201.831 60.4607 201.831 62.8665V68.8236H200.037V63.0574C200.037 61.8545 199.44 60.9571 198.07 60.9571C196.797 60.9571 195.929 61.95 195.929 63.2674V68.8236H194.116V63.0574C194.116 61.8736 193.538 60.9571 192.149 60.9571C190.857 60.9571 189.989 61.9118 189.989 63.2865V68.8236Z" fill="#2A4059"/>
<path d="M205.909 63.2865H210.982C210.943 61.9691 210.075 60.938 208.436 60.938C206.912 60.938 205.986 62.1027 205.909 63.2865ZM211.252 65.6732L212.814 66.2078C212.293 67.8308 210.808 69.11 208.648 69.11C206.16 69.11 203.98 67.3152 203.98 64.203C203.98 61.3199 206.083 59.3533 208.416 59.3533C211.271 59.3533 212.872 61.3008 212.872 64.1648C212.872 64.3939 212.853 64.6231 212.833 64.7376H205.851C205.89 66.3797 207.086 67.5253 208.648 67.5253C210.152 67.5253 210.905 66.7042 211.252 65.6732Z" fill="#2A4059"/>
<path d="M216.98 68.8236H215.186V59.6397H216.922V60.8617C217.501 59.8497 218.658 59.3724 219.738 59.3724C220.895 59.3724 222.014 59.9261 222.516 61.1099C223.248 59.7924 224.444 59.3724 225.621 59.3724C227.241 59.3724 228.823 60.4607 228.823 62.8665V68.8236H227.029V63.0574C227.029 61.8545 226.431 60.9571 225.061 60.9571C223.789 60.9571 222.921 61.95 222.921 63.2674V68.8236H221.108V63.0574C221.108 61.8736 220.529 60.9571 219.14 60.9571C217.848 60.9571 216.98 61.9118 216.98 63.2865V68.8236Z" fill="#2A4059"/>
<path d="M233.518 68.8236H231.724V55H233.518V60.938C233.961 60.117 235.041 59.3724 236.584 59.3724C239.4 59.3724 240.847 61.5108 240.847 64.1839C240.847 66.9143 239.285 69.0718 236.526 69.0718C235.157 69.0718 234.096 68.4799 233.518 67.4871V68.8236ZM238.995 64.1839C238.995 62.1982 237.934 60.9571 236.256 60.9571C234.656 60.9571 233.498 62.1982 233.498 64.1839C233.498 66.1696 234.656 67.468 236.256 67.468C237.915 67.468 238.995 66.1696 238.995 64.1839Z" fill="#2A4059"/>
<path d="M244.334 63.2865H249.406C249.368 61.9691 248.5 60.938 246.86 60.938C245.337 60.938 244.411 62.1027 244.334 63.2865ZM249.676 65.6732L251.239 66.2078C250.718 67.8308 249.233 69.11 247.072 69.11C244.584 69.11 242.405 67.3152 242.405 64.203C242.405 61.3199 244.507 59.3533 246.841 59.3533C249.696 59.3533 251.296 61.3008 251.296 64.1648C251.296 64.3939 251.277 64.6231 251.258 64.7376H244.276C244.314 66.3797 245.51 67.5253 247.072 67.5253C248.577 67.5253 249.329 66.7042 249.676 65.6732Z" fill="#2A4059"/>
<path d="M258.761 59.5442V61.4536C258.491 61.4154 258.221 61.3963 257.97 61.3963C256.446 61.3963 255.424 62.1982 255.424 64.2221V68.8236H253.611V59.6397H255.385V61.2435C256.06 59.8306 257.218 59.4869 258.163 59.4869C258.413 59.4869 258.664 59.5251 258.761 59.5442Z" fill="#2A4059"/>
<path d="M259.825 66.4369L261.464 65.8641C261.58 66.8188 262.313 67.5825 263.625 67.5825C264.647 67.5825 265.206 67.0097 265.206 66.3606C265.206 65.7878 264.782 65.3486 264.01 65.1768L262.429 64.8331C260.982 64.5276 260.114 63.5538 260.114 62.2555C260.114 60.6898 261.599 59.3533 263.413 59.3533C265.958 59.3533 266.749 60.9953 266.942 61.8163L265.341 62.4082C265.264 61.9309 264.878 60.8808 263.413 60.8808C262.487 60.8808 261.869 61.4727 261.869 62.1027C261.869 62.6564 262.217 63.0574 262.93 63.2102L264.435 63.5347C266.113 63.8975 267 64.9095 267 66.2651C267 67.5634 265.901 69.11 263.605 69.11C261.059 69.11 259.979 67.4871 259.825 66.4369Z" fill="#2A4059"/>
<path d="M136 90.0118L137.813 89.4772C137.929 91.0047 139.067 92.0357 140.629 92.0357C142.114 92.0357 143.31 91.062 143.31 89.5345C143.31 87.8352 142.056 86.976 140.61 86.976C139.723 86.976 138.874 87.3197 138.334 87.8734C137.678 87.6251 137.119 87.3769 136.482 87.1478L138.102 80.9997H144.699V82.7181H139.356L138.43 86.2695C138.99 85.6585 139.993 85.353 140.976 85.353C143.426 85.353 145.219 86.8996 145.219 89.4581C145.219 91.7875 143.406 93.6777 140.629 93.6777C137.967 93.6777 136.174 91.9593 136 90.0118Z" fill="#2A4059"/>
<path d="M150.231 87.6251L149.306 86.0786L152.99 82.7181H147.01V80.9997H155.497V82.68L151.929 85.9449C153.761 85.9449 155.786 87.1669 155.786 89.7063C155.786 91.7875 154.166 93.6777 151.254 93.6777C148.361 93.6777 146.721 91.8066 146.605 89.7827L148.457 89.3626C148.534 91.0047 149.73 92.0357 151.234 92.0357C152.951 92.0357 153.877 90.9856 153.877 89.7445C153.877 88.1216 152.565 87.4342 151.331 87.4342C150.945 87.4342 150.559 87.5106 150.231 87.6251Z" fill="#2A4059"/>
<path d="M174.953 93.3723H173.429L173.256 91.4629C172.658 92.5321 171.173 93.6587 168.877 93.6587C165.444 93.6587 162.242 91.1765 162.242 86.5941C162.242 82.0117 165.637 79.5486 169.012 79.5486C171.983 79.5486 174.278 81.1907 175.069 83.6346L173.352 84.3602C172.735 82.4126 171.134 81.267 169.012 81.267C166.563 81.267 164.171 83.0045 164.171 86.5941C164.171 90.1837 166.486 91.9593 168.935 91.9593C171.983 91.9593 173.082 89.8209 173.159 88.4271H168.415V86.7468H174.953V93.3723Z" fill="#2A4059"/>
<path d="M182.816 84.0929V86.0022C182.546 85.964 182.276 85.9449 182.025 85.9449C180.501 85.9449 179.479 86.7468 179.479 88.7707V93.3723H177.666V84.1883H179.44V85.7922C180.115 84.3793 181.273 84.0356 182.218 84.0356C182.468 84.0356 182.719 84.0738 182.816 84.0929Z" fill="#2A4059"/>
<path d="M188.627 92.0548C190.17 92.0548 191.52 90.9092 191.52 88.7707C191.52 86.6514 190.17 85.5058 188.627 85.5058C187.084 85.5058 185.734 86.6514 185.734 88.7707C185.734 90.9092 187.084 92.0548 188.627 92.0548ZM188.627 83.9019C191.404 83.9019 193.372 85.9831 193.372 88.7707C193.372 91.5775 191.404 93.6587 188.627 93.6587C185.85 93.6587 183.882 91.5775 183.882 88.7707C183.882 85.9831 185.85 83.9019 188.627 83.9019Z" fill="#2A4059"/>
<path d="M201.711 92.2648C201.21 93.2195 200.053 93.6587 198.973 93.6587C196.812 93.6587 195.501 92.0548 195.501 89.9736V84.1883H197.314V89.7063C197.314 90.9665 197.892 92.0739 199.416 92.0739C200.882 92.0739 201.615 91.1192 201.615 89.7254V84.1883H203.428V91.6729C203.428 92.3985 203.486 93.0477 203.524 93.3723H201.789C201.75 93.1622 201.711 92.6467 201.711 92.2648Z" fill="#2A4059"/>
<path d="M208.316 97H206.522V84.1883H208.277V85.6203C208.779 84.7039 209.878 83.9783 211.382 83.9783C214.16 83.9783 215.645 86.0977 215.645 88.7707C215.645 91.5011 214.044 93.6205 211.324 93.6205C209.897 93.6205 208.817 92.9522 208.316 92.1312V97ZM213.793 88.7707C213.793 86.9378 212.752 85.5631 211.054 85.5631C209.396 85.5631 208.296 86.9378 208.296 88.7707C208.296 90.661 209.396 92.0166 211.054 92.0166C212.732 92.0166 213.793 90.661 213.793 88.7707Z" fill="#2A4059"/>
<path d="M217.087 90.9856L218.727 90.4128C218.842 91.3674 219.575 92.1312 220.887 92.1312C221.909 92.1312 222.468 91.5584 222.468 90.9092C222.468 90.3364 222.044 89.8973 221.273 89.7254L219.691 89.3817C218.244 89.0762 217.376 88.1025 217.376 86.8041C217.376 85.2385 218.862 83.9019 220.675 83.9019C223.221 83.9019 224.011 85.544 224.204 86.365L222.603 86.9569C222.526 86.4795 222.14 85.4294 220.675 85.4294C219.749 85.4294 219.132 86.0213 219.132 86.6514C219.132 87.2051 219.479 87.606 220.192 87.7588L221.697 88.0834C223.375 88.4462 224.262 89.4581 224.262 90.8137C224.262 92.1121 223.163 93.6587 220.867 93.6587C218.322 93.6587 217.241 92.0357 217.087 90.9856Z" fill="#2A4059"/>
</g>
<g filter="url(#filter0_d_2038_282)">
<path d="M32 26C32 23.2386 34.2386 21 37 21H101C103.761 21 106 23.2386 106 26V90C106 92.7614 103.761 95 101 95H37C34.2386 95 32 92.7614 32 90V26Z" fill="#0074D8"/>
</g>
<defs>
<filter id="filter0_d_2038_282" x="28" y="21" width="82" height="82" filterUnits="userSpaceOnUse" color-interpolation-filters="sRGB">
<feFlood flood-opacity="0" result="BackgroundImageFix"/>
<feColorMatrix in="SourceAlpha" type="matrix" values="0 0 0 0 0 0 0 0 0 0 0 0 0 0 0 0 0 0 127 0" result="hardAlpha"/>
<feOffset dy="4"/>
<feGaussianBlur stdDeviation="2"/>
<feComposite in2="hardAlpha" operator="out"/>
<feColorMatrix type="matrix" values="0 0 0 0 0 0 0 0 0 0 0 0 0 0 0 0 0 0 0.25 0"/>
<feBlend mode="normal" in2="BackgroundImageFix" result="effect1_dropShadow_2038_282"/>
<feBlend mode="normal" in="SourceGraphic" in2="effect1_dropShadow_2038_282" result="shape"/>
</filter>
</defs>
</svg>
